<?xml version="1.0" encoding="utf-8"?>
<!-- Generator: Adobe Illustrator 27.0.0, SVG Export Plug-In . SVG Version: 6.00 Build 0)  -->
<svg version="1.1" id="레이어_1" xmlns="http://www.w3.org/2000/svg" xmlns:xlink="http://www.w3.org/1999/xlink" x="0px"
	 y="0px" viewBox="0 0 99.2 23.4" style="enable-background:new 0 0 99.2 23.4;" xml:space="preserve">
<style type="text/css">
	.st0{fill-rule:evenodd;clip-rule:evenodd;fill:#E50012;}
	.st1{fill:#FFFFFF;}
	.st2{fill-rule:evenodd;clip-rule:evenodd;fill:#FFFFFF;}
</style>
<g>
	<g>
		<path class="st0" d="M59.6,11.4c0,6.2-5,11.3-11.3,11.3c-6.2,0-11.2-5.1-11.2-11.3c0-6.2,5-11.3,11.2-11.3
			C54.6,0.2,59.6,5.2,59.6,11.4z"/>
		<g>
			<path class="st1" d="M38.9,13.4C38.9,13.4,38.9,13.4,38.9,13.4C38.9,13.4,38.9,13.4,38.9,13.4C38.9,13.4,38.9,13.4,38.9,13.4z"/>
			<path class="st1" d="M38.3,14.3L38.3,14.3C38.4,14.3,38.4,14.3,38.3,14.3C38.3,14.3,38.3,14.2,38.3,14.3z"/>
			<path class="st1" d="M39.4,12.8L39.4,12.8C39.4,12.8,39.4,12.8,39.4,12.8C39.4,12.8,39.4,12.8,39.4,12.8z"/>
			<path class="st1" d="M39.3,12.8c0,0-0.1,0.1-0.1,0.1C39.3,12.9,39.3,12.9,39.3,12.8L39.3,12.8z"/>
			<path class="st1" d="M42.3,17.4c0.1,0.1,0.4,0.1,0.5,0.1c-0.1-0.1-0.1-0.1-0.2-0.1C42.6,17.4,42.5,17.4,42.3,17.4z"/>
			<path class="st1" d="M42.3,17.4C42.3,17.4,42.3,17.4,42.3,17.4C42.3,17.4,42.3,17.3,42.3,17.4L42.3,17.4z"/>
			<path class="st1" d="M42.2,17.3c-0.1,0-0.1,0-0.2,0c0,0-0.1,0-0.1,0c0,0,0,0,0,0C42.1,17.3,42.2,17.3,42.2,17.3
				c0.1,0.1,0.1,0.1,0.1,0.1v0C42.3,17.4,42.3,17.3,42.2,17.3C42.2,17.3,42.2,17.3,42.2,17.3z"/>
			<path class="st1" d="M39.6,12.6c0.1-0.1,0.1-0.1,0.1-0.1c0-0.1,0.1-0.1,0.1-0.1c0-0.1,0-0.1,0-0.1s-0.1,0.1-0.1,0.1
				C39.7,12.5,39.7,12.5,39.6,12.6c-0.1,0-0.1,0-0.2,0.1c0,0,0,0,0,0C39.4,12.7,39.5,12.7,39.6,12.6L39.6,12.6z"/>
			<path class="st1" d="M41.1,17.1C41.1,17.1,41.2,17.1,41.1,17.1C41.2,17.1,41.2,17.1,41.1,17.1L41.1,17.1c0-0.1-0.1,0-0.2-0.1
				c-0.1,0,0,0-0.1-0.1c-0.1,0-0.1,0-0.1,0.1c0,0,0.1,0,0.1,0C40.9,17.1,41.1,17.1,41.1,17.1z"/>
			<path class="st1" d="M47.8,4.3C47.8,4.3,47.8,4.3,47.8,4.3C47.8,4.3,47.8,4.3,47.8,4.3C47.8,4.3,47.8,4.3,47.8,4.3z"/>
			<path class="st1" d="M40.8,8.4C40.8,8.4,40.9,8.4,40.8,8.4C40.8,8.4,40.8,8.4,40.8,8.4L40.8,8.4z"/>
			<path class="st1" d="M39.4,12.8C39.4,12.8,39.4,12.8,39.4,12.8L39.4,12.8C39.4,12.8,39.4,12.8,39.4,12.8z"/>
			<path class="st1" d="M48.1,4.3L48.1,4.3C48.1,4.2,48.1,4.2,48.1,4.3z"/>
			<path class="st1" d="M47.7,4.4C47.7,4.4,47.7,4.4,47.7,4.4C47.8,4.4,47.8,4.4,47.7,4.4C47.8,4.3,47.7,4.3,47.7,4.4z"/>
			<path class="st1" d="M40.8,9.5L40.8,9.5L40.8,9.5C40.8,9.5,40.8,9.5,40.8,9.5z"/>
			<path class="st1" d="M39,13.3c0,0,0.1-0.2,0.2-0.3c-0.1,0.1-0.2,0.3-0.3,0.4C39,13.3,39,13.3,39,13.3C39,13.3,39,13.3,39,13.3z"
				/>
			<path class="st1" d="M40.2,12.1c0.1-0.1,0.1-0.1,0.2-0.1v-0.1C40.3,11.9,40.3,12.1,40.2,12.1C40.2,12.1,40.2,12.1,40.2,12.1z"/>
			<path class="st1" d="M40.9,9.6L40.9,9.6C40.9,9.6,40.9,9.6,40.9,9.6C40.9,9.6,40.9,9.6,40.9,9.6z"/>
			<path class="st1" d="M49.8,19.1c0.1,0.1,0.2,0,0.2,0.1c0-0.1,0.1-0.1,0.1-0.1c-0.1,0-0.2,0-0.2,0S49.8,19.1,49.8,19.1z"/>
			<path class="st1" d="M54,19C54,18.9,54,18.9,54,19C53.9,18.9,53.9,18.9,54,19C53.9,18.9,53.9,18.9,54,19L54,19z"/>
			<path class="st1" d="M50.2,19.1C50.2,19.1,50.2,19.1,50.2,19.1C50.2,19.1,50.2,19.1,50.2,19.1C50.2,19.1,50.2,19.1,50.2,19.1
				C50.1,19.1,50.2,19.1,50.2,19.1z"/>
			<path class="st1" d="M53.6,18.9C53.6,18.9,53.6,18.9,53.6,18.9c-0.1-0.1-0.1-0.1-0.1,0H53.6c-0.1,0-0.2,0.1-0.2,0
				c-0.1,0-0.1,0-0.1,0.1h0.1c0,0,0,0,0.1,0c0,0.1,0,0.1,0,0.1c0.1-0.1,0.3-0.1,0.4-0.1C53.8,18.9,53.7,18.9,53.6,18.9
				c0,0,0.1,0,0.2,0c0,0,0,0,0-0.1C53.8,18.9,53.7,18.9,53.6,18.9C53.7,18.9,53.6,18.9,53.6,18.9z"/>
			<polygon class="st1" points="53.9,18.9 53.9,18.9 53.9,18.9 			"/>
			<path class="st1" d="M56.7,17.7C56.7,17.7,56.7,17.7,56.7,17.7C56.7,17.7,56.7,17.7,56.7,17.7C56.7,17.7,56.7,17.7,56.7,17.7z"/>
			<path class="st1" d="M55.2,18.4c-0.1-0.1-0.1,0-0.1,0C55.2,18.4,55.1,18.4,55.2,18.4C55.2,18.4,55.2,18.4,55.2,18.4z"/>
			<path class="st1" d="M48.6,4C48.6,4,48.5,4,48.6,4C48.6,4,48.6,4,48.6,4z"/>
			<path class="st1" d="M54.3,18.9L54.3,18.9C54.3,18.8,54.3,18.9,54.3,18.9C54.2,18.9,54.3,18.9,54.3,18.9z"/>
			<polygon class="st1" points="53.9,18.9 53.9,18.9 53.9,18.9 			"/>
			<path class="st1" d="M55.4,18.4C55.4,18.4,55.4,18.4,55.4,18.4c-0.1,0-0.1,0.1-0.2,0.1c0,0,0,0,0.1,0
				C55.4,18.5,55.3,18.4,55.4,18.4z"/>
			<path class="st1" d="M55.4,18.3L55.4,18.3L55.4,18.3C55.3,18.3,55.3,18.3,55.4,18.3z"/>
			<path class="st1" d="M56.7,17.7C56.8,17.6,56.8,17.6,56.7,17.7C56.8,17.6,56.8,17.6,56.7,17.7z"/>
			<path class="st1" d="M58.1,15.3L58.1,15.3C58.2,15.2,58.1,15.2,58.1,15.3z"/>
			<path class="st1" d="M58.6,15.3C58.6,15.3,58.6,15.3,58.6,15.3C58.6,15.3,58.7,15.3,58.6,15.3C58.6,15.3,58.6,15.3,58.6,15.3z"/>
			<path class="st1" d="M55.2,18.6C55.2,18.6,55.2,18.6,55.2,18.6c-0.1,0.1-0.2,0.1-0.2,0.1C54.9,18.8,55.1,18.6,55.2,18.6z"/>
			<path class="st1" d="M50.1,19C50.1,19,50.1,19,50.1,19c0,0-0.1-0.1-0.2-0.1C50,19,50,19,50,19C50,19,50.1,19,50.1,19z"/>
			<path class="st1" d="M45.1,18C45,18,45,18,45.1,18C45,18,45,18,45.1,18C45,18,45.1,18,45.1,18z"/>
			<path class="st1" d="M41.8,17.1C41.8,17.1,41.8,17.1,41.8,17.1C41.8,17.1,41.8,17.1,41.8,17.1C41.8,17.1,41.8,17.1,41.8,17.1z"/>
			<path class="st1" d="M46.1,18.5c0.1,0,0.2,0.1,0.3,0C46.2,18.5,46.1,18.5,46.1,18.5C46.1,18.4,46.1,18.4,46.1,18.5z"/>
			<path class="st1" d="M41.9,17.1C41.9,17.1,41.9,17.1,41.9,17.1C41.9,17.1,41.9,17.2,41.9,17.1C41.9,17.1,41.9,17.1,41.9,17.1z"/>
			<path class="st1" d="M41.9,17.3L41.9,17.3C41.9,17.2,41.9,17.2,41.9,17.3c0-0.1-0.1-0.1-0.2-0.1c-0.1,0-0.1,0-0.1,0
				c-0.1,0-0.1-0.1-0.2-0.1v-0.1c-0.1,0-0.1-0.1-0.2,0h-0.1c0.1,0.1,0.3,0.1,0.3,0.1C41.7,17.2,41.7,17.2,41.9,17.3z"/>
			<path class="st1" d="M40.8,9.5c-0.1-0.1-0.2,0-0.2-0.1C40.6,9.5,40.8,9.6,40.8,9.5C40.8,9.6,40.8,9.5,40.8,9.5z"/>
			<path class="st1" d="M49.7,5.3C49.7,5.4,49.7,5.4,49.7,5.3L49.7,5.3C49.7,5.4,49.7,5.4,49.7,5.3z"/>
			<path class="st1" d="M39.7,15.2C39.7,15.2,39.7,15.2,39.7,15.2C39.6,15.2,39.6,15.2,39.7,15.2L39.7,15.2z"/>
			<path class="st1" d="M48.6,4C48.6,4,48.7,4,48.6,4c0.1,0,0.1,0,0.1,0C48.7,4,48.6,4,48.6,4z"/>
			<path class="st1" d="M49.6,5.5C49.6,5.4,49.6,5.4,49.6,5.5C49.6,5.4,49.6,5.4,49.6,5.5z"/>
			<path class="st1" d="M48.3,7.1L48.3,7.1C48.3,7.1,48.3,7,48.3,7.1L48.3,7.1C48.3,7,48.3,7,48.3,7.1z"/>
			<path class="st1" d="M42.7,8.1C42.7,8.1,42.7,8,42.7,8.1C42.7,8.1,42.7,8.1,42.7,8.1L42.7,8.1z"/>
			<path class="st1" d="M48.2,7C48.2,7,48.2,7,48.2,7C48.2,7,48.2,7,48.2,7L48.2,7C48.2,7,48.2,7,48.2,7z"/>
			<path class="st1" d="M42.8,8C42.8,8,42.8,8,42.8,8C42.8,8,42.8,8,42.8,8C42.8,8,42.8,8,42.8,8z"/>
			<path class="st1" d="M41.4,15.6c0.2,0,0.3,0.1,0.4,0.1c-0.1,0-0.2-0.1-0.2-0.1s-0.1,0-0.1,0h-0.1c-0.1,0-0.2-0.1-0.3-0.1
				c0,0,0,0,0,0.1C41.3,15.6,41.3,15.6,41.4,15.6z"/>
			<path class="st1" d="M49.5,5.5c0.1,0.1,0.1,0.1,0.1,0C49.6,5.5,49.6,5.5,49.5,5.5C49.5,5.5,49.5,5.5,49.5,5.5z"/>
			<path class="st1" d="M46.3,10.9L46.3,10.9C46.3,10.9,46.3,10.8,46.3,10.9z"/>
			<path class="st1" d="M53.3,15.9C53.3,15.9,53.3,15.9,53.3,15.9C53.3,15.9,53.3,15.9,53.3,15.9C53.3,15.9,53.3,15.9,53.3,15.9z"/>
			<path class="st1" d="M44.4,16.3c-0.1,0-0.1,0-0.1,0C44.3,16.3,44.4,16.3,44.4,16.3z"/>
			<path class="st1" d="M58.6,13.2C58.6,13.1,58.6,13.1,58.6,13.2C58.6,13.1,58.6,13.1,58.6,13.2c-0.1-0.2,0-0.3,0.1-0.4
				c0-0.1,0-0.1-0.1-0.1c0,0.1,0,0.1,0,0.1c-0.1,0-0.1,0.1-0.1,0.1h-0.1l-0.1,0.1c0-0.1,0.1-0.2,0.1-0.3c-0.1,0,0-0.1,0-0.1
				c-0.1,0,0-0.3,0.1-0.4l-0.1,0.1c0-0.1,0.1-0.3,0.1-0.3c0,0.1,0,0.1-0.1,0.1c0,0.1-0.1,0.1-0.1,0.2c-0.1,0.1-0.1,0.2-0.1,0.2
				c0,0.1-0.1,0-0.1,0c0-0.1,0-0.1,0.1-0.1c0,0,0,0-0.1,0c0-0.1,0.1-0.1,0.1-0.2c0,0,0,0,0,0.1c0-0.1,0-0.2,0-0.2s0,0-0.1,0
				c0,0,0,0,0-0.1c0,0.1-0.2,0.2-0.2,0.2c0,0.1,0,0.1-0.1,0.1c-0.1,0.1-0.1,0.1-0.1,0.2c-0.1,0-0.1,0.1-0.2,0.1l-0.1,0.1h-0.1
				c0,0.1,0,0.1,0,0.1s0,0,0.1,0c-0.1,0.1-0.1,0.1-0.1,0.1c0,0,0,0,0,0.1c-0.1,0-0.1,0.1-0.1,0.1c-0.1,0.1-0.2,0.2-0.3,0.3
				c0,0.1,0,0.1,0,0.1l-0.1,0.1L57,12.9H57c0,0.1,0.1,0.2,0.1,0.3c-0.1,0-0.1,0.1-0.1,0.1v-0.1c0,0.1,0,0.1-0.1,0.1v0.1h-0.1
				c0,0.1-0.1,0.1-0.1,0.1c0,0,0,0-0.1,0c0,0.1-0.1,0.1-0.1,0.1s0,0,0-0.1c-0.1,0.1-0.1,0.1-0.1,0.2c0,0,0,0-0.1,0v-0.1
				c0,0.1-0.3,0.3-0.3,0.4c-0.1,0-0.1,0.1-0.2,0.1c-0.1,0.1-0.1,0.1-0.2,0.2c0,0,0,0-0.1,0.1c-0.1,0-0.1,0-0.1,0c-0.1,0-0.1,0-0.1,0
				c0.1,0,0.1-0.1,0.1-0.1h-0.1l-0.1,0.1c-0.1,0-0.1-0.1-0.1-0.1c0,0,0,0-0.1,0c-0.1,0-0.3-0.1-0.3-0.1c-0.1-0.1-0.1-0.1-0.1-0.1
				c-0.2-0.1-0.5-0.1-0.8-0.2h-0.1c-0.1,0-0.2-0.1-0.3,0c0-0.1,0-0.1,0-0.1c0,0,0,0-0.1,0c0-0.1,0-0.1-0.1-0.1c0-0.1,0-0.1,0.1-0.1
				c-0.1,0-0.1,0-0.1,0c-0.1,0-0.1,0-0.1,0s0,0-0.1,0c0-0.1,0-0.1-0.1-0.1c0,0,0,0-0.1,0c0,0,0,0,0-0.1c0.1,0,0.1,0,0.1,0l0.1,0.1
				h0.1c-0.1,0-0.1-0.1-0.1-0.1h-0.1c0-0.1-0.1-0.1-0.1-0.1c-0.1,0.1-0.3,0-0.4-0.1c-0.1-0.1-0.2-0.2-0.2-0.2v-0.1
				c-0.1,0-0.1,0-0.1,0c-0.1-0.1-0.2-0.2-0.2-0.2c0-0.1-0.1-0.1-0.1-0.1l0.1,0.1c-0.1,0-0.1-0.1-0.1-0.1c-0.1-0.1-0.1-0.1-0.2-0.1
				c-0.1,0-0.1-0.2-0.2-0.2c0-0.1,0-0.1-0.1-0.1c0,0,0,0,0-0.1c-0.1,0-0.3-0.2-0.3-0.3c-0.1,0-0.2-0.2-0.2-0.2c-0.1,0-0.1-0.1,0-0.1
				c-0.1,0-0.1-0.1-0.1-0.1c0.1,0,0.1,0.1,0.2,0.2c0,0,0.1,0,0.1,0.1c0.1,0,0.1,0.1,0.2,0.1c-0.1-0.1-0.1-0.1-0.2-0.2l-0.1-0.1
				c0,0,0,0,0-0.1c-0.1,0-0.1,0-0.1,0c-0.1-0.1-0.2-0.2-0.1-0.2c0,0.1,0.1,0.1,0.2,0.1v0.1c0.1,0,0.1,0,0.1,0.1c0,0,0,0,0-0.1
				c-0.1-0.1-0.2-0.2-0.3-0.2c-0.1-0.1-0.1-0.2-0.2-0.2l-0.1-0.1c0,0,0,0,0.1,0c-0.1-0.1-0.2-0.2-0.2-0.2c0-0.1-0.1-0.2-0.1-0.2
				c0,0-0.1,0-0.1-0.1v-0.1l-0.1-0.1c0-0.1,0-0.1,0-0.1c-0.1,0-0.1,0-0.1,0c0-0.1-0.1-0.1-0.1-0.1c0,0,0,0-0.1-0.1
				c0.1,0,0.1,0,0.1,0c-0.1,0-0.1-0.1-0.1-0.2l-0.1-0.1c0,0,0-0.1-0.1-0.1c0,0,0,0,0,0.1c0,0,0,0,0,0.1c0-0.1-0.1-0.1-0.1-0.2
				c-0.1,0-0.1,0-0.1,0c0-0.1,0-0.1,0-0.1s0,0,0.1,0c0,0,0,0-0.1-0.1c-0.1,0-0.1,0-0.1-0.1c-0.1,0-0.1-0.1-0.1-0.1
				c-0.1,0-0.1-0.1-0.1-0.1c0,0-0.1-0.1-0.1-0.1c-0.1,0-0.1,0-0.2-0.1c0,0-0.2,0-0.2-0.1c0,0.1,0,0.1,0,0.1h-0.1c0,0,0,0,0-0.1
				c-0.1,0.1-0.2,0.1-0.3,0.1c0,0,0,0,0-0.1c0,0-0.2,0.1-0.2,0c0,0-0.3,0.1-0.3,0.1c-0.1,0-0.2,0-0.2,0.1c0,0,0,0,0-0.1h-0.1V10
				c0,0,0.3-0.1,0.4-0.1c0,0,0-0.1,0.1-0.1c0.1,0,0.2,0.1,0.3,0h0.1c0.1,0,0.1-0.1,0.1-0.1c0.1,0,0.1,0,0.1,0h0.1c0.1,0,0.1,0,0.1,0
				s0.1,0,0.2-0.1c0.1,0,0.2,0,0.2-0.1C50,9.8,50,9.8,50,9.8c0.1-0.1,0.1,0,0.2-0.1h0.2c0,0,0,0,0.1,0c0.1,0,0.1,0,0.1,0
				c0.1,0,0.3,0,0.4-0.1c0.1,0,0.4-0.1,0.4-0.1c-0.1,0-0.1,0-0.1-0.1c0.1,0,0.1-0.1,0.1-0.1c0,0,0,0,0.1,0c-0.1-0.1-0.1-0.1-0.1-0.1
				h-0.1c0,0,0,0,0-0.1c0,0-0.1,0-0.1,0c0,0,0,0,0-0.1h-0.1c0,0,0,0.1-0.1,0.1c0,0-0.1-0.1-0.1-0.1c-0.1,0-0.1,0-0.1,0
				c-0.1,0-0.1-0.1-0.1-0.1c0,0.1-0.1,0.1-0.1,0.1c-0.1,0-0.1,0-0.1,0s0,0-0.1,0V9.2c0,0,0,0,0.1,0c0,0-0.1,0-0.1-0.1c0,0,0,0,0-0.1
				c0.1,0,0.1,0,0.1,0c-0.1,0-0.1,0-0.1-0.1c0,0,0,0-0.1,0V8.9c0.1,0,0.1,0,0.2,0c0,0,0,0,0,0c-0.1,0-0.1,0-0.1,0s0,0,0-0.1
				c0,0-0.1,0.1-0.1,0c0,0-0.1,0-0.1,0c0,0,0,0-0.1,0c0,0,0,0,0-0.1c0.1,0,0.1,0,0.1,0l-0.1-0.1c-0.1,0-0.2,0-0.2,0.1h-0.1
				c-0.1,0-0.2,0-0.2,0c0,0,0,0,0-0.1c0,0,0,0-0.1,0V8.7c0,0,0,0-0.1,0c0.1,0,0.1-0.1,0.2,0c0-0.1,0-0.1,0-0.1
				c-0.1,0-0.3,0.1-0.4,0.1c0,0-0.2,0-0.2,0c0-0.1,0-0.1,0-0.1c0,0.1-0.1,0.1-0.1,0.1c0-0.1,0-0.1,0-0.1s0-0.1-0.1-0.1
				c0.1,0,0.1,0,0.1-0.1c0.1,0.1,0.1,0.1,0.1,0.1V8.5c0-0.1,0-0.1,0-0.1s0,0,0.1,0c0-0.1,0-0.1,0-0.1s0-0.1-0.1-0.1V8.3
				c0.1,0.1,0.1,0.1,0.2,0.1c-0.1-0.1-0.1,0-0.1-0.1c0,0-0.1-0.1-0.1-0.1c0.1,0,0.2,0.1,0.3,0.1c0,0-0.1-0.1-0.2-0.1
				c-0.1-0.1-0.1-0.2-0.2-0.3c-0.1-0.1-0.1-0.2-0.1-0.2c-0.1-0.1-0.1-0.1-0.1-0.1c0-0.1,0-0.1-0.1-0.2c0-0.1,0-0.1,0-0.1
				c0.1,0,0.1,0.2,0.1,0.2c0.1,0.1,0.1,0.3,0.1,0.3l0.1,0.1c0,0.1,0.1,0.1,0.1,0.1L49.6,8h0.1c0,0,0,0.1,0.1,0.1c0,0,0,0,0,0
				c0,0,0,0,0,0L49.7,8c0-0.1,0-0.1,0-0.1c-0.1-0.1-0.1-0.2-0.1-0.2c0,0-0.1-0.1-0.1-0.1c0,0.1,0,0.1,0,0.1c-0.1,0-0.1-0.1-0.1-0.1
				h0.1c-0.1-0.1-0.1-0.1-0.1-0.1c0.1,0,0.1,0,0.1,0c0-0.1-0.1-0.1-0.1-0.1c0-0.1-0.1-0.2-0.1-0.2c-0.1-0.1-0.1-0.2-0.1-0.2h0.1
				c0,0-0.1-0.1,0-0.2c0,0,0,0,0-0.1c-0.1,0.1-0.1-0.1-0.1-0.2v0.2c-0.1,0-0.1-0.1-0.1-0.1V6.7c0.1,0,0-0.1,0.1-0.1
				c-0.1,0-0.1,0-0.1-0.1V6.6c0-0.1,0-0.1,0-0.1s0,0-0.1,0c0.1-0.1,0.1-0.1,0.1-0.1c0-0.1,0-0.1,0-0.1c0-0.1,0-0.1,0-0.1
				c0.1-0.1,0-0.1,0-0.1c0.1,0,0.1,0,0.1-0.1c-0.1,0-0.1,0-0.1,0V6.1C49.3,6,49.4,6,49.4,6c0,0,0-0.1,0.1-0.1c0,0,0,0-0.1,0
				c0,0,0,0,0,0v0c0,0,0,0,0,0c0,0,0,0,0,0.1c-0.1,0-0.1,0-0.1-0.1c0,0,0,0,0.1,0c0,0,0,0,0,0c0-0.1,0.1-0.2,0-0.2
				c0,0-0.1-0.1-0.1-0.1c-0.1,0-0.1,0-0.1,0c0,0,0,0,0-0.1c0,0-0.1,0-0.1,0.1c0-0.1,0-0.1,0-0.1c-0.1,0-0.1,0.1-0.1,0.1H49
				c-0.1,0-0.1,0-0.1,0c-0.1,0-0.1,0.1-0.1,0.1l-0.1,0.1c0,0,0,0,0,0.1c-0.1,0-0.1,0.1-0.2,0.1c0,0.1-0.1,0.2-0.1,0.2c0,0,0,0-0.1,0
				c0,0.1,0,0,0,0.1c0,0,0,0,0,0.1c-0.1,0-0.1,0-0.1,0c0,0.1-0.1,0.1-0.1,0.1c0,0.1,0,0.1,0,0.1c0,0.1,0,0.1-0.1,0.2
				c0,0,0,0.1,0.1,0.1c0,0.1-0.1,0.1-0.1,0.1c0,0.1,0,0.1,0,0.2c0,0,0,0,0,0.1l0,0c0,0,0,0,0,0.1c0,0,0,0,0,0.1c0,0,0,0-0.1,0
				c-0.1,0,0,0-0.1,0c0,0.1,0.1,0.3,0.1,0.3c0.1,0.1,0.1,0.2,0.1,0.3c0,0.1,0,0.1,0,0.1c-0.1-0.1-0.1-0.1-0.1-0.2
				c-0.1,0-0.1,0-0.1,0c0,0.1,0.1,0.1,0,0.2c0.1,0,0.1-0.1,0.1-0.1c0,0.1,0,0.1,0.1,0.2c0,0,0,0,0.1,0c0.1,0.1,0.1,0.1,0.1,0.2
				c-0.1,0-0.1,0-0.1,0L48.5,8c0.1,0.1,0.1,0.3,0.2,0.4c0,0.1-0.2,0.1-0.2,0c-0.1,0-0.1,0-0.2,0c0.1-0.1,0.2-0.1,0.2-0.1
				c0,0-0.1,0-0.2,0s-0.2,0.1-0.3,0c-0.1,0-0.3,0.1-0.4,0.1c-0.1,0-0.4,0.1-0.4,0.1c-0.1,0.1-0.1,0.1-0.2,0.1s-0.1,0-0.2,0v0.1
				c-0.1,0-0.1-0.1-0.1,0c-0.1,0-0.1,0-0.2,0c0,0.1,0,0,0,0.1c-0.1,0-0.1,0-0.1,0c-0.1,0-0.1,0-0.2,0.1h-0.1c-0.1,0-0.1,0-0.2,0.1
				c-0.1-0.1-0.1,0-0.1,0c-0.1,0-0.1,0-0.1,0c0-0.1,0-0.1,0-0.1c0.1,0,0.2-0.1,0.3-0.1c0.1-0.1,0.1-0.1,0.1-0.1c0,0,0,0-0.1,0
				c-0.1,0-0.2,0-0.2,0.1V8.6c-0.1,0-0.1,0-0.2,0.1c-0.1,0-0.2,0.1-0.2,0c0,0,0,0,0.1,0c0-0.1,0-0.1-0.1-0.1c0,0-0.2,0.1-0.3,0.1
				c-0.3,0-0.5,0-0.8,0c-0.1,0.1-0.2,0.1-0.3,0.1c-0.1,0-0.2,0-0.3,0c-0.1,0.1-0.3,0.1-0.4,0.1c-0.2,0-0.4,0-0.6-0.1
				c-0.2,0.1-0.4,0.1-0.6,0.1c-0.1-0.1-0.3,0-0.5-0.1c-0.1,0-0.2-0.1-0.3-0.1C41.8,8.5,42,8.5,42,8.3c0.1,0,0.1,0,0.1,0
				s0.1-0.1,0.1-0.1c0,0.1,0,0.1,0,0.1c0.1-0.1,0.1-0.1,0.1-0.2c0.1-0.1,0.1-0.1,0.2-0.2l0.1-0.1h0.1l0.1-0.1c0,0.1,0,0.1,0,0.1
				c-0.1,0-0.1,0-0.1,0c0,0.1,0,0,0,0.1c0,0,0,0-0.1,0V8h0.1c0-0.1,0.1-0.1,0.1-0.2c0,0,0,0,0.1,0C42.6,8,42.5,8,42.5,8.1
				c0.1-0.1,0.2-0.1,0.2-0.2c0.1,0,0.2-0.1,0.2-0.1c0,0,0,0.1-0.1,0.1c0,0,0,0,0,0c0,0,0.1,0,0.1-0.1c0.1-0.1,0.2-0.1,0.2-0.2
				c0,0,0,0,0.1,0c0.1-0.1,0.2-0.2,0.3-0.2h0.1c0.1-0.1,0.1-0.1,0.1-0.1c0.1,0,0.1,0,0.2-0.1c0.1,0,0.1-0.1,0.2-0.1
				c0,0-0.1,0.1-0.1,0.1h0.1c-0.1,0.1-0.2,0.1-0.2,0.2h0.1c0.1,0,0.2-0.1,0.2-0.1c0,0,0,0,0.1,0s0.1,0,0.1,0
				c0.1-0.1,0.2-0.1,0.4-0.2c0,0,0,0,0-0.1c0.1,0,0.3-0.2,0.3-0.2c0.1-0.1,0.1-0.1,0.2-0.1c0.1,0,0.1-0.1,0.1-0.1
				c0.1-0.1,0.2-0.1,0.2-0.1c0.1-0.1,0.2-0.1,0.3-0.2c0,0,0.1-0.1,0.1-0.1c0,0,0,0,0.1,0l0.1-0.1h0.1c0.2-0.1,0.4-0.2,0.6-0.2
				c0,0,0,0,0-0.1c0,0,0.1,0,0.1,0c0,0,0.1,0,0.1-0.1V6C46.5,6,46.7,6,46.7,5.9c0,0,0,0,0,0.1c0-0.1,0.1-0.1,0.1-0.1c0,0,0,0,0,0h0
				c0-0.1,0.2-0.1,0.2-0.1c0.2-0.1,0.3-0.1,0.4-0.1c0.1,0,0.2-0.1,0.3-0.1c0,0,0,0,0,0.1c0.1-0.1,0.3-0.1,0.3-0.1
				c0.1,0.1,0.1,0.1,0.1,0.1s0,0,0.1-0.1h0.1c0,0,0.1-0.1,0.1-0.1c0,0,0.1,0,0.1,0c0.1-0.1,0.2,0,0.3,0c0.1,0,0.1,0,0.2,0
				c0,0,0,0,0-0.1c-0.1,0.1-0.1,0.1-0.1,0c0,0,0,0,0.1,0c0,0,0,0,0.1,0c0,0.1,0,0.1,0,0.1h0.1V5.5c0.1,0,0.1,0,0.1,0s0,0,0,0.1
				c0.1-0.1,0.1-0.1,0.1-0.1c0,0,0,0,0-0.1l0.1,0.1c0,0,0,0,0-0.1c0,0.1,0.1,0.1,0.1,0.1c0.1,0,0.1-0.1,0.1-0.1c0,0,0,0,0-0.1
				c0,0,0,0-0.1,0c0,0,0,0-0.1,0c0,0,0,0,0-0.1h0.1c0.1,0,0.1,0,0.1,0c0.1,0,0.1,0,0.1,0.1c0-0.1,0-0.1,0-0.1h0.1v0.1
				c0.1-0.1,0.1-0.1,0.1-0.1c0,0,0,0,0.1,0c0,0,0,0,0-0.1h-0.1c0,0,0,0,0.1-0.1c0,0,0,0,0.1,0c0,0,0.1,0,0.1,0c0.1,0,0.2,0,0.2-0.1
				H50c-0.1,0-0.1,0-0.1,0c0.1-0.1,0.2-0.1,0.3-0.1c0.1,0,0.1,0,0.2,0c0.1,0,0.2-0.1,0.2,0C50.7,5,50.6,5,50.6,5c0-0.1,0,0,0-0.1
				c-0.1,0-0.1,0-0.1,0c0-0.1,0.3-0.1,0.3-0.1c0.1,0,0.1-0.1,0.1-0.1c0.1,0,0.1,0,0.1,0l0.1-0.1c0.1,0,0.1-0.1,0.1-0.1s0,0,0.1,0.1
				c0-0.1,0,0,0-0.1V4.7c0.1,0,0.1-0.1,0.1-0.1h-0.1c0,0,0-0.1,0.1-0.1c0,0.1,0,0.1,0.1,0.1c0-0.1,0-0.1,0.1-0.1
				c0.1,0,0.1,0,0.1-0.1h0.1c0,0,0,0-0.1-0.1c0.1,0,0.1,0,0.1,0c0-0.1-0.1-0.3-0.1-0.3s0,0,0-0.1h0c-0.1,0-0.1-0.1-0.2-0.1l-0.1-0.1
				c0,0,0,0-0.1,0c0,0,0,0,0-0.1h0c0-0.1,0-0.1,0-0.1c0,0,0,0-0.1,0c0,0-0.1,0-0.1-0.1c0,0,0,0,0.1,0c-0.1-0.1-0.1-0.1-0.2-0.1
				c-0.1-0.1-0.4-0.2-0.6-0.2c-0.1,0-0.2,0-0.3,0.1c0,0-0.1-0.1-0.1-0.1c0,0.1-0.1,0.1-0.1,0.1c-0.1,0-0.1,0-0.1,0
				c-0.1,0.1-0.2,0.1-0.2,0.1h-0.1c0,0,0,0,0,0c0.2,0,0.4,0,0.5-0.1c-0.2,0.1-0.4,0.1-0.5,0.2c-0.1,0-0.2,0.1-0.2,0.1h-0.1
				c0,0,0,0.1-0.1,0.1c0-0.1-0.1,0.1-0.1,0l-0.1,0.1h-0.1c0,0-0.1,0-0.1,0.1c0,0-0.1,0-0.1,0.1c-0.1,0-0.2,0.1-0.3,0.1
				c0,0-0.1,0.1-0.1,0c0,0.1,0,0.1,0,0.1c0.1,0,0.1,0.1,0.1,0.1c-0.1,0-0.2,0.1-0.2,0.1c-0.1,0-0.1,0-0.2,0c0,0,0,0,0,0
				c0,0.1-0.1,0.1-0.1,0.1c-0.1-0.1-0.1-0.1-0.1-0.1c0,0,0,0,0,0c0,0,0,0,0,0c-0.1,0-0.1,0-0.1,0c0,0,0,0-0.1,0c-0.1,0-0.1,0-0.1,0
				c0,0.1-0.2,0.1-0.2,0.1c-0.1,0-0.3,0.1-0.4,0.1c0.1,0,0.1,0,0.1,0c-0.1,0-0.2,0-0.3,0.1c0.1,0,0.1,0,0.1,0s-0.2,0.1-0.2,0.1
				c0,0,0,0,0.1,0c0.1,0,0.2,0,0.2-0.1c0,0.1-0.1,0-0.1,0.1c0,0-0.1,0-0.1,0c0,0.1-0.1,0.1-0.1,0.1c-0.1,0-0.1,0.1-0.2,0.1h-0.1
				C46.1,4.8,46,4.9,46,4.9c0,0,0,0-0.1,0c0,0.1-0.2,0.1-0.2,0.1c-0.1,0-0.2,0.1-0.2,0.1V5C45.6,5,45.7,5,45.7,5c0,0,0,0.1,0.1,0.1
				c-0.1,0-0.3,0.1-0.4,0.2c0-0.1,0-0.1,0-0.1c-0.1,0-0.3,0.2-0.3,0.2c-0.1,0.1-0.2,0-0.2,0.1c-0.1,0-0.1,0-0.1,0h-0.1
				c0,0.1,0,0.1,0,0.1c-0.1,0-0.2,0.1-0.2,0.1c0,0,0,0-0.1,0c0,0,0,0,0,0.1c0,0-0.1,0.1-0.1,0c0,0.1-0.1,0.1,0,0.1
				c-0.1,0-0.1,0-0.1,0.1h-0.1h-0.1c-0.1,0-0.1,0-0.1,0c-0.1,0.1-0.2,0.1-0.2,0.1c0,0,0,0,0,0c0,0,0,0,0.1,0c0,0,0,0,0-0.1
				c0,0,0,0,0.1,0c0,0-0.1,0-0.1,0.1c0,0-0.1,0-0.1,0s0,0,0,0c-0.1,0-0.2,0.1-0.2,0.1c-0.1,0.1-0.1,0.1-0.2,0.2h-0.1
				c-0.1,0.1-0.1,0.1-0.1,0.1c-0.1,0-0.1,0.1-0.1,0.1s0,0,0,0.1c-0.1,0-0.2,0.1-0.2,0.1c-0.1,0.1-0.2,0.2-0.3,0.2c0-0.1,0,0,0-0.1
				c-0.1,0.1-0.1,0.1-0.2,0.1c-0.1,0-0.1,0.1-0.1,0.1s-0.1,0.1-0.1,0.1c-0.1,0.1-0.1,0.1-0.2,0.2c0-0.1,0-0.1,0-0.1
				c0-0.1,0.1-0.1,0.1-0.2c-0.1,0.1-0.1,0.1-0.2,0.1c0,0,0,0-0.1,0.1C42.2,7,42.1,7,42.1,7.1c-0.1,0-0.1,0-0.1,0.1
				C42,7.2,42,7.2,42,7.2c-0.1,0.1-0.2,0.2-0.3,0.2c0,0,0,0.1-0.1,0.1c0,0.1-0.1,0.1-0.1,0.1c-0.1,0.1-0.1,0.1-0.2,0.2
				c-0.1,0.1-0.1,0.1-0.2,0.2C41.2,8,41.1,8,41.1,8c-0.1,0-0.1,0.1-0.1,0.1c-0.1,0.1-0.1,0.1-0.2,0.2c0,0.1-0.1,0.1-0.1,0.1
				c-0.1,0.1-0.1,0.1-0.1,0.2c0,0,0,0,0.1,0c-0.1,0-0.1,0-0.1,0.1V8.5c0,0,0,0-0.1,0c0,0,0,0,0,0.1s-0.1,0.1-0.1,0.1
				c0,0,0,0.1,0,0.1c0,0,0,0.1-0.1,0.1c-0.1,0.2,0,0.3,0.1,0.4c0,0-0.1-0.1-0.1-0.1c0,0.1,0.1,0.1,0.1,0.1c0.1,0,0.1,0.1,0.1,0.1
				s0,0-0.1,0c0.1,0,0.1,0,0.1,0.1s0,0.1,0.1,0.1c-0.1,0-0.1,0-0.1,0c0.1,0,0.1,0.1,0.2,0.1l0,0c0,0,0,0,0,0c0,0.1,0.1,0.1,0.1,0.1
				s0,0,0,0c0.1,0.1,0.2,0.1,0.2,0.2c0.1,0,0.1,0,0.2,0c0.1,0.1,0.1,0,0.1,0c0.1,0.1,0.2,0.1,0.2,0.1c0,0,0.1,0.1,0.1,0.1
				c0.1,0,0.1,0,0.1,0c0.1,0,0.1,0.1,0.1,0.1c0.1,0,0.1,0,0.2,0.1c0,0-0.1,0-0.1,0c0.1,0.1,0.2,0.1,0.3,0.1h0.1
				c0.2,0.1,0.5,0.1,0.8,0.1c-0.1,0.1-0.1,0.1-0.1,0.1c-0.1,0-0.1,0-0.1,0.1c-0.1,0-0.1,0.1-0.2,0.1c0,0,0,0,0.1,0v0.1
				c-0.1,0-0.1,0-0.1,0c-0.1,0-0.1,0-0.1,0c0,0-0.1,0-0.1,0s0,0,0,0.1c0,0-0.1,0-0.1,0.1c0,0-0.1,0-0.1,0.1l-0.1,0.1
				c-0.1,0,0,0-0.1,0c0,0,0,0,0,0.1c-0.1,0-0.1,0-0.1,0c-0.1,0,0,0-0.1,0c0,0,0,0-0.1,0c0,0.1,0,0.1,0,0.1s0,0,0,0.1
				c0,0,0.1,0,0.1-0.1v0.1c0,0.1-0.2,0.1-0.2,0.2c-0.1,0-0.1,0.1-0.1,0.1c-0.1,0-0.1,0-0.1-0.1l-0.1,0.1c-0.1,0-0.1,0-0.1,0
				s0,0,0,0.1c-0.1-0.1-0.3,0.2-0.4,0.2H41c-0.1,0.1-0.1,0.1-0.1,0.1c0,0.1-0.1,0.2-0.2,0.2c-0.2,0.1-0.3,0.2-0.4,0.3c0,0,0,0,0.1,0
				c0.1-0.1,0.1-0.1,0.1-0.1c0.1-0.1,0.2-0.1,0.3-0.2c0,0,0,0,0.1,0c0.1-0.1,0.1-0.1,0.2-0.1v-0.1c0.1,0,0.2-0.1,0.2-0.1h0.1
				c0.1-0.1,0.2-0.1,0.3-0.2c0,0.1,0,0.1,0,0.1c0.1,0,0.1,0,0.1,0v-0.1c0.1,0,0.1,0,0.1,0c0.1-0.1,0.1-0.1,0.1-0.1
				c0,0.1-0.1,0.1-0.1,0.1s0,0,0,0.1c-0.1-0.1,0,0-0.1-0.1c0,0.1,0,0.1,0,0.1c-0.1,0-0.1,0.1-0.2,0.1c-0.1,0.1-0.1,0.1-0.1,0.1h-0.1
				v0.1c0,0,0,0-0.1,0c0,0-0.2,0.1-0.2,0.2c-0.1,0.1-0.2,0.1-0.2,0.1c-0.1,0,0,0-0.1,0c-0.1,0.1-0.1,0.1-0.1,0.1
				c-0.1,0.1-0.2,0.1-0.3,0.2c-0.1,0-0.1,0.1-0.1,0.1l-0.1,0.1c-0.1,0.1-0.1,0.1-0.1,0.1c0,0.1-0.1,0.1-0.1,0.1c0,0,0,0-0.1,0
				c-0.1,0.1-0.1,0.1-0.2,0.2c-0.1,0-0.1,0-0.1,0.1c-0.1,0-0.1,0-0.1,0c-0.1,0.1-0.2,0.1-0.2,0.2c-0.1,0.1-0.2,0.2-0.2,0.3
				c-0.1,0-0.1,0.1-0.1,0.1C39,13.3,39,13.3,39,13.3c0,0.1-0.1,0.1-0.1,0.1c-0.1,0.1-0.2,0.1-0.2,0.2c-0.1,0.1-0.2,0.2-0.2,0.3
				c-0.1,0-0.1,0.1-0.1,0.1c0-0.1,0,0,0-0.1C38.5,14,38.5,14,38.5,14c0-0.1,0.1-0.1,0.1-0.2c0,0,0,0,0.1,0c0-0.1,0.1-0.2,0.2-0.3
				c-0.1,0.1-0.1,0.2-0.2,0.3c-0.1,0.1-0.1,0.1-0.1,0.2c-0.1,0.1-0.1,0.2-0.1,0.2c-0.1,0.1-0.1,0.1-0.1,0.2c0,0.1-0.1,0.1-0.1,0.1
				c-0.1,0.1-0.1,0.2-0.1,0.3c0,0.1-0.1,0.1-0.1,0.2c-0.1,0,0,0,0-0.1c-0.1,0-0.1,0-0.1,0c0,0,0,0,0,0.1c0,0.1,0,0.2-0.1,0.3
				c0-0.1,0-0.1,0-0.1c0,0-0.1-0.1,0-0.1c0,0,0-0.1-0.1-0.1V15c0,0.1,0.1,0.2,0,0.3c0,0.1,0,0.2,0,0.2c0,0.1,0,0.2,0,0.2
				c0-0.1,0.1,0.1,0.1,0.1c0-0.1-0.1-0.1-0.1-0.1c0,0.1,0.1,0.1,0.1,0.2c0,0.1,0.1,0.2,0.1,0.3c0,0.1,0.1,0.1,0.1,0.1
				c0,0.1,0,0.1,0.1,0.1c0,0.1,0,0.1,0,0.1c0.1,0,0.1,0.1,0.1,0.1c0.1,0,0.1,0,0.1,0c0.2,0.1,0.3,0.2,0.5,0.3c0.1,0,0.1-0.1,0.2,0
				c0.1,0,0.1,0,0.2,0.1c0.1,0,0.1,0,0.2,0.1c0.1,0,0.1,0,0.2,0c0.1,0.1,0.2,0.1,0.3,0.1c0,0,0.1-0.1,0.1,0c0.1,0,0.2,0.1,0.3,0.1
				s0.2,0,0.2,0c0,0,0,0,0.1,0c0,0,0,0,0-0.1c-0.1,0.1-0.2,0-0.2,0c0,0,0,0,0-0.1c0.1,0,0.2,0.1,0.2,0h0.1c0,0.1,0.2,0.1,0.2,0.1
				h0.1c0.1,0,0.4,0.1,0.4,0.1c0,0,0.1,0,0.1,0.1c0,0,0,0,0.1,0s0.1,0,0.2,0c0,0,0,0,0.1,0c0,0,0,0,0,0s0.1,0,0.2,0
				c0.1,0,0.1,0.1,0.2,0.1c0.1,0.1,0.1,0,0.1,0.1c0,0,0,0,0-0.1c0.1,0,0.1,0,0.1,0.1c0.1-0.1,0.1,0,0.2,0c0,0,0,0,0,0.1
				c-0.1,0-0.1,0-0.1,0c0,0,0,0-0.1,0c0,0.1,0,0.1,0.1,0.1c0,0,0,0,0.1,0c0.1,0,0.1,0,0.1,0.1c0-0.1,0-0.1,0-0.1s0,0,0.1,0v0.1
				c0.1-0.1,0.2,0.1,0.3,0.1c0.1,0,0.1,0,0.1,0c0.1,0,0.1,0.1,0.2,0c0,0.1,0,0.1,0,0.1c0.1,0,0.1,0.1,0.2,0.1c0,0,0,0,0.1,0
				c0.1,0.1,0.1,0.1,0.2,0.1c0,0,0,0,0,0.1c0-0.1,0.1-0.1,0.1-0.1c0.1,0,0.1,0,0.1,0c0.1,0,0.1,0.1,0.2,0.1c0,0.1,0.1,0,0.1,0.1
				c0.1,0,0.2,0.1,0.2,0.1s0.1,0,0.1,0c0.1,0,0.1,0.1,0.2,0.1c0,0.1,0.1,0.1,0.1,0.1c0,0.1,0.2,0.1,0.2,0.1c0.1,0,0.1-0.1,0-0.1
				c0.1,0,0.1,0,0.1,0c0.1,0,0.2,0.1,0.2,0.1c0,0,0,0-0.1,0c0,0,0.1,0,0.1,0c0,0,0,0,0,0c0.1,0,0.1,0.1,0.2,0.1c0,0.1,0,0.1,0,0.1
				c0.1,0,0.1,0,0.1,0s0,0,0.1,0c0,0,0,0,0.1,0c0,0,0,0,0,0.1c0.1,0,0.1,0,0.1,0c0.1,0,0.2,0,0.2,0.1c0.1,0,0.1,0,0.1,0
				c0.1,0,0.1,0,0.1,0c0,0.1,0,0.1,0,0.1c0.1,0,0,0.1,0,0.1c0,0,0,0-0.1,0c0.1,0.1,0.2-0.1,0.2,0h0.1c0,0,0.1,0,0.1,0
				c0.1,0,0.2,0.1,0.3,0.1c0,0.1,0,0.1,0,0.1s0,0,0.1,0c0,0,0,0,0.1,0h0.1l0.3,0.1c0,0,0,0,0,0.1c0.1,0,0.1,0,0.2,0c0,0,0,0,0.1,0
				l0.3,0.1c0,0,0.1,0.1,0,0.1h0.1c0,0.1,0,0.1-0.1,0.1c0.1,0,0.1,0,0.1-0.1c0,0,0,0,0.1,0c0,0.1,0,0.1-0.1,0.1c0.1,0,0.1,0,0.1,0
				s0,0,0,0.1c0.1,0,0.1,0,0.2,0c0,0.1,0.1,0.1,0.1,0.1c0.1,0,0.1,0,0.1,0c0.1,0.1,0.2,0.1,0.3,0.1c-0.1,0.1,0,0.1-0.1,0.1
				c0.1,0.1,0.2,0,0.2,0c0-0.1,0.2,0,0.2,0s0,0,0-0.1c-0.1,0-0.1,0-0.1,0c0.1-0.1,0.2,0,0.2,0c0-0.1,0-0.1,0-0.1c0.1,0,0.1,0,0.2,0
				h0.1c0.1,0.1,0.2,0.1,0.2,0.1c0-0.1,0.1,0,0.1,0s0.2,0,0.3,0c0.1,0,0.1,0.1,0.2,0c0.1,0.1,0.3,0,0.4,0c-0.1,0.1-0.3,0-0.4-0.1
				c0,0,0.1,0,0.1-0.1c0,0,0.1,0,0.1,0.1c0,0,0,0,0-0.1c0.1,0,0.1,0,0.1,0.1c0-0.1,0,0,0-0.1c0,0,0,0,0.1,0c0,0.1,0.1,0,0.1,0
				c0.1,0.1,0.2,0,0.3,0c0,0.1,0,0.1,0,0.1s0,0,0.1-0.1c0,0.1,0,0.1,0,0.1c0.1,0,0.1,0,0.1,0h0.1c0,0.1,0.2,0,0.2,0
				c0,0,0.2,0.1,0.3,0c0,0,0.1,0,0.1,0.1c0.1,0,0.2-0.1,0.3-0.1c0,0.1,0,0.1,0,0.1s0,0,0.1,0h0.1c0-0.1,0-0.1,0-0.1
				c0.1,0,0.1,0,0.1,0s0,0,0,0.1c0.1-0.1,0.2-0.1,0.2-0.1c0,0.1,0,0,0,0.1c-0.2,0-0.3,0.1-0.5,0.1c-0.1,0-0.2,0-0.2,0h-0.1
				c-0.1,0-0.2,0-0.3,0c-0.1,0.1-0.1,0.1-0.1,0.1s0,0-0.1-0.1c0,0,0,0,0,0c0,0,0,0,0,0c-0.1,0-0.1,0-0.1,0c0.1,0,0.1,0.1,0.1,0.1
				c0,0,0.1,0,0.1,0.1c0.1,0,0,0,0.1,0h0.1c0.1,0,0.1,0,0.1,0.1c0,0,0,0,0-0.1h0.1c0,0,0.1,0,0.1,0c0,0,0,0,0.1,0
				c0,0.1-0.1,0.1-0.1,0.1c0,0,0.1,0,0.2,0c0-0.1,0-0.1,0-0.1c0.1,0,0.1,0,0.1,0v0.1c0.1,0,0.1,0,0.1-0.1c0.1,0,0.1,0,0.1,0
				c0,0,0,0,0,0c0,0,0.1,0,0.1,0s0,0,0,0.1c0.1,0,0.1,0,0.1,0c0-0.1,0-0.1,0-0.1c0.1,0,0.1,0,0.1,0s0,0,0-0.1
				c0.1,0.1,0.1,0.1,0.1,0.1v-0.1c0.1,0,0.1,0.1,0.2,0.1c0,0,0,0,0.1-0.1c0.1,0,0.1,0,0.1,0s0.1-0.1,0.1-0.1v0.1c0.1,0,0,0,0.1,0
				c0.1,0,0.1,0,0.1,0c-0.1,0-0.1,0-0.1,0.1c0,0,0,0,0.1,0H52c0,0,0.1,0,0.1,0c0,0,0.1,0,0.1,0h0.1c0.1,0,0.1,0,0.2-0.1
				c0,0,0.1-0.1,0.2-0.1c0,0,0,0-0.1,0c0,0,0,0-0.1,0c0,0-0.1,0-0.1,0c-0.1,0-0.1,0.1-0.2,0.1c0-0.1,0-0.1,0-0.1c0.1,0,0.1,0,0.2,0
				c0,0,0.1,0,0.1,0c0.1,0,0.1,0,0.1,0s0.1,0,0.1,0c0,0,0,0,0-0.1c0.1,0,0.2,0,0.3-0.1c0.1,0,0.1,0,0.2,0h0.1
				c0.1-0.1,0.1-0.1,0.1-0.1h0.1c0,0,0.1-0.1,0.1-0.1c0.1,0,0.2-0.1,0.2,0c0.1,0,0.4-0.1,0.5-0.1c0,0.1-0.1,0.1-0.1,0.1
				c-0.1,0-0.2,0.1-0.3,0.1c0.1,0,0.1,0,0.2,0c0.1-0.1,0.2,0,0.3-0.1c0,0,0,0,0,0c0.2,0,0.3-0.1,0.4-0.1c0.1-0.1,0.1-0.1,0.2-0.1
				c0.1-0.1,0.2,0,0.2-0.1c0.1-0.1,0.4-0.2,0.4-0.2c0.1-0.1,0.1-0.1,0.1-0.1c0,0-0.1,0.1-0.1,0.1h-0.1c-0.1,0.1-0.2,0.1-0.2,0.1
				c0,0,0,0,0-0.1c0,0,0,0-0.1,0c0,0-0.1,0.1-0.2,0l-0.1,0.1c-0.1,0-0.1,0-0.1,0c-0.1,0.1-0.2,0.1-0.2,0.1c-0.1,0-0.1,0-0.1,0
				c0.1-0.1,0.1-0.1,0.1-0.1c0,0,0,0,0-0.1h0.1c0.1,0,0.2-0.1,0.3-0.1c0-0.1,0-0.1,0-0.1c0-0.1,0-0.1,0-0.1c0.1,0,0.2,0,0.3-0.1v0
				l0.1,0c0.1,0,0.1,0,0.1,0c0.1-0.1,0.2-0.1,0.2-0.1l0.1-0.1c0,0,0,0,0.1,0c0-0.1,0.1-0.1,0.1-0.1c0.1,0,0.1,0,0.1,0
				c0.1,0,0,0,0.1,0v-0.1c0-0.1,0.1-0.1,0.1-0.1c0,0,0-0.1,0.1-0.1c0,0,0.1-0.1,0.1-0.1c0.1-0.1,0.2-0.1,0.2-0.1
				c0.1-0.1,0.1-0.1,0.2-0.1h-0.1c0,0,0,0,0.1,0c0,0,0,0,0,0c0.1,0,0.2-0.1,0.2-0.1c0.1-0.1,0.2-0.1,0.3-0.2c0.1,0,0.2-0.1,0.2-0.1
				c0-0.1,0.2-0.2,0.2-0.2c-0.1,0-0.1,0.1-0.1,0.1c0,0,0,0,0,0c-0.1,0-0.1,0.1-0.2,0.1c0-0.1,0.1-0.1,0.1-0.1c-0.1,0-0.1,0-0.1-0.1
				c0.1-0.1,0.5-0.2,0.5-0.3c-0.1,0-0.1,0.1-0.2,0.1c0.1-0.1,0.4-0.3,0.5-0.4c0-0.1,0.1-0.1,0.1-0.1v-0.1c0,0,0,0,0-0.1
				c0,0,0,0-0.1,0l0.1-0.1h0.1c0-0.1,0-0.1,0-0.1c0-0.1,0.1-0.1,0.1-0.1c0.1,0,0.1,0,0.1,0c0-0.1,0-0.1,0.1-0.1c0-0.1,0-0.1,0-0.1
				c-0.1,0.1-0.1,0.1-0.1,0.1c-0.1,0-0.1-0.1-0.1-0.1c0-0.1,0.1-0.1,0.1-0.2c0,0,0,0,0,0c0-0.1,0.1-0.1,0.1-0.2c0,0,0,0,0,0
				c0,0,0,0,0,0.1c0,0,0,0,0,0c-0.1,0-0.1,0.1-0.2,0.1l0.1-0.1c0-0.1,0-0.1,0.1-0.1c0,0-0.1,0.1-0.1,0.1h0.1
				c-0.1,0.1-0.1,0.1-0.1,0.1v-0.1c0,0,0,0,0-0.1c0,0.1,0,0.1-0.1,0.1c0,0,0,0-0.1,0l0.1-0.1c-0.1,0-0.1,0.1-0.2,0.1c0,0,0,0-0.1,0
				c0.1-0.1,0.1-0.2,0.2-0.2c0,0,0,0,0-0.1c0.1-0.1,0.1-0.1,0.2-0.2c-0.1,0-0.1,0-0.1,0c0,0.1,0,0.1-0.1,0.1v0.1c-0.1,0-0.1,0-0.1,0
				c-0.1,0.1-0.1,0.1-0.1,0.1c0,0.1-0.1,0.1-0.1,0.1c0-0.1,0.1-0.1,0.1-0.2h0.1c0-0.1,0.2-0.2,0.3-0.2c-0.1,0-0.1,0-0.1,0
				c0.1,0,0.1-0.1,0.1-0.1c0.1-0.1,0.1-0.1,0.1-0.2c0,0,0-0.1,0-0.1c-0.1,0.1-0.2,0.3-0.3,0.3c-0.1,0-0.1,0-0.1,0
				c0.1-0.1,0.1-0.1,0.2-0.1c0,0-0.1,0-0.1,0c0,0,0,0,0,0c0,0,0,0,0,0v0c-0.1,0,0,0-0.1,0c0,0.1,0,0.1,0,0.1h-0.1
				c0.1-0.1,0.1-0.1,0.1-0.1c0,0,0,0,0.1,0c0-0.1,0.1-0.2,0.1-0.2c0-0.1-0.1,0.1-0.1,0.1l0.2-0.2v-0.1c0-0.1-0.1-0.1-0.1-0.1v-0.1
				c0,0.1-0.2,0.2-0.2,0.3c0-0.1,0-0.1,0-0.1c0.1-0.1,0.1-0.1,0.1-0.1c0-0.1,0.1-0.1,0.1-0.1h-0.1c0.1,0,0.1-0.1,0.1-0.2
				c-0.1,0-0.1-0.1,0-0.1c0-0.1,0.1-0.1,0.1-0.2l0.1-0.1c0-0.1,0.2-0.2,0.2-0.3h-0.1c0-0.1,0.1-0.2,0.1-0.3c-0.1,0,0-0.1-0.1-0.1
				c0-0.1,0.1-0.1,0.1-0.1C58.6,13.2,58.6,13.2,58.6,13.2z M53.5,15.7C53.5,15.8,53.5,15.8,53.5,15.7l-0.1,0.1c-0.1,0-0.1,0-0.1,0
				c0,0.1,0,0.1,0,0.1s0,0-0.1,0C53.3,16,52.9,16,52.8,16c-0.1,0.1-0.1,0.1-0.1,0.1c0,0,0,0.1,0.1,0.1c0,0,0,0-0.1,0
				c0,0.1-0.1,0.1-0.2,0.1c0,0-0.1,0.1-0.1,0.1c-0.1,0.1-0.3,0.1-0.4,0.1c0,0,0,0,0,0.1c0,0,0,0-0.1,0s-0.1,0-0.1,0
				c-0.1,0-0.1,0-0.1,0c-0.1,0-0.1,0.1-0.1,0.1c0,0.1-0.2,0.1-0.3,0.1c-0.1,0-0.1,0-0.1,0c-0.1,0,0,0-0.1,0c-0.1,0.1-0.2,0-0.3,0.1
				c-0.1,0-0.1,0-0.1,0c0-0.1,0-0.1,0-0.1c-0.1,0.1-0.2,0.1-0.3,0.1h-0.1c0,0,0,0,0,0h0c0,0,0,0,0,0.1c-0.1,0-0.1,0-0.1,0s0,0,0,0.1
				c-0.1,0.1-0.1,0.1-0.1,0.1c0,0-0.1,0-0.1,0c0,0,0,0-0.1,0c-0.1,0-0.1,0-0.1,0c0,0-0.1,0.1-0.1,0.1c-0.1,0-0.1,0-0.2,0
				c-0.1,0-0.1,0-0.1,0.1c0-0.1,0-0.1,0-0.1h-0.1c0,0.1,0,0.1,0,0.1c0-0.1-0.1-0.1-0.1,0c0,0,0,0-0.1-0.1c0.1,0,0.1,0,0.1,0
				c0-0.1,0.2-0.1,0.2-0.1c-0.1,0.1-0.2,0.1-0.3,0.1c0,0,0,0-0.1,0c0,0,0,0-0.1,0v-0.1c-0.1,0-0.2,0.1-0.3,0.1c0,0,0,0-0.1,0
				s-0.1,0-0.1,0c0.1,0,0.1-0.1,0.1,0c0-0.1,0.1-0.1,0.1-0.1c0-0.1-0.1,0-0.1,0c-0.1,0-0.1,0-0.1-0.1c-0.1,0.1-0.2,0.1-0.3,0.1
				c-0.1,0-0.3,0-0.3,0c-0.1,0-0.1,0-0.1,0s-0.1,0-0.1-0.1c0,0.1-0.1,0-0.1,0c0,0.1-0.1,0-0.2,0c-0.1,0-0.2,0-0.3-0.1
				c0,0-0.1,0-0.1,0c0,0-0.2-0.1-0.2,0c0-0.1,0-0.1-0.1,0c0-0.1,0-0.1,0-0.1c-0.1,0.1-0.1,0-0.1,0.1c-0.1-0.1-0.1-0.1-0.1-0.1
				c-0.1-0.1-0.2-0.1-0.3-0.1v-0.1c0,0.1-0.1,0-0.1,0.1c-0.1,0-0.2,0-0.2-0.1h-0.1c0,0,0,0-0.1,0c-0.1,0-0.1,0-0.2,0
				c-0.1,0-0.2-0.1-0.2-0.1c-0.1,0-0.1,0-0.1,0c-0.1-0.1-0.3-0.1-0.4-0.1c0,0,0,0,0,0.1h-0.1c-0.1-0.1-0.3-0.1-0.3-0.1
				c-0.1,0-0.1,0-0.2,0c-0.1,0-0.1,0-0.1,0c-0.1-0.1-0.2-0.1-0.3-0.1c-0.1,0-0.1,0-0.1,0c-0.1,0-0.1,0-0.1-0.1c0,0,0,0,0,0
				c0,0,0,0,0,0c-0.1,0-0.1,0-0.1,0l-0.1-0.1c0,0.1,0,0.1,0,0.1c0,0.1,0,0.1,0,0.1c-0.1,0-0.2,0-0.3-0.1c0,0.1,0,0.1,0,0.1l-0.2-0.1
				c-0.1,0-0.1,0-0.1,0c0-0.1,0-0.1,0-0.1c-0.1,0-0.3-0.1-0.4-0.1c-0.1,0-0.2-0.1-0.2-0.1c0,0-0.1,0-0.1-0.1c-0.1,0-0.1,0-0.2,0
				c-0.2-0.1-0.4-0.1-0.5-0.2c-0.1-0.1-0.4-0.1-0.4-0.1v-0.1c-0.1,0.1-0.1,0-0.1,0.1c0,0-0.1-0.1-0.1-0.1h-0.1c-0.1,0-0.1,0-0.1-0.1
				c-0.1,0-0.1,0.1-0.1,0.1c-0.1-0.1-0.2-0.1-0.3-0.1h-0.1c-0.1-0.1-0.2,0-0.3-0.1h-0.1c0.1-0.1,0.1-0.1,0.1-0.1c0.1,0,0.1,0,0.2,0
				c-0.1,0-0.2-0.1-0.2-0.1s-0.1,0-0.1-0.1c-0.1,0-0.2,0-0.3,0c-0.2,0-0.4,0-0.7,0c-0.1-0.1-0.3,0-0.4-0.1c-0.1,0-0.2,0-0.1-0.1
				c0,0,0,0-0.1,0c0-0.1,0.1-0.1,0.1-0.1c0,0,0.1,0,0.2,0c-0.1,0-0.2-0.1-0.2-0.1c0-0.1,0-0.1,0-0.1c0,0,0,0,0,0c0,0,0,0,0,0
				c0-0.1,0-0.1,0.1-0.2c0.1-0.1,0.1,0,0.1,0c0-0.1,0.1-0.1,0.1-0.1c0.1-0.1,0.1-0.1,0.2-0.1c0.1-0.1,0.1-0.2,0.2-0.2
				c0,0.1,0,0.1,0,0.1c0-0.1,0.2-0.2,0.3-0.2L40,14.3c0.1,0,0.1,0,0.1,0.1c0,0,0,0,0.1,0c0-0.1,0.1-0.1,0.1-0.1v-0.1
				c0.1,0,0.1,0,0.1,0c0.1,0,0.1-0.1,0.2-0.1c0.1-0.1,0.2-0.2,0.3-0.3c0.1-0.1,0.2-0.1,0.2-0.2c0-0.1,0.1-0.1,0.2-0.1
				c0.1-0.1,0.2-0.2,0.3-0.2c0.1-0.1,0.2-0.1,0.2-0.1c0.1-0.1,0.1-0.1,0.1-0.1c0-0.1,0.1-0.1,0.1-0.1c0,0,0-0.1,0.1-0.1
				c-0.1,0.1-0.2,0.2-0.3,0.3c0-0.1,0-0.1,0-0.1c-0.1,0.1-0.3,0.2-0.4,0.2c-0.1,0.1-0.1,0.1-0.2,0.1c-0.1,0-0.1,0-0.1,0
				c0-0.1,0.2-0.1,0.2-0.2c0.1,0,0.1-0.1,0.2-0.1c0,0,0,0,0.1,0c0,0,0.1,0,0.1-0.1c0.1-0.1,0.1-0.1,0.1-0.1c0-0.1,0-0.1,0-0.1
				s0,0,0.1,0c0-0.1,0-0.1,0-0.1c0.1,0,0.1,0,0.1,0s0,0,0.1,0c0-0.1,0-0.1,0-0.1c0.1,0,0.1,0,0.1,0c0.1,0,0.1-0.1,0.1-0.1s0,0,0-0.1
				l0.1,0.1c0-0.1,0-0.1,0-0.1c0.1-0.1,0.1-0.1,0.1-0.1l0.1-0.1c0.1-0.1,0.1-0.1,0.2-0.1c0.1-0.1,0.2-0.2,0.2-0.2c0,0,0.1,0,0.1,0
				l0,0c0,0,0,0,0.1,0v-0.1h0.1c0,0,0,0,0,0.1c0,0,0,0-0.1,0c0,0,0,0.1,0.1,0.1c0-0.1,0.2-0.1,0.2-0.1c0,0,0.1,0,0.1,0.1
				c0.1-0.1,0.1-0.1,0.1-0.1c0.1,0,0.1,0,0.1-0.1c0.2-0.1,0.4-0.2,0.5-0.2c0,0,0.2-0.1,0.2-0.1c0.1-0.1,0.2-0.1,0.2-0.1
				c0.1-0.1,0.2-0.1,0.3-0.1c0-0.1,0-0.1,0-0.1s0.1-0.1,0.2-0.1c0-0.1,0-0.1,0-0.1l0.2-0.1c0.1,0,0.1-0.1,0.1-0.1s0,0,0.1,0.1
				c0-0.1,0-0.1,0.1-0.1c0,0,0-0.1,0.1-0.1h0.1c0.1-0.1,0.2-0.1,0.2-0.1c0.1-0.1,0.1-0.1,0.1-0.1c0.1,0,0.1-0.1,0.1-0.1
				c0,0,0,0-0.1,0c-0.1,0-0.2,0.1-0.3,0.1c-0.1,0.1-0.1,0.1-0.2,0.1c-0.1,0-0.1-0.1-0.1-0.1c0.1-0.1,0.2-0.1,0.2-0.1
				c0.1-0.1,0.2-0.1,0.2-0.1c0.1-0.1,0.1-0.1,0.2-0.1c0.2-0.1,0.4-0.2,0.6-0.3c0.2-0.1,0.3-0.1,0.4-0.2h0.1c0.1,0,0.1-0.1,0.2-0.1
				c0.1,0,0.1,0,0.2,0c0,0,0,0,0,0c0,0,0,0,0.1,0c-0.1,0-0.1,0-0.1,0.1c0,0,0.1,0,0.1,0c0.1,0,0.3-0.1,0.4-0.1c0.1,0,0.1,0,0.1,0
				s0,0,0-0.1c0.1,0,0.2-0.1,0.3-0.1c0.1-0.1,0.1,0,0.1-0.1l0.3-0.1c0.1,0,0.1-0.1,0.2-0.1c0.1,0,0.1,0,0.1,0c0.1,0,0,0,0.1,0
				c0,0,0,0-0.1,0.1c0.1,0,0.2-0.1,0.2-0.1c0,0,0.1,0,0.2,0c0-0.1,0.1-0.1,0.1-0.1c0-0.1,0,0,0-0.1c0.1,0,0.1,0,0.1,0s0.2,0,0.2,0
				c0,0,0,0,0-0.1c0,0.1,0.1,0.1,0.1,0.1c0.1-0.1,0.1-0.1,0.1-0.1c0.1,0,0.1-0.1,0.2-0.1c0,0,0,0,0,0.1c0.1,0.1,0.1,0.1,0.1,0.2
				h-0.1c0,0.1,0.1,0.1,0.1,0.2c0,0,0,0.1,0,0.1c-0.1,0-0.1,0-0.1-0.1c0,0,0,0,0,0.1L49,10.4c-0.1-0.1-0.1-0.1-0.1-0.1
				c0,0.1,0.2,0.2,0.2,0.2c0.1,0,0.1,0.1,0.1,0.1c-0.1,0-0.1,0-0.1,0s0,0-0.1,0c0.1,0.1,0.1,0.1,0.2,0.1c0,0.1,0,0.2,0.1,0.3
				c0,0.1,0.1,0.1,0.1,0.2c0,0,0,0.1,0.1,0.1c0.1,0.2,0.1,0.3,0.2,0.5c0.1,0.1,0.1,0.1,0.1,0.1c0.1,0.1,0.1,0.1,0.1,0.1
				c0.1,0.1,0.1,0.2,0.2,0.3c0.1,0.1,0.1,0.1,0.1,0.2c0,0,0,0,0-0.1c0.1,0.1,0.1,0.1,0.1,0.2c0.1,0.1,0.1,0.2,0.2,0.3
				c0.1,0.1,0.1,0.1,0.1,0.1c0.1,0,0,0,0.1,0l0.1,0.1c0,0.1,0,0,0,0.1c0.1,0.2,0.3,0.4,0.4,0.6c-0.1,0-0.1,0-0.1,0
				c0,0.1,0.1,0.1,0.1,0.1c0.1,0.1,0.1,0.1,0.2,0.1c0,0,0.1,0.2,0.2,0.2c0,0.1,0,0.1,0,0.1h0.1l0.1,0.1c0.1,0.1,0.1,0.1,0.1,0.2
				c-0.1,0-0.1-0.1-0.1-0.1c0,0.1,0.2,0.2,0.3,0.3c0.1,0.1,0.1,0.1,0.2,0.2c0,0,0,0,0.1,0c0.1,0.1,0.1,0.1,0.2,0.1
				c0,0,0.1,0,0.1,0.1c0.1,0.1,0.1,0.1,0.2,0.1c0,0.1,0,0.1,0,0.1c0,0.1,0,0.1,0,0.1c-0.1-0.1-0.1-0.1-0.1-0.1c0,0.1,0,0.1,0,0.1
				l0.1,0.1c0.1,0,0.1,0,0.1,0c0-0.1,0-0.1,0.1-0.1c0,0.1,0,0.1,0,0.1c0.1,0,0.1,0,0.1,0.1h0.1c0.1,0,0.1,0.1,0.1,0.1s0,0,0,0.1
				c0,0,0,0,0.1,0c0,0.1,0.1,0,0.1,0c0.1,0.1,0.3,0.1,0.4,0.1c0,0.1,0,0.1,0,0.1s0,0,0.1,0c0,0.1,0.1,0.1,0.1,0c0,0.1,0,0.1,0,0.1
				c0.1,0,0.1,0,0.1,0C53.5,15.7,53.5,15.7,53.5,15.7z"/>
			<path class="st1" d="M51.5,16.4C51.4,16.4,51.4,16.4,51.5,16.4C51.4,16.5,51.4,16.4,51.5,16.4z"/>
			<path class="st1" d="M53.3,15.9C53.4,15.8,53.4,15.8,53.3,15.9C53.4,15.8,53.4,15.8,53.3,15.9C53.4,15.8,53.4,15.9,53.3,15.9z"/>
			<path class="st1" d="M46.4,10.9L46.4,10.9C46.4,10.8,46.4,10.8,46.4,10.9L46.4,10.9z"/>
			<path class="st1" d="M50.5,16.7C50.6,16.7,50.6,16.7,50.5,16.7C50.6,16.7,50.5,16.6,50.5,16.7z"/>
			<path class="st1" d="M46.6,10.8C46.6,10.8,46.6,10.8,46.6,10.8c-0.1-0.1-0.1,0-0.1,0C46.5,10.8,46.5,10.8,46.6,10.8z"/>
			<path class="st1" d="M42.3,12.6c0.1,0,0.1,0,0.1-0.1C42.4,12.5,42.3,12.5,42.3,12.6C42.3,12.6,42.3,12.6,42.3,12.6z"/>
			<path class="st1" d="M49.9,8.5c-0.2,0-0.3,0.1-0.5,0.1C49.7,8.5,49.8,8.6,49.9,8.5L49.9,8.5z"/>
			<path class="st1" d="M48.3,7.7c0,0.1,0,0.2,0.1,0.2c0,0,0.1,0,0.1,0.1C48.4,8,48.4,8,48.4,8c0-0.1,0-0.1,0-0.1
				c0-0.1-0.1-0.1-0.1-0.2C48.3,7.7,48.3,7.7,48.3,7.7C48.3,7.7,48.3,7.7,48.3,7.7z"/>
			<path class="st1" d="M50.8,9.2C50.8,9.2,50.9,9.2,50.8,9.2C50.8,9.2,50.8,9.2,50.8,9.2c0-0.1,0-0.1-0.1,0
				C50.7,9.2,50.8,9.2,50.8,9.2L50.8,9.2z"/>
			<path class="st1" d="M50.8,10.9L50.8,10.9l0.1,0.2c0,0,0,0,0-0.1C50.8,10.9,50.8,10.9,50.8,10.9z"/>
			<path class="st1" d="M49.4,3.7c0,0,0.1,0,0.1,0C49.5,3.7,49.4,3.7,49.4,3.7C49.3,3.7,49.3,3.7,49.4,3.7z"/>
			<path class="st1" d="M51.8,12.5C51.8,12.4,51.8,12.4,51.8,12.5C51.8,12.4,51.8,12.4,51.8,12.5C51.8,12.4,51.8,12.4,51.8,12.5z"/>
			<path class="st1" d="M49.8,5.4C49.8,5.4,49.8,5.3,49.8,5.4C49.8,5.3,49.8,5.4,49.8,5.4C49.8,5.4,49.8,5.4,49.8,5.4z"/>
			<path class="st1" d="M51.3,4C51.3,4,51.3,4,51.3,4C51.3,3.9,51.3,3.9,51.3,4C51.2,3.9,51.3,3.9,51.3,4L51.3,4z"/>
			<path class="st1" d="M51.6,4.2C51.6,4.2,51.6,4.2,51.6,4.2C51.6,4.2,51.6,4.2,51.6,4.2z"/>
			<path class="st1" d="M49.8,8.2C49.8,8.2,49.8,8.2,49.8,8.2c-0.1,0.1-0.1,0.1,0,0.1C49.8,8.2,49.8,8.2,49.8,8.2z"/>
			<path class="st1" d="M46.2,8.6C46.3,8.6,46.3,8.6,46.2,8.6C46.3,8.6,46.2,8.6,46.2,8.6z"/>
			<path class="st1" d="M46.4,8.6c0,0-0.1,0-0.1,0C46.3,8.6,46.4,8.6,46.4,8.6C46.4,8.6,46.4,8.6,46.4,8.6z"/>
			<path class="st1" d="M55.3,14.2C55.3,14.2,55.3,14.2,55.3,14.2C55.2,14.2,55.2,14.2,55.3,14.2C55.2,14.2,55.2,14.2,55.3,14.2
				C55.2,14.2,55.2,14.2,55.3,14.2z"/>
			<path class="st1" d="M57.2,12.9C57.2,12.9,57.2,12.9,57.2,12.9V13C57.2,13,57.2,12.9,57.2,12.9z"/>
			<path class="st1" d="M46.6,8.6c0,0,0.1,0,0.1,0h0.1c0-0.1,0-0.1,0-0.1C46.7,8.6,46.6,8.6,46.6,8.6z"/>
			<path class="st1" d="M55.9,14.3C55.8,14.3,55.8,14.3,55.9,14.3C55.8,14.3,55.8,14.3,55.9,14.3C55.8,14.3,55.9,14.3,55.9,14.3z"/>
			<path class="st1" d="M56.9,13.3l-0.1,0.2v0.1c0.1-0.1,0.1-0.1,0.1-0.1C56.8,13.3,56.9,13.3,56.9,13.3z"/>
			<path class="st1" d="M57.1,12.9C57.1,12.9,57.1,12.8,57.1,12.9l-0.1-0.1C57.1,12.8,57.1,12.8,57.1,12.9c-0.1-0.1-0.1-0.2-0.1-0.2
				c0-0.1,0-0.1,0-0.1c-0.1,0-0.1,0-0.1,0C57,12.8,57.1,12.8,57.1,12.9C57.1,12.9,57.1,12.9,57.1,12.9z"/>
			<path class="st1" d="M57.2,12.9c0-0.1,0-0.1,0-0.2C57.1,12.7,57.2,12.8,57.2,12.9z"/>
		</g>
	</g>
	<g>
		<path class="st2" d="M34.8,15.6c-0.1-0.2-0.1-0.4-0.2-0.5c-0.1-0.2-0.2-0.4-0.2-0.7c-0.1-0.1-0.1-0.2-0.1-0.3c0-0.1,0-0.1,0.1-0.2
			c0-0.1,0-0.1,0-0.2c0-0.1-0.1-0.1-0.1-0.1c0-0.1-0.1-0.2-0.1-0.3c0,0-0.1-0.1-0.1-0.1c0-0.1,0.1-0.2,0.1-0.2c0-0.1,0-0.2,0.1-0.2
			c0-0.2,0.1-0.3,0.1-0.4c-0.1,0-0.1,0-0.1,0c-0.2,0.1,0.1-1.2,0.1-1.4c-0.3-0.8-0.1-2.6,0-3.1c0,0-0.3-2.6-0.4-2.8
			c-0.1-0.2-0.2-0.1-0.2-0.4c-0.1,0.1-0.1,0.2-0.2,0.2c0.3-0.9-0.4-1.2-0.7-2c-0.6-0.4-1.1,0.2-1.5,0.3c-0.1,0.4-0.3,1-0.6,1.2
			c0,0.4,0.1,0.8,0.2,1.1C31,5.9,31,6.3,30.9,6.7c0.1,0.2-0.1,0.5,0,0.8c0.5,1.3-0.7,2.3-1.9,2.6c-0.3-0.3-0.1-0.8-0.1-1.2
			c-0.2-0.9-0.1-1.5-0.2-2.4c-0.2-0.7,0.3-1.1,0.1-1.6c-0.2-0.4-1.1-0.8-1.5-0.5c-0.2,0.1-0.3,0.3-0.4,0.5c-0.1,0.5,0.1,1,0.2,1.5
			c0.1,0.3,0.1,0.5,0.2,0.8c0,0.1,0,0.2,0,0.4c0,0.1,0,0.2-0.1,0.4c0,0.1-0.1,0.2-0.1,0.3c0,0.2,0,0.3,0,0.5c0,0.3,0.1,0.6,0.1,0.9
			c0,0.3,0.1,0.5,0.1,0.8c0.1,0.4-0.2,0.9-0.4,1.4c-0.3,1,0.2,3.3,0.7,3.8c0.3-0.2,0.4-0.3,0.8-0.2c0.2-0.3,0.3-0.7,0.8-0.7
			c0.1-0.3,0.2-0.3,0.2-0.5c-0.1-0.5-0.1-1.1-0.2-1.7c0.3-0.5,1.4-1.1,2.1-1.1l0.2,2.1c0,0,0.3,1.6,0.3,1.7s0,1.5,0,1.5l0.7,0.8
			l1.2,0.6l0.7-0.2l0.3-0.4c0-0.1,0-0.2,0-0.2c0-0.2,0.1-0.4,0.1-0.6c0-0.1,0-0.2,0.1-0.3c0.1-0.1,0.1-0.1,0.1-0.2V16
			C34.9,15.8,34.8,15.7,34.8,15.6z"/>
		<path class="st2" d="M23.5,6.8c-0.6-0.7-0.8-1.3-1.5-1.1c-0.1,0.1-0.3,0.1-0.4,0.2c-0.1,0.2-0.1,0.3-0.2,0.4
			c0.2,0.5,0.4,0.8,0.7,1.1c0.1,0.2,0.3,0.4,0.4,0.7c0.6,0.9,1.1,2,1.6,3.2c-0.7-0.3-1.4-0.4-2.1-0.4c-0.8,0-1.6,0.1-2.4,0.3
			c0.1-1.6,0.1-3.3-0.5-4.1c-0.2-0.2-0.5-0.2-0.7-0.4c-0.2,0.1-0.3,0.2-0.5,0.3c-0.2,0.4-0.1,0.8-0.2,1.3c0.1,0.2,0.1,0.3,0.2,0.5
			c-0.1,0.7,0.1,1.5-0.1,2.5c-0.1,0.9-0.5,2.6-0.3,3.4c0.1,0.2-0.1,0.3-0.1,0.4c0,0.5,0.3,1.2,0.7,1.5c1.1,0.8,2.6,0.2,3.8-0.1h0.1
			c0.5-0.1,1-0.5,1.5-0.6c0.3-0.2,0.5-0.5,0.8-0.7c0.2-0.1,0.3-0.3,0.5-0.4c0,0,0,0,0-0.1c0.1-0.2,0.2-0.4,0.3-0.6
			c0.2-0.7,0.5-1.4,0.6-2.1c0.1-1-0.2-1.8-0.6-2.7C24.6,8.3,24,7.6,23.5,6.8z M24.4,13.7c0,0.1,0,0.1,0.1,0.1
			c-0.6,0.5-1.5,1.1-2.5,1.5c-0.8,0.4-1.7,0.6-2.4,0.6c-0.7-0.8-0.3-1.5-0.3-2.4c0.1-0.2,0.1-0.4,0.1-0.6c0,0.1,0,0.1,0.1,0.1
			c0.2,0.1,1.3-0.1,2.6-0.3c0.9-0.1,1.8-0.3,2.5-0.4c0.1,0.3,0.2,0.5,0.3,0.8C24.6,13.3,24.6,13.5,24.4,13.7z"/>
		<path class="st2" d="M13.3,5.1c0,0.2-0.1,0.1-0.1,0.3c-0.1,0-0.2,0-0.2,0c-0.4-0.3-0.7-1.7-0.7-1.8c0.1-0.3-0.5-0.7-0.2-0.9
			c-0.1,0-0.2-0.1-0.3-0.1c0.1,0,0.2-0.1,0.2-0.1c0-0.1-0.1-0.7-0.2-0.8c-0.2-0.2-0.5-0.5-0.4-0.7c-0.2-0.1-0.3-0.1-0.4-0.3
			c-0.2,0.1-0.5,0.1-0.7,0.1c-0.2,0.3-0.4,0.7-0.6,0.9L9.7,1.8C9.6,1.9,9.7,2,9.7,2.2c0.1,0.2,0.1,0.3,0,0.5C9.9,2.8,10,2.8,10.1,3
			c-0.2,0.3,0,0.9,0.2,1.1l0.1,0.3c0,0.1,0.2,1.2,0.3,1.4c0.1,0.1,0.1,0.1,0.2,0.2c-0.2,0.8,0.1,1.5,0,2.3c0.1,0.3,0.2,0.5,0.2,0.7
			c-0.3,1.6,0.2,3.2-0.3,4.6c-0.1,0.4-0.3,0.9-0.4,1.3C10.2,14.9,9.9,15,9.7,15c-0.2,0.1-0.4,0.1-0.6,0.2c0,0.3-0.1,0.1,0.1,0.3
			c-0.2,0-0.3,0-0.5,0c-0.1,0.4,0,0.3-0.3,0.5c-0.4,0.1-1-0.2-1.1-0.1c-2,0.6-2.8,2.3-2.7,4.1c0.8,0.3,0.6,1,1.2,1.4
			c0.8,0.6,2.3,1.4,3.9,1.7c1.4,0.4,2.8,0.5,3.6-0.1c0.3-0.7,0.7-1.4,1-2.1c-1-1.1-1.6-3.3-2.4-4.8c1.8-1.8,1.5-6.1,1.6-7.7
			c0-0.3-0.1-0.5-0.2-0.7c-0.2-0.4,0.2-0.9,0-1.2c0-0.1-0.2-0.2-0.2-0.2c0.1-0.2,0.1-0.3,0.1-0.5c0.1,0,0.1,0,0.1-0.1
			c1.1,0.7,1.5,0.4,2.8,0.1c-0.1-0.5-0.3-0.5-0.5-0.9C14.9,5.1,14.3,5,13.3,5.1z M12.4,21.7c-0.1,0.1-0.2,0.2-0.3,0.3
			c-1,0-1.7-0.2-2.4-0.4c-1-0.3-1.8-0.8-2.7-1.1c0.1-0.1,0.2-0.1,0.3-0.1c-0.1-1.2,1-2.1,1.9-2.7c0.2,0.2,0.3,0.4,0.5,0.6
			C10.8,19.2,12.2,20.1,12.4,21.7z"/>
		<path class="st2" d="M5.1,14.2c0.6-0.1,1.1-0.6,1.6-0.6c0.3-0.3,0.6-0.5,0.9-0.8c0.2-0.2,0.3-0.3,0.5-0.5c0,0,0,0,0.1-0.1
			c0.1-0.2,0.2-0.4,0.2-0.6c0.2-0.8,0.5-1.5,0.6-2.3c0.1-1-0.2-2-0.6-2.8C7.9,5.6,7.3,4.8,6.6,4.1C6,3.4,5.9,2.6,5.1,2.8
			C4.9,2.8,4.8,2.9,4.6,3C4.5,3.2,4.5,3.3,4.3,3.4C4.6,4,4.8,4.3,5.1,4.7c0.2,0.2,0.3,0.4,0.5,0.7c0.6,1,1.2,2.2,1.7,3.4
			C6.6,8.4,5.8,8.3,5.1,8.3c-0.8,0-1.7,0.1-2.6,0.2c0.1-1.7,0.2-3.4-0.5-4.3C1.7,4.1,1.3,4,1.1,3.8C0.9,3.9,0.7,4,0.6,4.1
			C0.4,4.6,0.5,5,0.4,5.5c0.1,0.2,0.2,0.4,0.2,0.6C0.5,6.7,0.6,7.6,0.5,8.7c-0.1,1-0.5,2.7-0.3,3.6c0.1,0.2-0.1,0.3-0.1,0.4
			c0,0.5,0.3,1.2,0.8,1.6C2.1,15.1,3.6,14.5,5.1,14.2L5.1,14.2L5.1,14.2z M2.2,11.2c0-0.2,0.1-0.4,0.1-0.7c0,0.1,0,0.1,0.1,0.1
			c0.2,0.1,1.4-0.1,2.7-0.3c1-0.2,2-0.3,2.7-0.5c0.1,0.3,0.2,0.5,0.3,0.8c-0.1,0.3-0.2,0.5-0.4,0.8c0.1,0.1,0,0.1,0.1,0.1
			c-0.6,0.5-1.6,1.1-2.7,1.6c-0.9,0.4-1.8,0.7-2.6,0.7C1.7,12.9,2.2,12.2,2.2,11.2z"/>
	</g>
	<g>
		<path class="st2" d="M75.7,15.8c-1.4,0-2.9,0.4-4.4,0.6c0.3-0.5,0.8-1.8,1.1-2c-0.1-0.2,0.1-0.5,0.2-0.7c0.7,0.7,0.9,1,1.8,0.9
			c0.2-0.1,1.3,0.2,1-0.5c1-0.4-1.1-3.4-1.5-3.8c-1-1-2.1-1.7-3.3-2.2c0.3-0.7,0.7-1.3,1.1-2C72.1,5.6,72.9,4.7,73,4
			c0.1-1-1.1-1.4-1.7-1.2c-1,0.2-1.8,0.6-2.8,0.7c-0.4,0.1-0.8,0.1-1.1,0.1c-0.7,0.1-1.4,0.1-2.1-0.1c-0.3-0.1-0.6-0.1-0.9-0.3
			c-0.3-0.1-0.5-0.3-0.8-0.5c-0.1,0-0.1-0.1-0.1-0.1c-0.2-0.1-0.3-0.1-0.4-0.1c-0.2-0.1-0.3-0.1-0.4-0.1c-0.3,0.1-0.3,0.8-0.2,1.1
			c0.1,0.4,0.4,0.8,0.7,1c0.6,0.5,1.4,0.8,2,1c1.6,0.4,3.3,0.3,5,0c-0.1,0.2-0.2,0.5-0.3,0.7c-0.2,0.5-0.5,1.1-0.8,1.6
			c-0.2,0.3-0.3,0.5-0.5,0.8c-0.1,0.1-0.2,0.2-0.3,0.3c0,0.1,0,0.1,0,0.1c-0.1,0.2-0.2,0.3-0.2,0.5c-0.1,0.3-0.3,0.7-0.4,0.9
			c-0.4,0.8-0.8,1.5-1.3,2.1l-2,2.4c-0.2,0.5-0.4,1.3-0.9,1.5c-0.1,0.5-0.4,1.1,0,1.6c0.4,0.4,0.8,0.1,1.1-0.2
			c0.6-0.7,1.2-1.4,1.8-2.1c0.1-0.1,0.1-0.2,0.2-0.3c0.1-0.2,0.2-0.5,0.4-0.8c0.2-0.4,0.4-0.8,0.7-1.1c0.1-0.2,0.3-0.4,0.4-0.6
			c0.7-1,1.2-2.1,1.8-3.2c1.1,0.8,0.8,1.6,0.3,2.8c-0.4,1.2-1.3,2-2.1,2.7c-0.6,0.5-0.9,1.5-0.6,2.5c0.6,2.1,2.9,0.6,4.1,0.7
			c0.3-0.1,0.8-0.1,1.1-0.3c0.1-0.1,0.3-0.1,0.5-0.1c-0.1,0-0.1,0.1-0.1,0.1c0.1-0.1,0.2-0.1,0.3-0.1c-0.5,0.4-1,0.8-1.5,1
			c-0.2,0.1-0.5,0.1-0.7,0.2c-0.2,0.1-0.2,0.4-0.4,0.5C70.4,20,70.4,20,70.2,20c-0.1,0.1-0.1,0.2-0.1,0.3c-0.1,0-0.2,0.2-0.2,0.2
			c0.1,0.1,0.1,0.1,0.1,0.2c0,0.1-0.1,0.1-0.1,0.1c0.1,0.9,1.3,0.3,1.7,0.2c0.8-0.2,2-0.5,2.7,0c-0.1,0.8-0.5,1.3,0.1,2
			c0.9,1.2,2-1.2,1.4-2.4c-0.6-1.2-2.1-1.1-3.2-1.1c0.7-0.6,1.5-0.9,2.3-1.3c0.4-0.2,1.8-0.7,1.7-1.6C76.8,15.9,76,15.8,75.7,15.8z"
			/>
		<path class="st2" d="M99.3,20.1c0-0.1,0-0.2-0.1-0.3c-0.1-0.2-0.2-0.3-0.3-0.4c-0.1-0.1-0.2-0.1-0.2-0.2c-0.1-0.1-0.3-0.1-0.4-0.2
			c-0.1-0.1-0.2-0.2-0.2-0.3c0-0.1-0.1-0.1-0.1-0.1c-0.1,0-0.1,0-0.1,0c-0.3,0.1-0.7,0.2-1,0.2c-0.9,0.1-1.8,0.1-2.7,0.3
			c-1.9,0.3-3.8,0.5-5.6,0.6c-0.8,0-1.6,0.1-2.4,0c-0.6-0.1-1.8,0-2.1-1c0.3-0.2,0.7-0.3,0.9-0.4c0.2-0.1,0.3-0.1,0.5-0.2
			c0.3-0.1,0.6-0.2,0.9-0.3c0.2-0.1,0.3-0.1,0.5-0.2c0.1,0,0.2,0,0.2,0c0.1,0,0.2,0,0.2,0c0.2-0.1,0.3-0.1,0.5-0.1
			c0.3-0.1,0.6-0.2,0.9-0.4c0.2-0.1,0.3-0.1,0.5-0.2c0.3-0.2,0.6-0.3,0.9-0.4l1.4-0.9c0.5-0.3,0.3-1.2-0.1-1.4
			c0-0.1,0.2-0.2,0.2-0.2l0.9-0.6c0.3-0.2,1.4-0.5,1.5-1.1c0-0.2-0.1-0.3-0.2-0.5c-0.1-0.1-0.3-0.3-0.4-0.4
			c-0.1-0.1-0.1-0.1-0.1-0.2c-0.1-0.1-0.1-0.1-0.2-0.1c-0.1,0-0.1-0.1-0.2-0.1c-0.1-0.1-0.2-0.1-0.3-0.1c-0.2-0.1-0.5,0.1-0.8,0.1
			c-0.2-0.1-0.4-0.1-0.6-0.1c-0.3,0-0.5,0-0.7-0.1c-0.1-0.1-0.3-0.1-0.4-0.2c0-0.1-0.1-0.1-0.1-0.1c-0.1,0-0.1,0-0.2,0
			c-0.1-0.1-0.2-0.1-0.2-0.2c-0.1-0.1-0.1-0.1,0-0.2c0-0.1,0.1-0.1,0.1-0.2c0-0.1-0.1-0.1-0.1-0.1c0,0-0.1,0-0.1,0
			c0-0.1,0-0.1-0.1-0.1h-0.1c-0.1,0-0.1-0.1-0.2-0.1c-0.1,0-0.2,0-0.3,0c-0.1,0.1-0.1,0.1-0.2,0.1c-0.1,0.1,0,0.2-0.1,0.3
			c-0.2,0.3-0.3,0.2-0.4,0.5c0,0.1,0.1,0.3,0.1,0.5c-0.1,0.2-0.2,0.4-0.2,0.7c0,0.7,0.3,0.5,0.7,0.5c0.4,0,0.8,0.1,1.1,0.1
			c0.3,0,0.5-0.1,0.9-0.1c0.1-0.1,0.2-0.1,0.2-0.1l-0.1,0.1c-0.1,0.1-0.1,0.1-0.2,0.2c-0.2,0.2-0.3,0.4-0.5,0.5
			c-0.1,0.1-0.2,0.2-0.3,0.3c-0.1,0-0.1,0.1-0.2,0.1c-0.1,0-0.1,0-0.2,0.1c-0.1,0.1-0.3,0.1-0.3,0.2c-0.2,0.2-0.2,0.4-0.2,0.7
			c0,0.1,0,0.3,0,0.4c0,0.1,0,0.1,0,0.2l-0.1,0.2c0.1,0,0.3,0,0.4,0l0.3-0.1c-1.7,1.1-3.6,1.4-5.4,2.2c-0.5,0.2-1.7,0.6-1.8,1.4
			c-0.2,0.8,0.7,1.3,1.1,1.5c1.8,1,3.9,0.9,5.8,0.8c1.8-0.2,3.6-0.1,5.4,0c0.3,0,0.6,0,0.9,0c0.5-0.1,1.1-0.1,1.6-0.3
			c0.5-0.1,1.1-0.4,1.6-0.7l0.1-0.1C99.4,20.3,99.4,20.2,99.3,20.1z"/>
		<path class="st2" d="M91.8,9.2l1.1,0.4c0.5,0.2,1,0.2,1.5,0.2c0.2,0,0.3,0,0.5,0c0.3-0.1,0.5-0.2,0.8-0.2c0.5-0.1,1.1,0.1,1.5-0.4
			c0.2-0.1,0.3-0.3,0.4-0.4c0.2-0.2,0.4-0.3,0.5-0.4c0.1-0.1,0.3-0.1,0.4-0.3c0.1-0.1,0.1-0.3,0-0.5c0-0.1,0-0.1,0-0.1
			c-0.1-0.1-0.1-0.2-0.2-0.2c-0.1-0.1-0.2-0.2-0.2-0.3c-0.4-0.4-0.7-0.5-1.2-0.5c-0.4,0-0.7-0.1-1-0.1h-1.5c-0.5,0-1,0-1.5-0.2
			c0.1-0.8,0.2-1.6,0.3-2.3c0.1-0.2,0-0.4,0.1-0.5c0-0.2,0.1-0.5,0.1-0.7c0-0.2-0.1-0.3-0.2-0.5c0-0.1,0-0.2-0.1-0.2
			c0-0.2-0.2-0.2-0.3-0.3c-0.1-0.1-0.2-0.2-0.3-0.3c-0.1-0.1-0.2-0.2-0.3-0.2c-0.1-0.1-0.2-0.2-0.3-0.1c-0.1,0.1-0.1,0.2-0.2,0.3
			c-0.2,0.3-0.3,0.7-0.4,1C91,3,91,4.2,90.8,4.9c-0.1,0.6-0.5,1.4-0.5,2c0,0.4,0.1,1.3,0.2,1.6C90.7,9,91.5,9,91.8,9.2z"/>
		<path class="st2" d="M85.3,13.9c0.8-0.3,1.4-1.1,2-1.7c0.9-1,0.5-1.7-0.2-2.6c0.2-0.3,0.4-0.1,0.6-0.2c0.2-0.1,0.2-0.3,0.3-0.4
			c0.1-0.1,0.1-0.2,0.2-0.2c0.1-0.1,0.1-0.3,0.1-0.4c0-0.1,0-0.2,0-0.4c0.1-0.4,0.1-0.9,0.1-1.3c0-0.1,0-0.1,0-0.2
			c0-0.5-0.1-1-0.2-1.4c-0.1-0.3-0.1-0.5-0.2-0.8c-0.1-0.2-0.1-0.4-0.2-0.7c-0.2-0.4-0.3-0.9-0.5-1.2c-0.1-0.1-0.3-0.2-0.4-0.2
			c-0.1-0.1-0.3-0.1-0.4-0.1c-0.1,0.1-0.1,0.1-0.2,0.2c-0.1,0.1-0.2,0.2-0.3,0.3c0,0.1,0,0.1-0.1,0.1c-0.1,0.1-0.1,0.2-0.1,0.4
			c0.1,0.2,0.1,0.3,0.1,0.5c0.1,0.5,0.1,1,0.2,1.5c0.1,0.7,0.1,1.4,0.1,2C85.4,7.4,84.6,7.2,84,7c-0.1,0-0.1,0-0.1,0
			c-0.3-0.1-0.5-0.3-0.8-0.3c-0.1,0-0.2,0-0.2,0c-0.1,0-0.1,0-0.1,0c0-0.1,0-0.2,0-0.2c0.1-0.2,0-0.5,0-0.7c-0.1-0.5-0.3-1-0.5-1.4
			c-0.1-0.1-0.1-0.2-0.2-0.3C82.1,4,82,3.8,81.8,3.8c-0.1,0-0.2,0.1-0.2,0.2c-0.1,0.1-0.1,0.2-0.1,0.3c0,0.1-0.1,0.2-0.1,0.3
			c-0.1,0.2-0.1,0.4-0.2,0.6c0,0.1-0.1,0.2-0.1,0.3c0,0.1-0.1,0.2-0.1,0.3c-0.1,0.5-0.2,1-0.4,1.5c0,0.1-0.1,0.2-0.1,0.2
			c-0.1,0.1-0.1,0.1-0.2,0.2c0,0.1-0.1,0.1-0.1,0.1c0,0.1-0.1,0.2-0.2,0.3c-0.1,0.2-0.1,0.3-0.2,0.4c-0.1,0.3-0.3,0.5-0.4,0.8
			c-0.2,0.5-0.4,1.1-0.5,1.7c0,0.3,0,0.6,0.1,0.9c0.4,1.5,2.2,1.8,3.3,2c0.4,0.1,1,0.2,1.5,0.3C84.4,14.1,84.9,14.1,85.3,13.9z
			 M81.6,10.8l0.1-0.3c0.1-0.4,0.4-0.7,0.5-1.1c0.1-0.1,0.2-0.4,0.3-0.5c0.1-0.1,0.2,0.2,0.3,0.2c0.1,0,0.2-0.2,0.3-0.2
			C83.3,8.9,83.5,9,83.6,9c0.1,0,0.2,0,0.3,0.1c0.2,0,0.4,0,0.4,0h0.1c0,0,0,0,0.1,0c0.2,0,0.4,0,0.5-0.1C85.1,9,85.1,9,85.2,9
			c0.3,0,0.5-0.2,0.8-0.2c0.2,0.3,0.3,0.9,0.3,1.4c0,0.1,0,0.1-0.1,0.2c-0.2,0.6-0.9,0.4-1.2,0.4c-0.1,0-0.5,0.1-1,0.1
			C82.9,11,81.6,11,81.6,10.8z"/>
	</g>
</g>
</svg>
