<svg id="레이어_1" data-name="레이어 1" xmlns="http://www.w3.org/2000/svg" viewBox="0 0 4.16 17.13"><defs><style>.cls-1{fill:#231815;}</style></defs><path class="cls-1" d="M603.25,426.28a4.24,4.24,0,0,1,.27.77c0,.08.22.66.26.84a2.12,2.12,0,0,0,.39.83,2,2,0,0,0,.38.22.42.42,0,0,1,.28.23,2.29,2.29,0,0,0-.12-.7.83.83,0,0,0-.5-.34.55.55,0,0,1-.37-.34,9.28,9.28,0,0,0-.6-1.66S603.14,426.07,603.25,426.28Z" transform="translate(-601.59 -421.25)"/><path class="cls-1" d="M604.29,429.51a1.27,1.27,0,0,0,.38.22.45.45,0,0,1,.28.23,2.65,2.65,0,0,0-.12-.7.87.87,0,0,0-.51-.34.53.53,0,0,1-.24-.2C604,428.6,604.18,429.43,604.29,429.51Z" transform="translate(-601.59 -421.25)"/><path class="cls-1" d="M604.5,430.19a1,1,0,0,0,.3.12.31.31,0,0,1,.23.13,1.67,1.67,0,0,0-.11-.47.67.67,0,0,0-.41-.21c-.08,0-.13-.08-.18-.12S604.29,430.07,604.5,430.19Z" transform="translate(-601.59 -421.25)"/><path class="cls-1" d="M603.67,427c0,.18.16.83.33.95a1.69,1.69,0,0,0,.37.22.47.47,0,0,1,.29.23,2.38,2.38,0,0,0-.13-.7.83.83,0,0,0-.5-.34c-.1,0-.19-.11-.27-.44a6.14,6.14,0,0,0-.88-2.24s-.09-.06,0,.15a14.44,14.44,0,0,1,.54,1.34C603.46,426.22,603.63,426.8,603.67,427Z" transform="translate(-601.59 -421.25)"/><path class="cls-1" d="M603.19,424.73c0,.08.25.73.29.91a6.1,6.1,0,0,0,.49,1.55,1.35,1.35,0,0,0,.29.18.51.51,0,0,1,.28.22,2.67,2.67,0,0,0-.14-.66.92.92,0,0,0-.49-.37c-.1,0-.19-.36-.27-.69a5.19,5.19,0,0,0-1-2.44s-.17-.16-.05.05A8.1,8.1,0,0,1,603.19,424.73Z" transform="translate(-601.59 -421.25)"/><path class="cls-1" d="M605.32,428.51a.85.85,0,0,0-.4.46,2.76,2.76,0,0,0,.08.71.43.43,0,0,1,.21-.3,1.79,1.79,0,0,0,.3-.31,2,2,0,0,0,.16-.91c0-.18,0-.8,0-.88a3.45,3.45,0,0,1,0-.81c0-.24,0-.15,0-.15a8.63,8.63,0,0,0-.12,1.77A.55.55,0,0,1,605.32,428.51Z" transform="translate(-601.59 -421.25)"/><path class="cls-1" d="M605.26,430.12a.94.94,0,0,0,.28-.24c.18-.21.14-.94.08-.81a.6.6,0,0,1-.16.22.7.7,0,0,0-.37.38,3,3,0,0,0,0,.7C605.11,430.26,605.11,430.2,605.26,430.12Z" transform="translate(-601.59 -421.25)"/><path class="cls-1" d="M605.17,427.74a.79.79,0,0,0-.38.47,2.57,2.57,0,0,0,.1.71.48.48,0,0,1,.2-.31,1.33,1.33,0,0,0,.29-.32,2.63,2.63,0,0,0,0-1c0-.18,0-.78,0-.86s0-1.2.1-1.44,0-.15,0-.15a6.14,6.14,0,0,0-.15,2.4C605.32,427.57,605.25,427.67,605.17,427.74Z" transform="translate(-601.59 -421.25)"/><path class="cls-1" d="M605,426.85c-.09.17-.29.31-.35.58a2.68,2.68,0,0,0,.07.69c0-.12.08-.16.24-.29a.62.62,0,0,0,.2-.33,3.91,3.91,0,0,0-.11-1.54c0-.18-.21-1.08-.31-1.56a6.29,6.29,0,0,1-.12-1.27c0-.23-.06,0-.06,0-.19.56.25,1.81.4,3.12C605,426.57,605.05,426.76,605,426.85Z" transform="translate(-601.59 -421.25)"/><path class="cls-1" d="M604.56,425.44c.08.34.14.53.08.62a1,1,0,0,0-.18.68,4,4,0,0,0,.17.65.53.53,0,0,1,.15-.33,1.09,1.09,0,0,0,.18-.29,7.45,7.45,0,0,0-.31-1.59c0-.18-.22-.89-.24-1-.07-.4-.42-1.87-.45-2.07s-.07,0-.07,0A17.39,17.39,0,0,0,604.56,425.44Z" transform="translate(-601.59 -421.25)"/><path class="cls-1" d="M604.57,438.33a11.89,11.89,0,0,0,.57-3.69v-.13l.06-1.7s0-1.43,0-1.82a1.27,1.27,0,0,1,.33-.56c.18-.21.19-.8.13-.67a1,1,0,0,1-.18.29.66.66,0,0,0-.4.35,1.3,1.3,0,0,0,0,.31.45.45,0,0,0-.06-.14.6.6,0,0,0-.38-.28.7.7,0,0,1-.35-.21c-.07-.08.08.42.29.53a1,1,0,0,1,.28.33,2,2,0,0,1,.12.69c0,.38,0,1.13,0,1.13l0,.27a12.93,12.93,0,0,0-.53-2.28A16.5,16.5,0,0,0,603.1,428a4.92,4.92,0,0,0-.69-.8,2.19,2.19,0,0,0-.82-.45,6.66,6.66,0,0,1,1,1c.2.36.5.82.67,1.13a12.69,12.69,0,0,1,.6,1.47c.12.31.39,1.4.5,1.77a9.21,9.21,0,0,1,.28,1.68c0,.41.07,1.19.08,1.54v.08c-.07-.28-.25-1-.28-1.15a2.63,2.63,0,0,0-.43-.79,5.08,5.08,0,0,0-.67-.56,4.27,4.27,0,0,1,.85,1.64c.12.59.38,1.43.54,1.92a1,1,0,0,1,0,.28,3.68,3.68,0,0,1-.32,1.08c-.09.16-.1.46,0,.5s.15,0,.18,0l.15-.65" transform="translate(-601.59 -421.25)"/><path class="cls-1" d="M603,423.52s.27.62.3.68.22.69.24.76.2.76.22.87a2.38,2.38,0,0,0,.21.64,1.31,1.31,0,0,0,.46.26,4.37,4.37,0,0,1,0-.45c.05-.13-.18-.3-.34-.36a.62.62,0,0,1-.28-.28c0-.13-.13-.48-.18-.66s-.22-.79-.33-1-.22-.45-.31-.66-.32-.52-.37-.6-.23-.28-.28-.35-.08,0-.05,0,.31.45.42.63S602.93,423.48,603,423.52Z" transform="translate(-601.59 -421.25)"/><path class="cls-1" d="M602.8,421.32c0,.05.21.5.25.58s.36.92.39,1,.35,1.09.36,1.13l.27,1.08a.85.85,0,0,1,0,.38.93.93,0,0,0,.07.42c.1,0,.4.25.4.25a.87.87,0,0,1,.06-.16.77.77,0,0,0,0-.39,1.24,1.24,0,0,0-.18-.32.67.67,0,0,1-.16-.25c0-.08-.4-1.37-.42-1.48s-.32-.89-.41-1.13-.5-1.1-.53-1.15S602.76,421.26,602.8,421.32Z" transform="translate(-601.59 -421.25)"/></svg>