<svg id="레이어_1" data-name="레이어 1" xmlns="http://www.w3.org/2000/svg" viewBox="0 0 68.61 18.6"><defs><style>.cls-1{fill:#231815;}</style></defs><path class="cls-1" d="M605.55,432.18a.32.32,0,0,1,.11.32.43.43,0,0,1-.2.26,1.53,1.53,0,0,1-.34.16l-.37.12-.34.12a.4.4,0,0,0-.2.18,3.22,3.22,0,0,0-.19,1.11c0,.51,0,1.05,0,1.63s0,1.15.06,1.71,0,1,.05,1.28c0,0-.06,0-.12.05h-.19l-.2,0a.38.38,0,0,1-.14-.06,2.55,2.55,0,0,1-.66-1.28,5.12,5.12,0,0,1-.06-1.47,10.73,10.73,0,0,1,.23-1.49c.11-.48.19-.92.24-1.31a7.13,7.13,0,0,0-1.23.26l-1,.33-.81.28a2.76,2.76,0,0,1-.82.12.88.88,0,0,1-.49-.15,1.8,1.8,0,0,1-.39-.39,1.56,1.56,0,0,1-.24-.46.51.51,0,0,1,0-.36,3.24,3.24,0,0,1,.56-.27,4.38,4.38,0,0,1,.67-.22l.68-.17.62-.13c.5-.11,1-.2,1.5-.26s1-.11,1.39-.12a6.91,6.91,0,0,1,1.14,0A2,2,0,0,1,605.55,432.18Zm-1.16-2.47a1.65,1.65,0,0,1-.52,0,5.3,5.3,0,0,1-.66-.07l-.67-.14-.6-.16s-.11,0-.22.17-.23.28-.38.48-.32.42-.51.65a7.32,7.32,0,0,1-.59.66,5.77,5.77,0,0,1-.61.53,1.15,1.15,0,0,1-.59.24.87.87,0,0,1-.19-.41.75.75,0,0,1,0-.49,3.49,3.49,0,0,1,.44-.63l.65-.73.64-.72a5.83,5.83,0,0,0,.45-.59,2.41,2.41,0,0,0,.32-1.58,2.31,2.31,0,0,0-.58-.19l-.75-.15a5.41,5.41,0,0,1-.72-.18.92.92,0,0,1-.46-.3,1.33,1.33,0,0,1-.21-.47,1.58,1.58,0,0,1,0-.53,1.42,1.42,0,0,1,.13-.47.64.64,0,0,1,.27-.31,4.27,4.27,0,0,1,1.79.33,3.38,3.38,0,0,1,1.16.81,2.19,2.19,0,0,1,.39.64,1.69,1.69,0,0,1,.09.53,3.12,3.12,0,0,1,0,.52,1.71,1.71,0,0,0,0,.56,1,1,0,0,0,.43.31l.53.19a4.56,4.56,0,0,1,.52.18.89.89,0,0,1,.39.33,1.09,1.09,0,0,1,.17.53A1.35,1.35,0,0,1,604.39,429.71Z" transform="translate(-563.82 -420.52)"/><path class="cls-1" d="M611.35,429.2a1,1,0,0,1-.12.27c-.05.11-.12.21-.18.32s-.15.21-.22.31l-.19.24a3.88,3.88,0,0,0,.42.35.65.65,0,0,1,.24.46,1.37,1.37,0,0,1-.27.24l-.22.1h-.37l-.39.14c-.19.07-.4.15-.63.22s-.44.14-.64.2a1.26,1.26,0,0,1-.46.06,1.05,1.05,0,0,1-.59-.32.73.73,0,0,1-.22-.65,2.55,2.55,0,0,1-.62-.67,7.4,7.4,0,0,1-.58-1,10.3,10.3,0,0,1-.46-1.08,6.57,6.57,0,0,1-.3-1,.53.53,0,0,1,.14-.47,1.43,1.43,0,0,1,.47-.38,1.15,1.15,0,0,1,.57-.1.46.46,0,0,1,.39.35,6.37,6.37,0,0,1,1,0,4.36,4.36,0,0,1,1,.18,4.24,4.24,0,0,1,1,.44,3.55,3.55,0,0,1,.92.79,3.12,3.12,0,0,1,.63-.41l.78-.35.72-.27a3.63,3.63,0,0,0,.48-.18c.09-.05.15-.19.2-.42a3.94,3.94,0,0,0,.09-.73c0-.26,0-.51,0-.76a1.69,1.69,0,0,0-.06-.47.25.25,0,0,1,.14-.3.94.94,0,0,1,.49-.12,1.45,1.45,0,0,1,.59.14,1,1,0,0,1,.45.48,4.93,4.93,0,0,1,.36,1.27c.07.49.13,1,.17,1.5s.06,1,.08,1.42,0,.79.07,1,0,.31.06.5a3.29,3.29,0,0,1,.05.54,1.77,1.77,0,0,1-.07.52.89.89,0,0,1-.25.43.55.55,0,0,1-.41.15,1.19,1.19,0,0,1-.44-.14,2.91,2.91,0,0,1-.42-.25,2.88,2.88,0,0,0-.34-.2,2.74,2.74,0,0,1-.29-.94,7.23,7.23,0,0,1,0-.93c0-.31,0-.63.06-.95a4.68,4.68,0,0,0,0-1,7.52,7.52,0,0,0-.8.26c-.24.1-.46.21-.65.31l-.53.29-.38.21h-.18l-.22,0A.58.58,0,0,1,611.35,429.2Zm-1.27-.43a2.29,2.29,0,0,0-.66-.4,2.78,2.78,0,0,0-.68-.2,3.92,3.92,0,0,0-.67-.05l-.61,0a2.86,2.86,0,0,0,.16.58,5,5,0,0,0,.29.68c.11.22.23.43.35.62a2.2,2.2,0,0,0,.34.43,2.29,2.29,0,0,0,.47-.21,2.48,2.48,0,0,0,.49-.38,2.35,2.35,0,0,0,.37-.52A1.22,1.22,0,0,0,610.08,428.77Zm5.45,5.94c0,.1,0,.3,0,.62a9.49,9.49,0,0,1,0,1,8.87,8.87,0,0,1-.14,1.14,2.8,2.8,0,0,1-.33.94.7.7,0,0,1-.33.26.78.78,0,0,1-.47.06c-.06,0-.13-.07-.21-.19s-.13-.21-.18-.28c0-.33,0-.69.08-1.05s.08-.72.1-1.06a7.68,7.68,0,0,0,0-.94,1.62,1.62,0,0,0-.14-.69,2.24,2.24,0,0,0-.44.14c-.21.08-.43.15-.68.22a2.78,2.78,0,0,1-.75.11.91.91,0,0,1-.62-.21,2.68,2.68,0,0,1-.41-.38c-.09-.11-.07-.27.05-.48l.9-.28a9.1,9.1,0,0,1,1.15-.26,4.44,4.44,0,0,1,1.14-.05,1.4,1.4,0,0,1,.88.38,2.14,2.14,0,0,1,.2.33A1.55,1.55,0,0,1,615.53,434.71Z" transform="translate(-563.82 -420.52)"/><path class="cls-1" d="M623.79,435.83a6.14,6.14,0,0,1-.88,0l-1,0-1,0c-.35,0-.68,0-1,0a3.33,3.33,0,0,0-1.14.18c-.32.13-.63.24-.92.34a.19.19,0,0,1-.18,0,.65.65,0,0,1-.22-.11.77.77,0,0,1-.18-.18.32.32,0,0,1-.07-.2.72.72,0,0,1,0-.28,1.58,1.58,0,0,1,.09-.31.94.94,0,0,1,.26-.41,1.76,1.76,0,0,1,.37-.23l.39-.19a.93.93,0,0,0,.33-.26.57.57,0,0,0,.11-.26,2.2,2.2,0,0,0,.06-.37c0-.13,0-.26,0-.37v-.29a5,5,0,0,1,.07-.92,7.77,7.77,0,0,1,.21-.83.39.39,0,0,1,.16-.15.56.56,0,0,1,.21-.06.41.41,0,0,1,.22,0,.24.24,0,0,1,.14.09c0,.27,0,.57,0,.88s-.06.63-.1.94-.09.61-.14.89-.1.53-.14.76c.34,0,.69,0,1,0s.7,0,1,0,.65.06,1,.11.57.09.81.14a.74.74,0,0,1,.35.16,1,1,0,0,1,.26.27.73.73,0,0,1,.08.33A.52.52,0,0,1,623.79,435.83Zm-.52-4.81c0,.21-.07.46-.12.74s-.11.55-.18.81a4.52,4.52,0,0,1-.27.69.6.6,0,0,1-.35.34,1.07,1.07,0,0,1-.37,0,2.26,2.26,0,0,1-.39-.07,1.4,1.4,0,0,1-.3-.14c-.08-.06-.11-.11-.09-.16a5.73,5.73,0,0,0,.3-1.28,6.52,6.52,0,0,0,0-1.39,5,5,0,0,0-.24-1.27,2.05,2.05,0,0,0-.57-.9.86.86,0,0,0-.36-.16l-.52-.07-.51-.07A1,1,0,0,1,619,428a.87.87,0,0,1-.26-.22,1.55,1.55,0,0,1-.2-.32,1.11,1.11,0,0,1-.11-.32.22.22,0,0,1,.1-.23,1.54,1.54,0,0,1,.8-.18,6.26,6.26,0,0,1,1.2.08,8,8,0,0,1,1.19.29,1.8,1.8,0,0,1,.76.43,3.07,3.07,0,0,1,.4.7,4.64,4.64,0,0,1,.28.89,5.15,5.15,0,0,1,.13,1A7.21,7.21,0,0,1,623.27,431Z" transform="translate(-563.82 -420.52)"/><path class="cls-1" d="M628.6,430.9a2.21,2.21,0,0,1,0,1,5.84,5.84,0,0,1-.24.76q-.15.33-.39.78a5.34,5.34,0,0,1-.56.84,3.16,3.16,0,0,1-.71.62,1,1,0,0,1-.77.12.23.23,0,0,1-.13,0l-.18-.06a.86.86,0,0,1-.2-.13.51.51,0,0,1-.13-.18l-.06-.16a1.11,1.11,0,0,1,0-.28,1.32,1.32,0,0,1,0-.34.94.94,0,0,1,.15-.32l.46-.6c.21-.28.42-.57.62-.87a9.77,9.77,0,0,0,.54-.85,1.18,1.18,0,0,0,.2-.59.75.75,0,0,0-.14-.34,1.55,1.55,0,0,0-.31-.32,2.47,2.47,0,0,0-.38-.28,1.66,1.66,0,0,0-.37-.16.89.89,0,0,1-.7-.11.94.94,0,0,1-.42-.49.76.76,0,0,1,0-.61.87.87,0,0,1,.62-.46.33.33,0,0,1,.24,0,.67.67,0,0,1,.24.09c.53.33,1,.62,1.35.88a2,2,0,0,1,.77,1,1.76,1.76,0,0,0,.1.2,2.14,2.14,0,0,1,.17.3l.16.34A1.61,1.61,0,0,1,628.6,430.9Zm3.75.15c0,.44,0,1,.08,1.55a7.29,7.29,0,0,1-.17,1.79.1.1,0,0,1-.12.08h-.2a.53.53,0,0,1-.4-.2,1.74,1.74,0,0,1-.29-.38c0-.3,0-.61,0-.95s0-.68-.05-1,0-.68,0-1,0-.62,0-.89a3.35,3.35,0,0,0-.13-1l-.2-.69a.81.81,0,0,1-.06-.4c0-.09.14-.15.35-.17s.23.06.35.23a3,3,0,0,1,.34.59,4.5,4.5,0,0,1,.25.7,4,4,0,0,1,.13.54s0,.11,0,.22.05.22.08.34.06.25.08.38A1.31,1.31,0,0,1,632.35,431.05Z" transform="translate(-563.82 -420.52)"/><path class="cls-1" d="M578.53,425.55a3.1,3.1,0,0,1,.27.77c0,.08.22.67.26.85a2,2,0,0,0,.4.82,1.18,1.18,0,0,0,.38.22.45.45,0,0,1,.28.23,2.65,2.65,0,0,0-.12-.7.87.87,0,0,0-.51-.34.5.5,0,0,1-.36-.33,9.94,9.94,0,0,0-.6-1.67S578.42,425.34,578.53,425.55Z" transform="translate(-563.82 -420.52)"/><path class="cls-1" d="M579.58,428.78a1.15,1.15,0,0,0,.37.22.42.42,0,0,1,.28.23,2.29,2.29,0,0,0-.12-.7.83.83,0,0,0-.5-.34.6.6,0,0,1-.25-.19C579.27,427.87,579.47,428.7,579.58,428.78Z" transform="translate(-563.82 -420.52)"/><path class="cls-1" d="M579.78,429.46a1,1,0,0,0,.31.12.31.31,0,0,1,.22.13,1.37,1.37,0,0,0-.11-.47.7.7,0,0,0-.41-.21.32.32,0,0,1-.18-.12C579.53,428.83,579.58,429.35,579.78,429.46Z" transform="translate(-563.82 -420.52)"/><path class="cls-1" d="M579,426.25c0,.17.16.83.33.94a1.18,1.18,0,0,0,.38.22.45.45,0,0,1,.28.23,2.65,2.65,0,0,0-.12-.7.85.85,0,0,0-.5-.34c-.11,0-.2-.11-.28-.44a6.14,6.14,0,0,0-.88-2.23s-.08-.07,0,.14a14.29,14.29,0,0,1,.53,1.34C578.75,425.49,578.91,426.07,579,426.25Z" transform="translate(-563.82 -420.52)"/><path class="cls-1" d="M578.47,424c0,.08.26.74.3.91a6.73,6.73,0,0,0,.48,1.56,1.7,1.7,0,0,0,.29.17.48.48,0,0,1,.28.23,2.67,2.67,0,0,0-.13-.67.92.92,0,0,0-.49-.37c-.1,0-.19-.36-.27-.69a5.23,5.23,0,0,0-1.06-2.44s-.16-.16,0,.05A7.31,7.31,0,0,1,578.47,424Z" transform="translate(-563.82 -420.52)"/><path class="cls-1" d="M580.6,427.78a.84.84,0,0,0-.39.46,2.45,2.45,0,0,0,.07.71.45.45,0,0,1,.21-.3,1.11,1.11,0,0,0,.3-.31,2,2,0,0,0,.16-.9c0-.19,0-.81,0-.89a3.06,3.06,0,0,1,0-.81c.05-.23,0-.15,0-.15a9.4,9.4,0,0,0-.12,1.77A.51.51,0,0,1,580.6,427.78Z" transform="translate(-563.82 -420.52)"/><path class="cls-1" d="M580.55,429.39a.82.82,0,0,0,.27-.24c.19-.21.14-.94.08-.81a.45.45,0,0,1-.16.22.69.69,0,0,0-.36.38,3,3,0,0,0,0,.7A.38.38,0,0,1,580.55,429.39Z" transform="translate(-563.82 -420.52)"/><path class="cls-1" d="M580.45,427a.81.81,0,0,0-.37.47,2.51,2.51,0,0,0,.1.71.45.45,0,0,1,.2-.31,1.58,1.58,0,0,0,.29-.32c.12-.16,0-.82,0-1s0-.79,0-.87.05-1.2.09-1.44,0-.14,0-.14a6,6,0,0,0-.14,2.39C580.61,426.84,580.54,426.94,580.45,427Z" transform="translate(-563.82 -420.52)"/><path class="cls-1" d="M580.28,426.12c-.08.17-.28.32-.35.58a2.58,2.58,0,0,0,.08.69c0-.12.08-.16.23-.29a.57.57,0,0,0,.2-.32,3.77,3.77,0,0,0-.11-1.55c0-.18-.21-1.08-.3-1.56a7.36,7.36,0,0,1-.13-1.27c.05-.23,0,0,0,0-.2.55.24,1.8.39,3.11C580.29,425.84,580.33,426,580.28,426.12Z" transform="translate(-563.82 -420.52)"/><path class="cls-1" d="M579.84,424.71c.08.34.14.53.08.62a1.08,1.08,0,0,0-.18.68,5.07,5.07,0,0,0,.18.65.48.48,0,0,1,.15-.33,1.6,1.6,0,0,0,.17-.28,7.4,7.4,0,0,0-.3-1.6c-.05-.18-.22-.88-.24-1-.08-.4-.43-1.88-.46-2.08s-.06,0-.06,0A18,18,0,0,0,579.84,424.71Z" transform="translate(-563.82 -420.52)"/><path class="cls-1" d="M579.85,437.6a11.77,11.77,0,0,0,.58-3.69.57.57,0,0,0,0-.13l.06-1.69s0-1.44,0-1.83a1.3,1.3,0,0,1,.33-.55c.19-.21.2-.8.13-.68s-.1.25-.18.29a.65.65,0,0,0-.39.35.9.9,0,0,0,0,.31.46.46,0,0,0-.05-.14.62.62,0,0,0-.39-.28.71.71,0,0,1-.34-.21c-.08-.08.07.42.28.54a1.18,1.18,0,0,1,.29.32,2.3,2.3,0,0,1,.11.69c0,.38,0,1.13,0,1.13v.28a13.79,13.79,0,0,0-.53-2.29,16,16,0,0,0-1.33-2.78,5.23,5.23,0,0,0-.68-.8,2.19,2.19,0,0,0-.82-.45,6.72,6.72,0,0,1,1,1c.2.36.51.83.68,1.13a13.45,13.45,0,0,1,.6,1.47c.11.32.38,1.4.5,1.77a9.17,9.17,0,0,1,.27,1.69c0,.4.07,1.19.09,1.53v.08c-.06-.28-.24-1-.28-1.15a2.5,2.5,0,0,0-.43-.78,4.37,4.37,0,0,0-.67-.56,4.14,4.14,0,0,1,.85,1.63c.13.59.39,1.44.55,1.93,0,.11,0,.21,0,.27a4.3,4.3,0,0,1-.33,1.09c-.08.15-.09.45,0,.5s.16,0,.18,0,.08-.29.16-.64" transform="translate(-563.82 -420.52)"/><path class="cls-1" d="M578.24,422.79l.3.68c0,.06.21.69.24.76s.19.77.21.87a2.12,2.12,0,0,0,.22.64,1.14,1.14,0,0,0,.45.27s0-.39,0-.45-.19-.31-.35-.37a.61.61,0,0,1-.27-.28c0-.12-.14-.47-.19-.66s-.22-.79-.33-1-.22-.45-.31-.65a6.65,6.65,0,0,0-.36-.6c0-.08-.23-.29-.29-.36s-.08,0,0,0,.31.46.41.63S578.21,422.76,578.24,422.79Z" transform="translate(-563.82 -420.52)"/><path class="cls-1" d="M578.09,420.59c0,.05.21.5.25.58s.35.92.39,1,.34,1.08.36,1.12.24,1,.26,1.09a.87.87,0,0,1,0,.38,1.08,1.08,0,0,0,.07.41,1.45,1.45,0,0,1,.4.26l.06-.17a.82.82,0,0,0,0-.38.94.94,0,0,0-.19-.32.71.71,0,0,1-.15-.26c0-.08-.41-1.37-.43-1.48s-.32-.88-.41-1.13-.5-1.1-.52-1.15S578.05,420.54,578.09,420.59Z" transform="translate(-563.82 -420.52)"/><path class="cls-1" d="M567.08,432.75a1.34,1.34,0,0,1,0,.4.56.56,0,0,1-.17.31,2.1,2.1,0,0,1-.71,0,.83.83,0,0,1-.49-.23,8.79,8.79,0,0,1-.94-1.49,10.4,10.4,0,0,1-.65-1.7,7.81,7.81,0,0,1-.29-1.67A3.28,3.28,0,0,1,564,427a.79.79,0,0,1,.49-.5,1.05,1.05,0,0,1,.67-.05c.07.49.15,1,.24,1.52s.18,1,.28,1.47.21.86.32,1.2a1.7,1.7,0,0,0,.37.7.7.7,0,0,0,.1.32c.06.11.13.23.21.35s.16.24.24.37A1.56,1.56,0,0,1,567.08,432.75Zm4,2.69a1.06,1.06,0,0,1,.18.59c0,.25-.08.41-.26.48a2,2,0,0,1-.83.13c-.37,0-.78,0-1.23,0s-.91,0-1.39,0a5.14,5.14,0,0,0-1.34.25,1.33,1.33,0,0,1-.3.11.65.65,0,0,1-.43-.11.23.23,0,0,1-.11-.14.51.51,0,0,1,0-.2.41.41,0,0,1,.17-.33,2.74,2.74,0,0,1,.47-.36l.59-.4a3.31,3.31,0,0,0,.53-.43,3.9,3.9,0,0,0,.29-.34c.14-.19.29-.39.44-.62a6.51,6.51,0,0,0,.41-.73,2.32,2.32,0,0,0,.23-.69,3,3,0,0,1-.94-.51,2.58,2.58,0,0,1-.73-.91s0-.06,0-.1A1.2,1.2,0,0,1,567,431a1,1,0,0,1,.38-.48,3.36,3.36,0,0,1,.69-.4,3.45,3.45,0,0,1,.77-.25,1.65,1.65,0,0,1,.61,0,2,2,0,0,0,0-.37c0-.16,0-.32,0-.51s0-.35-.07-.53a2.93,2.93,0,0,0-.12-.47.66.66,0,0,1-.25-.33.78.78,0,0,1,0-.34.92.92,0,0,1,.16-.31,3,3,0,0,1,.21-.25.94.94,0,0,1,.59.27,1.65,1.65,0,0,1,.46.7,10.59,10.59,0,0,1,.3,1.26,6.08,6.08,0,0,1,.06,1.35,4.51,4.51,0,0,1-.28,1.32,3.15,3.15,0,0,1-.74,1.15,1.63,1.63,0,0,0-.35.41,6.36,6.36,0,0,0-.31.59l-.35.68a5.22,5.22,0,0,1-.43.68,5,5,0,0,1,1.23,0,7.2,7.2,0,0,1,1.22.21s.07.07.17.08S571,435.41,571.05,435.44Zm-1.65-5a.94.94,0,0,0-.5,0,3.54,3.54,0,0,0-.55.18,3.59,3.59,0,0,0-.44.22c-.12.08-.18.12-.18.14l.18.15.32.19.34.19.21.12a.74.74,0,0,0,.44-.43A1.66,1.66,0,0,0,569.4,430.46Z" transform="translate(-563.82 -420.52)"/><path class="cls-1" d="M586.77,431.34a1.37,1.37,0,0,1,0,.72c0,.23-.09.43-.13.59s-.14.22-.39.46a3.74,3.74,0,0,1-1,.67,2.56,2.56,0,0,1-1,.21,1.75,1.75,0,0,1-1.07-.34h-.12a.13.13,0,0,1-.12-.06,6.45,6.45,0,0,1-.51-1,7.42,7.42,0,0,1-.39-1.27,4,4,0,0,1-.07-1.23,1.2,1.2,0,0,1,.5-.88c.1-.07.24,0,.41.12s.07.2.1.27,0,.15.06.25,0,.23.07.38.07.38.13.67.08.47.1.66a1.8,1.8,0,0,0,.24.65,1.57,1.57,0,0,0,.78-.06c.33-.1.66-.21,1-.34l.89-.36A1.5,1.5,0,0,1,586.77,431.34Zm2.46-2.21c0,.16,0,.38,0,.66a5.77,5.77,0,0,1,0,.83,4.24,4.24,0,0,1-.1.76,1,1,0,0,1-.19.45.2.2,0,0,1-.19,0,.61.61,0,0,1-.22-.13l-.09-.14a.48.48,0,0,1-.08-.18,1.35,1.35,0,0,1,.06-.27c0-.15.08-.31.12-.5a5.67,5.67,0,0,0,.1-.57,1.28,1.28,0,0,0,0-.48.85.85,0,0,0-.4.08,4.6,4.6,0,0,0-.53.22l-.56.26a3.42,3.42,0,0,1-.44.19.24.24,0,0,1-.19,0,1.53,1.53,0,0,1-.26-.08,1.28,1.28,0,0,1-.24-.11.25.25,0,0,1-.13-.14,1,1,0,0,1,.47-.46,4.73,4.73,0,0,1,.72-.31l.76-.24a2.11,2.11,0,0,0,.6-.26h.17a1.53,1.53,0,0,1,.24.07.93.93,0,0,1,.22.14A.38.38,0,0,1,589.23,429.13Zm2.39,5.83c0,.06-.08.13-.22.19a1,1,0,0,1-.47.11.84.84,0,0,1-.5-.19,1.07,1.07,0,0,1-.36-.67,1.81,1.81,0,0,1,0-.57c0-.27.06-.6.1-1s.08-.79.12-1.24a11.67,11.67,0,0,0,.07-1.32,9.59,9.59,0,0,0-.07-1.23,2.64,2.64,0,0,0-.27-1,.66.66,0,0,1,.41-.08.47.47,0,0,1,.42.33,8.45,8.45,0,0,1,.58,1.62,11.88,11.88,0,0,1,.28,1.67,15.9,15.9,0,0,1,0,1.69A14.87,14.87,0,0,1,591.62,435Z" transform="translate(-563.82 -420.52)"/><path class="cls-1" d="M578.12,431.46a6.29,6.29,0,0,1-3.37,2.37,2.16,2.16,0,0,1,.53-2c.29-.26.78-.47,1-.81s0-.77-.08-1.13a1.73,1.73,0,0,0-1.79-1.36,10.08,10.08,0,0,0-1.55-.09c-.29,0-1,0-1.22.21s1.21,1.1,1.48,1.18.58,0,.85.05.32.43.25.76c-.2,1-.67.71-1.4,1-.33.12-.28.11-.33.41s-.05.4.11.48.28-.11.5-.15c0,.41-.11.78-.1,1.2a5.88,5.88,0,0,0,.18,1.45c.05.18.11.57.27.68s.28-.07.44-.1a6,6,0,0,0,1-.23,11.88,11.88,0,0,0,2.73-2.06,4.39,4.39,0,0,0,1.16-1.27,3.72,3.72,0,0,0,.46-.82,2,2,0,0,0-.25-1A5.8,5.8,0,0,1,578.12,431.46Z" transform="translate(-563.82 -420.52)"/></svg>