<?xml version="1.0" encoding="utf-8"?>
<!-- Generator: Adobe Illustrator 24.2.1, SVG Export Plug-In . SVG Version: 6.00 Build 0)  -->
<svg version="1.1" id="레이어_1" xmlns="http://www.w3.org/2000/svg" xmlns:xlink="http://www.w3.org/1999/xlink" x="0px"
	 y="0px" viewBox="0 0 68.6 18.6" style="enable-background:new 0 0 68.6 18.6;" xml:space="preserve">
<style type="text/css">
	.st0{fill:#FFFFFF;}
</style>
<path class="st0" d="M41.7,11.7c0.1,0.1,0.1,0.2,0.1,0.3c0,0.1-0.1,0.2-0.2,0.3c-0.1,0.1-0.2,0.1-0.3,0.2l-0.4,0.1l-0.3,0.1
	c-0.1,0-0.2,0.1-0.2,0.2c-0.1,0.4-0.2,0.7-0.2,1.1c0,0.5,0,1,0,1.6c0,0.6,0,1.1,0.1,1.7s0,1,0,1.3c0,0-0.1,0-0.1,0H40h-0.2
	c-0.1,0-0.1,0-0.1-0.1c-0.3-0.4-0.6-0.8-0.7-1.3c-0.1-0.5-0.1-1-0.1-1.5c0-0.5,0.1-1,0.2-1.5c0.1-0.5,0.2-0.9,0.2-1.3
	c-0.4,0.1-0.8,0.1-1.2,0.3l-1,0.3l-0.8,0.3c-0.3,0.1-0.5,0.1-0.8,0.1c-0.2,0-0.3-0.1-0.5-0.1c-0.1-0.1-0.3-0.2-0.4-0.4
	c-0.1-0.1-0.2-0.3-0.2-0.5c0-0.1,0-0.2,0-0.4c0.2-0.1,0.4-0.2,0.6-0.3c0.2-0.1,0.4-0.2,0.7-0.2l0.7-0.2l0.6-0.1
	c0.5-0.1,1-0.2,1.5-0.3s1-0.1,1.4-0.1c0.4,0,0.8,0,1.1,0C41.2,11.5,41.5,11.5,41.7,11.7z M40.6,9.2c-0.2,0-0.3,0-0.5,0
	c-0.2,0-0.4,0-0.7-0.1L38.7,9l-0.6-0.2c0,0-0.1,0-0.2,0.2s-0.2,0.3-0.4,0.5s-0.3,0.4-0.5,0.6c-0.2,0.2-0.4,0.5-0.6,0.7
	c-0.2,0.2-0.4,0.4-0.6,0.5c-0.2,0.1-0.4,0.2-0.6,0.2c-0.1-0.1-0.2-0.3-0.2-0.4C35,11,35,10.8,35,10.6c0.1-0.2,0.3-0.4,0.4-0.6
	l0.7-0.7l0.6-0.7c0.2-0.2,0.3-0.4,0.5-0.6c0.3-0.5,0.4-1,0.3-1.6c-0.2-0.1-0.4-0.2-0.6-0.2l-0.8-0.1C36,6,35.7,6,35.5,5.9
	c-0.2-0.1-0.3-0.2-0.5-0.3c-0.1-0.1-0.2-0.3-0.2-0.5c0-0.2,0-0.4,0-0.5c0-0.2,0.1-0.3,0.1-0.5C35,4,35.1,3.9,35.2,3.8
	c0.6,0,1.2,0.1,1.8,0.3c0.4,0.2,0.8,0.5,1.2,0.8c0.2,0.2,0.3,0.4,0.4,0.6c0.1,0.2,0.1,0.3,0.1,0.5c0,0.2,0,0.3,0,0.5
	c0,0.2,0,0.4,0,0.6c0.1,0.1,0.3,0.2,0.4,0.3l0.5,0.2c0.2,0,0.4,0.1,0.5,0.2c0.2,0.1,0.3,0.2,0.4,0.3c0.1,0.2,0.2,0.3,0.2,0.5
	C40.7,8.9,40.6,9,40.6,9.2z"/>
<path class="st0" d="M47.5,8.7c0,0.1-0.1,0.2-0.1,0.3c0,0.1-0.1,0.2-0.2,0.3S47.1,9.5,47,9.6l-0.2,0.2c0.1,0.1,0.3,0.2,0.4,0.4
	c0.1,0.1,0.2,0.3,0.2,0.5c-0.1,0.1-0.2,0.2-0.3,0.2L47,11h-0.4l-0.4,0.1c-0.2,0.1-0.4,0.1-0.6,0.2s-0.4,0.1-0.6,0.2
	c-0.1,0-0.3,0.1-0.5,0.1c-0.2,0-0.4-0.2-0.6-0.3c-0.2-0.2-0.3-0.4-0.2-0.6c-0.2-0.2-0.5-0.4-0.6-0.7c-0.2-0.3-0.4-0.7-0.6-1
	c-0.2-0.4-0.3-0.7-0.5-1.1c-0.1-0.3-0.2-0.7-0.3-1c0-0.2,0-0.3,0.1-0.5C42,6.2,42.2,6.1,42.3,6c0.2-0.1,0.4-0.1,0.6-0.1
	c0.2,0,0.3,0.2,0.4,0.4c0.3,0,0.7,0,1,0c0.3,0,0.7,0.1,1,0.2c0.4,0.1,0.7,0.3,1,0.4c0.3,0.2,0.7,0.5,0.9,0.8
	c0.2-0.2,0.4-0.3,0.6-0.4l0.8-0.4l0.7-0.3c0.2,0,0.3-0.1,0.5-0.2c0.1,0,0.2-0.2,0.2-0.4c0.1-0.2,0.1-0.5,0.1-0.7c0-0.3,0-0.5,0-0.8
	c0-0.2,0-0.3-0.1-0.5c0-0.1,0-0.2,0.1-0.3c0.1-0.1,0.3-0.1,0.5-0.1c0.2,0,0.4,0.1,0.6,0.1c0.2,0.1,0.4,0.3,0.5,0.5
	c0.2,0.4,0.3,0.8,0.4,1.3c0.1,0.5,0.1,1,0.2,1.5s0.1,1,0.1,1.4s0,0.8,0.1,1s0,0.3,0.1,0.5c0,0.2,0,0.4,0,0.5c0,0.2,0,0.4-0.1,0.5
	c0,0.2-0.1,0.3-0.3,0.4c-0.1,0.1-0.3,0.2-0.4,0.1c-0.2,0-0.3-0.1-0.4-0.1c-0.1-0.1-0.3-0.2-0.4-0.3c-0.1-0.1-0.2-0.1-0.3-0.2
	c-0.2-0.3-0.3-0.6-0.3-0.9c0-0.3,0-0.6,0-0.9c0-0.3,0-0.6,0.1-1c0-0.3,0-0.7,0-1c-0.3,0.1-0.5,0.2-0.8,0.3c-0.2,0.1-0.5,0.2-0.7,0.3
	l-0.5,0.3L48,8.3h-0.2h-0.2C47.6,8.4,47.6,8.6,47.5,8.7z M46.3,8.3c-0.2-0.2-0.4-0.3-0.7-0.4c-0.2-0.1-0.4-0.2-0.7-0.2
	c-0.2,0-0.4-0.1-0.7,0h-0.6c0,0.2,0.1,0.4,0.2,0.6c0.1,0.2,0.2,0.5,0.3,0.7c0.1,0.2,0.2,0.4,0.3,0.6c0.1,0.2,0.2,0.3,0.3,0.4
	c0.2-0.1,0.3-0.1,0.5-0.2c0.2-0.1,0.3-0.2,0.5-0.4C45.9,9.2,46,9,46.1,8.8C46.2,8.6,46.3,8.4,46.3,8.3L46.3,8.3z M51.7,14.2
	c0,0.1,0,0.3,0,0.6c0,0.3,0,0.7,0,1c0,0.4-0.1,0.8-0.1,1.1c-0.1,0.3-0.2,0.6-0.3,0.9c-0.1,0.1-0.2,0.2-0.3,0.3
	c-0.1,0.1-0.3,0.1-0.5,0.1c-0.1,0-0.1-0.1-0.2-0.2s-0.1-0.2-0.2-0.3c0-0.3,0-0.7,0.1-1s0.1-0.7,0.1-1.1c0-0.3,0-0.6,0-0.9
	c0-0.2,0-0.5-0.1-0.7c-0.2,0-0.3,0.1-0.4,0.1c-0.2,0.1-0.4,0.1-0.7,0.2c-0.2,0.1-0.5,0.1-0.8,0.1c-0.2,0-0.4-0.1-0.6-0.2
	c-0.1-0.1-0.3-0.2-0.4-0.4c-0.1-0.1-0.1-0.3,0-0.5l0.9-0.3c0.4-0.1,0.8-0.2,1.2-0.3c0.4-0.1,0.8-0.1,1.1,0c0.3,0,0.6,0.2,0.9,0.4
	c0.1,0.1,0.1,0.2,0.2,0.3C51.6,13.7,51.7,14,51.7,14.2L51.7,14.2z"/>
<path class="st0" d="M60,15.3c-0.3,0-0.6,0-0.9,0h-1h-1c-0.3,0-0.7,0-1,0c-0.4,0-0.8,0.1-1.1,0.2c-0.3,0.1-0.6,0.2-0.9,0.3
	c-0.1,0-0.1,0-0.2,0c-0.1,0-0.2-0.1-0.2-0.1c-0.1,0-0.1-0.1-0.2-0.2c0-0.1-0.1-0.1-0.1-0.2c0-0.1,0-0.2,0-0.3c0-0.1,0-0.2,0.1-0.3
	c0-0.2,0.1-0.3,0.3-0.4c0.1-0.1,0.2-0.2,0.4-0.2l0.4-0.2c0.1-0.1,0.2-0.1,0.3-0.3c0.1-0.1,0.1-0.2,0.1-0.3c0-0.1,0.1-0.2,0.1-0.4
	c0-0.1,0-0.3,0-0.4v-0.3c0-0.3,0-0.6,0.1-0.9c0.1-0.3,0.1-0.6,0.2-0.8c0-0.1,0.1-0.1,0.2-0.1c0.1,0,0.1-0.1,0.2-0.1
	c0.1,0,0.1,0,0.2,0c0.1,0,0.1,0,0.1,0.1c0,0.3,0,0.6,0,0.9s-0.1,0.6-0.1,0.9s-0.1,0.6-0.1,0.9s-0.1,0.5-0.1,0.8c0.3,0,0.7,0,1,0
	s0.7,0,1,0s0.7,0.1,1,0.1s0.6,0.1,0.8,0.1c0.1,0,0.2,0.1,0.3,0.2c0.1,0.1,0.2,0.2,0.3,0.3c0.1,0.1,0.1,0.2,0.1,0.3
	C60.1,15.1,60.1,15.2,60,15.3z M59.4,10.5c0,0.2-0.1,0.5-0.1,0.7s-0.1,0.5-0.2,0.8c-0.1,0.2-0.2,0.5-0.3,0.7
	c-0.1,0.2-0.2,0.3-0.3,0.3c-0.1,0-0.2,0-0.4,0c-0.1,0-0.3,0-0.4-0.1c-0.1,0-0.2-0.1-0.3-0.1c-0.1-0.1-0.1-0.1-0.1-0.2
	c0.1-0.4,0.2-0.8,0.3-1.3c0-0.5,0-0.9,0-1.4c0-0.4-0.1-0.9-0.2-1.3c-0.1-0.3-0.3-0.7-0.6-0.9c-0.1-0.1-0.2-0.1-0.4-0.2L56,7.6
	l-0.5-0.1c-0.1,0-0.2,0-0.3-0.1c-0.1-0.1-0.2-0.1-0.3-0.2c-0.1-0.1-0.1-0.2-0.2-0.3c-0.1-0.1-0.1-0.2-0.1-0.3c0-0.1,0-0.2,0.1-0.2
	c0.2-0.1,0.5-0.2,0.8-0.2c0.4,0,0.8,0,1.2,0.1c0.4,0.1,0.8,0.2,1.2,0.3c0.3,0.1,0.5,0.2,0.8,0.4c0.2,0.2,0.3,0.5,0.4,0.7
	c0.1,0.3,0.2,0.6,0.3,0.9c0.1,0.3,0.1,0.7,0.1,1C59.5,9.9,59.5,10.2,59.4,10.5L59.4,10.5z"/>
<path class="st0" d="M64.8,10.4c0.1,0.3,0.1,0.7,0,1c-0.1,0.3-0.1,0.5-0.2,0.8c-0.1,0.2-0.2,0.5-0.4,0.8c-0.2,0.3-0.3,0.6-0.6,0.8
	c-0.2,0.2-0.4,0.4-0.7,0.6c-0.2,0.1-0.5,0.2-0.8,0.1c0,0-0.1,0-0.1,0l-0.2-0.1c-0.1,0-0.1-0.1-0.2-0.1c-0.1,0-0.1-0.1-0.1-0.2
	L61.4,14c0-0.1,0-0.2,0-0.3c0-0.1,0-0.2,0-0.3c0-0.1,0.1-0.2,0.2-0.3l0.5-0.6c0.2-0.3,0.4-0.6,0.6-0.9c0.2-0.3,0.4-0.6,0.5-0.9
	c0.1-0.2,0.2-0.4,0.2-0.6c0-0.1-0.1-0.2-0.1-0.3c-0.1-0.1-0.2-0.2-0.3-0.3c-0.1-0.1-0.2-0.2-0.4-0.3c-0.1-0.1-0.2-0.1-0.4-0.2
	c-0.2,0.1-0.5,0-0.7-0.1c-0.2-0.1-0.3-0.3-0.4-0.5C61,8.2,61,8,61.1,7.8c0.1-0.2,0.4-0.4,0.6-0.5c0.1,0,0.2,0,0.2,0
	c0.1,0,0.2,0,0.2,0.1c0.5,0.3,1,0.6,1.3,0.9c0.4,0.2,0.6,0.6,0.8,1c0,0.1,0.1,0.1,0.1,0.2c0.1,0.1,0.1,0.2,0.2,0.3l0.2,0.3
	C64.7,10.2,64.8,10.3,64.8,10.4z M68.5,10.5c0,0.4,0,1,0.1,1.5c0,0.6,0,1.2-0.2,1.8c0,0.1-0.1,0.1-0.1,0.1c0,0,0,0,0,0h-0.2
	c-0.2,0-0.3-0.1-0.4-0.2c-0.1-0.1-0.2-0.2-0.3-0.4c0-0.3,0-0.6,0-1s0-0.7,0-1s0-0.7,0-1s0-0.6,0-0.9c0-0.3,0-0.7-0.1-1L67,7.8
	C67,7.7,67,7.6,67,7.4c0-0.1,0.1-0.1,0.3-0.2s0.2,0.1,0.3,0.2c0.1,0.2,0.2,0.4,0.3,0.6c0.1,0.2,0.2,0.5,0.3,0.7
	c0.1,0.2,0.1,0.4,0.1,0.5c0,0,0,0.1,0,0.2s0,0.2,0.1,0.3s0.1,0.3,0.1,0.4C68.6,10.4,68.6,10.4,68.5,10.5z"/>
<path class="st0" d="M14.7,5c0.1,0.2,0.2,0.5,0.3,0.8c0,0.1,0.2,0.7,0.3,0.9c0.1,0.3,0.2,0.6,0.4,0.8c0.1,0.1,0.2,0.2,0.4,0.2
	c0.1,0,0.2,0.1,0.3,0.2c0-0.2,0-0.5-0.1-0.7c-0.1-0.2-0.3-0.3-0.5-0.3c-0.2,0-0.3-0.2-0.4-0.3C15.2,6,15,5.4,14.7,4.9
	C14.7,4.9,14.6,4.8,14.7,5z"/>
<path class="st0" d="M15.8,8.3c0.1,0.1,0.2,0.2,0.4,0.2c0.1,0,0.2,0.1,0.3,0.2c0-0.2,0-0.5-0.1-0.7c-0.1-0.2-0.3-0.3-0.5-0.3
	c-0.1,0-0.2-0.1-0.3-0.2C15.5,7.3,15.6,8.2,15.8,8.3z"/>
<path class="st0" d="M16,8.9C16.1,9,16.2,9,16.3,9.1c0.1,0,0.2,0.1,0.2,0.1c0-0.2,0-0.3-0.1-0.5c-0.1-0.1-0.3-0.2-0.4-0.2
	c-0.1,0-0.1-0.1-0.2-0.1C15.7,8.3,15.8,8.8,16,8.9z"/>
<path class="st0" d="M15.2,5.7c0,0.2,0.2,0.8,0.3,0.9c0.1,0.1,0.2,0.2,0.4,0.2c0.1,0,0.2,0.1,0.3,0.2c0-0.2,0-0.5-0.1-0.7
	c-0.1-0.2-0.3-0.3-0.5-0.3C15.4,6.1,15.4,6,15.2,5.7c-0.1-0.9-0.4-1.6-0.8-2.3c0,0-0.1-0.1,0,0.1c0.2,0.4,0.4,0.9,0.5,1.3
	C14.9,5,15.1,5.6,15.2,5.7z"/>
<path class="st0" d="M14.6,3.5c0,0.1,0.3,0.7,0.3,0.9C15,4.9,15.2,5.5,15.4,6c0.1,0.1,0.2,0.1,0.3,0.2c0.1,0,0.2,0.1,0.3,0.2
	c0-0.2-0.1-0.5-0.1-0.7c-0.1-0.2-0.3-0.3-0.5-0.4c-0.1,0-0.2-0.4-0.3-0.7C15,3.7,14.6,2.9,14,2.2c0,0-0.2-0.2,0,0
	C14.3,2.6,14.5,3,14.6,3.5z"/>
<path class="st0" d="M16.8,7.3c-0.2,0.1-0.3,0.3-0.4,0.5c0,0.2,0,0.5,0.1,0.7c0-0.1,0.1-0.2,0.2-0.3C16.8,8,16.9,7.9,17,7.8
	c0.1-0.3,0.2-0.6,0.2-0.9c0-0.2,0-0.8,0-0.9c0-0.3,0-0.5,0-0.8c0-0.2,0-0.1,0-0.1C17,5.7,17,6.2,17,6.8C17,7,16.9,7.2,16.8,7.3z"/>
<path class="st0" d="M16.7,8.9c0.1-0.1,0.2-0.1,0.3-0.2c0.2-0.2,0.1-0.9,0.1-0.8C17.1,7.9,17,8,16.9,8c-0.2,0.1-0.3,0.2-0.4,0.4
	c0,0.2,0,0.5,0,0.7C16.6,9,16.6,8.9,16.7,8.9z"/>
<path class="st0" d="M16.6,6.5c-0.2,0.1-0.3,0.3-0.4,0.5c0,0.2,0,0.5,0.1,0.7c0-0.1,0.1-0.2,0.2-0.3c0.1-0.1,0.2-0.2,0.3-0.3
	c0.1-0.2,0-0.8,0-1s0-0.8,0-0.9s0-1.2,0.1-1.4s0-0.1,0-0.1c-0.2,0.8-0.3,1.6-0.1,2.4C16.8,6.3,16.7,6.4,16.6,6.5z"/>
<path class="st0" d="M16.5,5.6c-0.1,0.2-0.3,0.3-0.3,0.6c0,0.2,0,0.5,0.1,0.7c0-0.1,0.1-0.2,0.2-0.3c0.1-0.1,0.2-0.2,0.2-0.3
	c0.1-0.5,0-1-0.1-1.5c0-0.2-0.2-1.1-0.3-1.6c-0.1-0.4-0.1-0.8-0.1-1.3c0-0.2,0,0,0,0c-0.2,0.5,0.2,1.8,0.4,3.1
	C16.5,5.3,16.5,5.5,16.5,5.6z"/>
<path class="st0" d="M16,4.2c0.1,0.3,0.1,0.5,0.1,0.6C16,5,15.9,5.2,15.9,5.5c0,0.2,0.1,0.4,0.2,0.6c0-0.1,0.1-0.2,0.2-0.3
	c0.1-0.1,0.1-0.2,0.2-0.3c0-0.5-0.1-1.1-0.3-1.6c0-0.2-0.2-0.9-0.2-1c-0.1-0.4-0.4-1.9-0.5-2.1s-0.1,0-0.1,0C15.5,2,15.7,3.1,16,4.2
	z"/>
<path class="st0" d="M16,17.1c0.4-1.2,0.6-2.4,0.6-3.7c0,0,0-0.1,0-0.1l0.1-1.7c0,0,0-1.4,0-1.8c0.1-0.2,0.2-0.4,0.3-0.5
	c0.2-0.2,0.2-0.8,0.1-0.7S17,8.8,17,8.8c-0.2,0.1-0.3,0.2-0.4,0.4c0,0.1,0,0.2,0,0.3c0,0,0-0.1,0-0.1c-0.1-0.1-0.2-0.2-0.4-0.3
	c-0.1,0-0.2-0.1-0.3-0.2c-0.1-0.1,0.1,0.4,0.3,0.5c0.1,0.1,0.2,0.2,0.3,0.3c0.1,0.2,0.1,0.5,0.1,0.7c0,0.4,0,1.1,0,1.1v0.3
	c-0.1-0.8-0.3-1.5-0.5-2.3c-0.4-1-0.8-1.9-1.3-2.8c-0.2-0.3-0.4-0.6-0.7-0.8c-0.2-0.2-0.5-0.4-0.8-0.5c0.4,0.3,0.7,0.6,1,1
	c0.2,0.4,0.5,0.8,0.7,1.1c0.2,0.5,0.4,1,0.6,1.5c0.1,0.3,0.4,1.4,0.5,1.8c0.1,0.6,0.2,1.1,0.3,1.7c0,0.4,0.1,1.2,0.1,1.5v0.1
	c-0.1-0.3-0.2-1-0.3-1.1c-0.1-0.3-0.2-0.5-0.4-0.8c-0.2-0.2-0.4-0.4-0.7-0.6c0.4,0.5,0.7,1,0.8,1.6c0.1,0.6,0.4,1.4,0.5,1.9
	c0,0.1,0,0.2,0,0.3c-0.1,0.4-0.2,0.7-0.3,1.1c-0.1,0.1-0.1,0.5,0,0.5S16.1,17.1,16,17.1c0.1,0,0.2-0.3,0.2-0.6"/>
<path class="st0" d="M14.4,2.3L14.7,3c0,0.1,0.2,0.7,0.2,0.8s0.2,0.8,0.2,0.9c0,0.2,0.1,0.4,0.2,0.6c0.1,0.1,0.3,0.2,0.5,0.3
	c0,0,0-0.4,0-0.5s-0.2-0.3-0.3-0.4c-0.1-0.1-0.2-0.2-0.3-0.3c0-0.1-0.1-0.5-0.2-0.7s-0.2-0.8-0.3-1s-0.2-0.5-0.3-0.6
	c-0.1-0.2-0.2-0.4-0.4-0.6c0-0.1-0.2-0.3-0.3-0.4s-0.1,0,0,0s0.3,0.5,0.4,0.6S14.4,2.2,14.4,2.3z"/>
<path class="st0" d="M14.3,0.1c0,0,0.2,0.5,0.3,0.6s0.3,0.9,0.4,1s0.3,1.1,0.4,1.1s0.2,1,0.3,1.1c0,0.1,0,0.3,0,0.4
	c0,0.1,0,0.3,0.1,0.4c0.1,0.1,0.3,0.2,0.4,0.3l0.1-0.2c0-0.1,0-0.3,0-0.4C16,4.2,16,4.1,15.9,4c-0.1-0.1-0.1-0.2-0.2-0.3
	c0-0.1-0.4-1.4-0.4-1.5S15,1.4,14.9,1.2S14.4,0.1,14.3,0.1C14.3,0,14.2,0,14.3,0.1z"/>
<path class="st0" d="M3.3,12.2c0,0.1,0,0.3,0,0.4c0,0.1-0.1,0.2-0.2,0.3c-0.2,0-0.5,0-0.7,0c-0.2,0-0.4-0.1-0.5-0.2
	c-0.4-0.5-0.7-1-0.9-1.5c-0.3-0.5-0.5-1.1-0.7-1.7C0.1,9,0,8.4,0,7.8c0-0.5,0-0.9,0.2-1.4C0.3,6.2,0.4,6.1,0.7,6
	c0.2-0.1,0.4-0.1,0.7,0c0.1,0.5,0.2,1,0.2,1.5s0.2,1,0.3,1.5s0.2,0.9,0.3,1.2c0.1,0.3,0.2,0.5,0.4,0.7c0,0.1,0,0.2,0.1,0.3
	c0.1,0.1,0.1,0.2,0.2,0.4s0.2,0.2,0.2,0.4C3.2,12,3.2,12.1,3.3,12.2z M7.3,14.9c0.1,0.2,0.2,0.4,0.2,0.6c0,0.3-0.1,0.4-0.3,0.5
	c-0.3,0.1-0.5,0.1-0.8,0.1c-0.4,0-0.8,0-1.2,0s-0.9,0-1.4,0c-0.5,0-0.9,0.1-1.3,0.3c-0.1,0-0.2,0.1-0.3,0.1c-0.2,0-0.3,0-0.4-0.1
	c-0.1,0-0.1-0.1-0.1-0.1c0-0.1,0-0.1,0-0.2c0-0.1,0.1-0.3,0.2-0.3c0.1-0.1,0.3-0.3,0.5-0.4l0.6-0.4c0.2-0.1,0.4-0.3,0.5-0.4
	c0.1-0.1,0.2-0.2,0.3-0.3C3.7,14,3.9,13.8,4,13.6c0.2-0.2,0.3-0.5,0.4-0.7c0.1-0.2,0.2-0.4,0.2-0.7C4.3,12,4,11.8,3.7,11.6
	c-0.3-0.2-0.6-0.6-0.7-0.9c0,0,0-0.1,0-0.1c0.1,0,0.1-0.1,0.2-0.1c0.1-0.2,0.2-0.4,0.4-0.5C3.8,9.8,4,9.7,4.3,9.6
	C4.5,9.5,4.8,9.4,5,9.3c0.2,0,0.4,0,0.6,0c0-0.1,0-0.2,0-0.4c0-0.2,0-0.3,0-0.5s0-0.4-0.1-0.5c0-0.2-0.1-0.3-0.1-0.5
	C5.3,7.4,5.2,7.3,5.2,7.1c0-0.1,0-0.2,0-0.3c0-0.1,0.1-0.2,0.2-0.3c0.1-0.1,0.1-0.2,0.2-0.3c0.2,0,0.4,0.1,0.6,0.3
	c0.2,0.2,0.4,0.4,0.5,0.7C6.7,7.6,6.8,8,6.9,8.5C7,8.9,7,9.4,7,9.8c0,0.5-0.1,0.9-0.3,1.3C6.5,11.6,6.3,12,6,12.3
	c-0.1,0.1-0.3,0.3-0.3,0.4c-0.1,0.2-0.2,0.4-0.3,0.6L4.9,14c-0.1,0.2-0.3,0.5-0.4,0.7c0.4-0.1,0.8-0.1,1.2,0c0.4,0,0.8,0.1,1.2,0.2
	c0,0,0.1,0.1,0.2,0.1S7.2,14.9,7.3,14.9L7.3,14.9z M5.6,9.9c-0.2,0-0.3,0-0.5,0c-0.2,0-0.4,0.1-0.5,0.2c-0.2,0.1-0.3,0.1-0.4,0.2
	c-0.1,0.1-0.2,0.1-0.2,0.1l0.2,0.1l0.3,0.2L4.8,11L5,11.1c0.2-0.1,0.4-0.2,0.4-0.4C5.5,10.4,5.6,10.2,5.6,9.9L5.6,9.9z"/>
<path class="st0" d="M23,10.8c0.1,0.2,0.1,0.5,0,0.7c0,0.2-0.1,0.4-0.1,0.6s-0.1,0.2-0.4,0.5c-0.3,0.3-0.6,0.5-1,0.7
	c-0.3,0.1-0.7,0.2-1,0.2c-0.4,0-0.8-0.1-1.1-0.3h-0.1c0,0-0.1,0-0.1-0.1c-0.2-0.3-0.4-0.7-0.5-1c-0.2-0.4-0.3-0.8-0.4-1.3
	c-0.1-0.4-0.1-0.8-0.1-1.2c0-0.4,0.2-0.7,0.5-0.9c0.1-0.1,0.2,0,0.4,0.1s0.1,0.2,0.1,0.3s0,0.1,0.1,0.3s0,0.2,0.1,0.4
	s0.1,0.4,0.1,0.7s0.1,0.5,0.1,0.7c0,0.2,0.1,0.5,0.2,0.6c0.3,0,0.5,0,0.8-0.1c0.3-0.1,0.7-0.2,1-0.3l0.9-0.4
	C22.6,10.9,22.8,10.8,23,10.8z M25.4,8.6c0,0.2,0,0.4,0,0.7c0,0.3,0,0.6,0,0.8c0,0.3,0,0.5-0.1,0.8c0,0.2-0.1,0.3-0.2,0.5
	c-0.1,0-0.1,0-0.2,0c-0.1,0-0.2-0.1-0.2-0.1L24.6,11c0-0.1-0.1-0.1-0.1-0.2c0-0.1,0-0.2,0.1-0.3c0-0.1,0.1-0.3,0.1-0.5
	c0-0.2,0.1-0.4,0.1-0.6c0-0.2,0-0.3,0-0.5c-0.1,0-0.3,0-0.4,0.1c-0.2,0.1-0.4,0.1-0.5,0.2l-0.6,0.3c-0.1,0.1-0.3,0.1-0.4,0.2
	c-0.1,0-0.1,0-0.2,0c-0.1,0-0.2,0-0.3-0.1c-0.1,0-0.2-0.1-0.2-0.1c-0.1,0-0.1-0.1-0.1-0.1c0.1-0.2,0.3-0.4,0.5-0.5
	c0.2-0.1,0.5-0.2,0.7-0.3L24,8.5c0.2-0.1,0.4-0.1,0.6-0.3h0.2c0.1,0,0.2,0,0.2,0.1c0.1,0,0.2,0.1,0.2,0.1
	C25.3,8.4,25.4,8.5,25.4,8.6L25.4,8.6z M27.8,14.4c0,0.1-0.1,0.1-0.2,0.2c-0.1,0.1-0.3,0.1-0.5,0.1c-0.2,0-0.4-0.1-0.5-0.2
	c-0.2-0.2-0.3-0.4-0.4-0.7c0-0.2,0-0.4,0-0.6c0-0.3,0.1-0.6,0.1-1s0.1-0.8,0.1-1.2c0-0.4,0.1-0.9,0.1-1.3c0-0.4,0-0.8-0.1-1.2
	c0-0.3-0.1-0.7-0.3-1c0.1-0.1,0.3-0.1,0.4-0.1c0.2,0,0.4,0.1,0.4,0.3c0.2,0.5,0.4,1.1,0.6,1.6c0.1,0.5,0.2,1.1,0.3,1.7
	c0,0.6,0,1.1,0,1.7C27.9,13.3,27.9,13.9,27.8,14.4L27.8,14.4z"/>
<path class="st0" d="M14.3,10.9c-0.8,1.1-2,2-3.4,2.4c-0.2-0.7,0-1.5,0.5-2c0.3-0.3,0.8-0.5,1-0.8s0-0.8-0.1-1.1
	C12.2,8.5,11.4,8,10.6,8c-0.5-0.1-1-0.1-1.5-0.1c-0.3,0-1,0-1.2,0.2C7.6,8.3,9,9.2,9.3,9.3s0.6,0,0.8,0s0.3,0.4,0.3,0.8
	c-0.2,1-0.7,0.7-1.4,1c-0.3,0.1-0.3,0.1-0.3,0.4s0,0.4,0.1,0.5s0.3-0.1,0.5-0.1c0,0.4-0.1,0.8-0.1,1.2c0,0.5,0.1,1,0.2,1.5
	c0,0.2,0.1,0.6,0.3,0.7s0.3-0.1,0.4-0.1c0.3,0,0.7-0.1,1-0.2c1-0.6,1.9-1.2,2.7-2.1c0.5-0.3,0.9-0.8,1.2-1.3
	c0.2-0.3,0.3-0.5,0.5-0.8c0-0.3-0.1-0.7-0.3-1C14.9,10.2,14.6,10.6,14.3,10.9z"/>
</svg>
