<svg id="레이어_1" data-name="레이어 1" xmlns="http://www.w3.org/2000/svg" viewBox="0 0 9.86 10.12"><defs><style>.cls-1{fill:#c30d23;}.cls-2{fill:#fff;}</style></defs><rect class="cls-1" x="634.92" y="423.37" width="7.28" height="7.28" transform="translate(-737.92 -190.82) rotate(-18.99)"/><path class="cls-1" d="M643.51,429.12s.06,0,.07,0S643.49,429.13,643.51,429.12Z" transform="translate(-633.72 -421.87)"/><polygon class="cls-1" points="9.43 6.62 9.45 6.63 9.36 6.55 9.43 6.62"/><path class="cls-1" d="M642.93,427.86c-.08.1.09.23.1.35l0,0,.1,0A1.71,1.71,0,0,1,642.93,427.86Z" transform="translate(-633.72 -421.87)"/><path class="cls-1" d="M643,427.46s0-.06,0,.08v0Z" transform="translate(-633.72 -421.87)"/><path class="cls-1" d="M643,427.52" transform="translate(-633.72 -421.87)"/><path class="cls-1" d="M642.92,427.22l.06.08s0-.1,0-.08S642.94,427.16,642.92,427.22Z" transform="translate(-633.72 -421.87)"/><path class="cls-1" d="M642.82,427.17l0,0A0,0,0,0,0,642.82,427.17Z" transform="translate(-633.72 -421.87)"/><path class="cls-1" d="M642.91,427.29l-.06-.08s0,0,0,0S642.88,427.26,642.91,427.29Z" transform="translate(-633.72 -421.87)"/><path class="cls-1" d="M642.92,427.35c0,.06,0,.13-.06,0C642.93,427.56,643,427.51,642.92,427.35Z" transform="translate(-633.72 -421.87)"/><path class="cls-1" d="M642.82,427.87v.07l.05.05S642.85,427.85,642.82,427.87Z" transform="translate(-633.72 -421.87)"/><path class="cls-1" d="M642.78,426.67s0,0-.07.06l0,.06S642.75,426.68,642.78,426.67Z" transform="translate(-633.72 -421.87)"/><path class="cls-1" d="M642.71,426.73l-.07-.09C642.67,426.73,642.69,426.74,642.71,426.73Z" transform="translate(-633.72 -421.87)"/><polygon class="cls-1" points="8.99 5.32 9.12 5.45 8.97 5.29 8.99 5.32"/><polygon class="cls-1" points="8.94 4.42 9.01 4.46 8.9 4.39 8.94 4.42"/><path class="cls-1" d="M642.57,426.06s0-.08.08-.05a.47.47,0,0,0-.13-.15A.3.3,0,0,1,642.57,426.06Z" transform="translate(-633.72 -421.87)"/><path class="cls-1" d="M642.45,425.79l.07.07Z" transform="translate(-633.72 -421.87)"/><path class="cls-1" d="M642.6,426.48a.14.14,0,0,0,0-.1l0,.06Z" transform="translate(-633.72 -421.87)"/><path class="cls-1" d="M642.58,426.44h0l0-.08Z" transform="translate(-633.72 -421.87)"/><path class="cls-1" d="M642.6,426.49h0Z" transform="translate(-633.72 -421.87)"/><path class="cls-1" d="M642.67,426.92c0-.05-.13-.15-.14,0S642.59,426.85,642.67,426.92Z" transform="translate(-633.72 -421.87)"/><path class="cls-1" d="M642.54,426.56l0,.11s0,0,0,0Z" transform="translate(-633.72 -421.87)"/><polygon class="cls-1" points="8.79 4.64 8.82 4.69 8.82 4.65 8.79 4.64"/><path class="cls-1" d="M642.45,426a.39.39,0,0,1-.08-.14,1,1,0,0,0,0,.18S642.48,426.05,642.45,426Z" transform="translate(-633.72 -421.87)"/><path class="cls-1" d="M642.51,426.21h0Z" transform="translate(-633.72 -421.87)"/><polygon class="cls-1" points="8.47 3.44 8.46 3.45 8.47 3.45 8.47 3.44"/><path class="cls-1" d="M642.41,426.05a.08.08,0,0,0,.05.08l-.05-.1S642.4,426,642.41,426.05Z" transform="translate(-633.72 -421.87)"/><path class="cls-1" d="M642.37,425.65a.28.28,0,0,0,0,.09S642.39,425.65,642.37,425.65Z" transform="translate(-633.72 -421.87)"/><path class="cls-1" d="M642.52,426.18h0S642.52,426.17,642.52,426.18Z" transform="translate(-633.72 -421.87)"/><path class="cls-1" d="M642.52,426.18l-.06-.05a.43.43,0,0,0,0,.07Z" transform="translate(-633.72 -421.87)"/><path class="cls-1" d="M641.76,425.28s.14.09.12.21.23,0,.3-.16,0,0-.11-.08,0,.25-.07.18,0-.12,0-.19-.15-.14-.24-.08l.07.11S641.76,425.24,641.76,425.28Z" transform="translate(-633.72 -421.87)"/><path class="cls-1" d="M642.24,425.52l0,0a.37.37,0,0,1,0-.17c0-.06-.07-.07-.09-.07l.06.21Z" transform="translate(-633.72 -421.87)"/><path class="cls-1" d="M642.32,425.75c-.07,0-.12-.11-.17,0s.08.07.13.14c-.08-.19.05,0,0-.11a.47.47,0,0,1,0,.1s0-.07,0-.11h0c0-.07,0,0,0,0h0l-.1-.18Z" transform="translate(-633.72 -421.87)"/><path class="cls-1" d="M642.37,426.84h0S642.36,426.81,642.37,426.84Z" transform="translate(-633.72 -421.87)"/><path class="cls-1" d="M642.38,426.74a.1.1,0,0,1,0,.07s0,0,0,0,.08.08.08,0h0c0-.09,0-.21,0-.2A.31.31,0,0,0,642.38,426.74Z" transform="translate(-633.72 -421.87)"/><path class="cls-1" d="M642.33,426.24l-.08-.15,0,.1h0C642.28,426.27,642.31,426.24,642.33,426.24Z" transform="translate(-633.72 -421.87)"/><polygon class="cls-1" points="8.49 3.41 8.56 3.41 8.44 3.35 8.49 3.41"/><polygon class="cls-1" points="8.41 3.2 8.47 3.19 8.41 3.15 8.41 3.2"/><path class="cls-1" d="M635.06,427l0,0A.11.11,0,0,0,635.06,427Z" transform="translate(-633.72 -421.87)"/><path class="cls-1" d="M634.94,426.63h0S635,426.65,634.94,426.63Z" transform="translate(-633.72 -421.87)"/><path class="cls-1" d="M638.27,422.88c-.09,0-.19-.08-.16,0l0,.05A.18.18,0,0,1,638.27,422.88Z" transform="translate(-633.72 -421.87)"/><path class="cls-1" d="M634.8,424.47h0l0-.08Z" transform="translate(-633.72 -421.87)"/><path class="cls-1" d="M634.84,424.73h0Z" transform="translate(-633.72 -421.87)"/><path class="cls-1" d="M635.78,428.87l.08,0C635.83,428.82,635.81,428.87,635.78,428.87Z" transform="translate(-633.72 -421.87)"/><path class="cls-1" d="M641.35,422.9a.33.33,0,0,0,0-.1v0a.43.43,0,0,1,0,0A.06.06,0,0,0,641.35,422.9Z" transform="translate(-633.72 -421.87)"/><path class="cls-1" d="M634.38,427.06s0,0,.06,0S634.4,427.05,634.38,427.06Z" transform="translate(-633.72 -421.87)"/><path class="cls-1" d="M641.22,422.4a.17.17,0,0,1,0,.07,1.3,1.3,0,0,1,.1.23A.52.52,0,0,0,641.22,422.4Z" transform="translate(-633.72 -421.87)"/><path class="cls-1" d="M640.47,429.82h0Z" transform="translate(-633.72 -421.87)"/><path class="cls-1" d="M642.69,429.73l-.08,0Z" transform="translate(-633.72 -421.87)"/><path class="cls-1" d="M641.86,424.21" transform="translate(-633.72 -421.87)"/><path class="cls-1" d="M641.7,424.51s0,0,0,0Z" transform="translate(-633.72 -421.87)"/><path class="cls-1" d="M640.66,422.44Z" transform="translate(-633.72 -421.87)"/><path class="cls-1" d="M641.85,424.28a.06.06,0,0,0,0-.06Z" transform="translate(-633.72 -421.87)"/><path class="cls-1" d="M641.88,424.26v.05S641.9,424.3,641.88,424.26Z" transform="translate(-633.72 -421.87)"/><path class="cls-1" d="M641.83,424.14a.24.24,0,0,1,0,.08h0Z" transform="translate(-633.72 -421.87)"/><path class="cls-1" d="M636.81,431.26h0S636.84,431.23,636.81,431.26Z" transform="translate(-633.72 -421.87)"/><polygon class="cls-1" points="3.58 2.02 3.59 2.02 3.58 2.02 3.58 2.02"/><path class="cls-1" d="M637.16,424c0-.1.08-.11.14-.11l-.11-.15Z" transform="translate(-633.72 -421.87)"/><path class="cls-1" d="M635.36,427.81l0-.13c.13.11.14.22.18.09-.2,0-.18-.44-.37-.39l0-.09s0,0,0,0c0-.18-.17-.06-.21-.26s0-.12,0-.09l-.1-.13s0,0,0,0l-.09-.22h0l-.14-.1c0-.07,0,0,.05,0l-.09-.1c0-.07.12,0,.14.1.14-.18-.08-.08-.06-.37l.06.11c.08-.11,0-.19,0-.34,0,0-.07.32-.16.2a.2.2,0,0,0-.08-.16c.07,0,0-.08,0-.17l.09,0c0-.08-.1-.06-.15-.1a.17.17,0,0,1,.08-.2c0-.18-.07.15-.16,0a.59.59,0,0,0-.06-.2l0-.05,0,0-.06,0s.07,0,.09,0l-.09-.05h0s-.1,0-.15-.1-.05-.05,0-.07.19,0,.18,0,0,0,.07.07a.26.26,0,0,1,0-.09l0,0,.06-.08h.16c-.12,0,0-.15.07-.25l-.11-.05.17-.11s0,.05,0,.09l0,0c.08,0,.06.07,0,.14l-.08,0a.22.22,0,0,0,0,.19l.05-.05s0,0,0,0,0,0,0-.05l.08.08v0l.26,0a1.61,1.61,0,0,1,.49-.48c0,.09,0,.12,0,.2s-.19.11-.34.14c.08,0,.08,0,.06.05l.22-.16c0,.07.07,0,.15,0-.1-.12.15-.16.24-.24s0,.1-.11.14c.17.05.12-.23.28-.19,0,0,0,0,0,0s.24-.09.21,0l0,0c.21-.06.62-.21.61-.34a1,1,0,0,1,0,.18l.23-.52c0,.11.2.31.06.42a.28.28,0,0,0,.2-.07s-.13-.12-.09-.14a1.23,1.23,0,0,0,.29.07c-.05,0-.05-.18,0-.2s.06.15,0,.18l.14-.22s0,.13.1.16.16-.06.21-.09h-.09c.22-.05.14-.29.36-.35,0,0,0,.21.11.2s.1-.46.27-.58l0,0,.13-.1a3.18,3.18,0,0,1-.33.63c.09,0,0,0,.16,0s0,.08-.08.1l.3-.07c-.05-.09.18-.17.14-.24l-.27.2c-.05-.09.09-.32.29-.38s0,.18,0,.21.17-.13.19-.11l-.07.08c.13,0,.14-.19.31-.14s.18.07.17,0a.8.8,0,0,1-.22-.49,1.27,1.27,0,0,1,.35.05c.11.05,0,.23,0,.28a.25.25,0,0,1,0-.09c.06,0,0,.09.11,0s.22-.07,0-.1a.21.21,0,0,1,.11,0,.15.15,0,0,0,.09,0,.15.15,0,0,1,0-.15.77.77,0,0,1,.18-.18s0,.06,0,.07l.14,0c0,.14.05.25.09.38s0,.12-.06.11,0,0,.08.08,0,0,0,0,0-.05-.08,0,.13.13.2.21,0-.08,0-.14a.5.5,0,0,0-.11-.13c.11-.06.29.06.41.24s0,.1,0,.12c.08.32.29.2.29.48s-.14.06-.19.1c-.07-.13,0-.22-.05-.31v.12a.23.23,0,0,1-.08-.17c0,.1.16.52.18.78,0,0,.09.1.11.05l0-.07c0-.09.13.12.12,0a.62.62,0,0,1,.2.33l-.08.06s0-.11,0-.14,0,.25.09.28l0-.12c.08.09.21.18.22.32.07-.09,0,0,.05-.15-.09.12-.11-.32-.19-.16.08-.13,0-.17.05-.32,0,0,0,.06-.06-.05l0,0h0a.12.12,0,0,1,0,.07c-.08,0-.14-.2-.19-.24s0,0,.06,0l-.08-.07c.06,0,0-.2.13-.07l0-.13a.38.38,0,0,0-.07-.26c0-.07-.12-.14,0-.1l-.11-.2h0a2.12,2.12,0,0,0-.14-.31s0-.05,0-.08v0l0-.06a2.34,2.34,0,0,1,0-.3,1.74,1.74,0,0,1-.16-.41l0-.1a.19.19,0,0,1,0-.09c-.15.05-.37.08-.43.15s-.28,0-.5.09a2.33,2.33,0,0,1-.31.13l0,.07a1.42,1.42,0,0,0-.33.16l0,.06c-.1.09-.31.06-.49.13,0,0,.05,0,.09,0-.27-.06-.43.26-.66.23a.15.15,0,0,1-.12,0h0a.56.56,0,0,0-.15.08l0-.06h0c-.07,0,0,0,0,.08a.13.13,0,0,0-.06.07c-.08-.09-.14.08-.24,0,0,.07-.27.14-.26.27s0,0,0,0a.31.31,0,0,0-.18.07l0-.08-.1.16c-.1,0-.15,0-.09-.13-.16.17-.15.09-.28.25v-.06c-.06,0-.14.13-.19.1s-.68.22-1.06.24c.12.14-.19,0-.16.12,0,0-.09,0,0-.09-.17.1-.29,0-.38.18,0,0,0-.07,0-.09s0,.06-.07,0,0,0,0-.07c-.18.07-.16.2-.13.31s-.16,0-.2.1-.11-.05,0-.1l-.23.06-.06,0-.07,0q-.08,0-.06.06a.2.2,0,0,0-.14.06c-.19.06-.22.06-.4.13h.07s0,.05,0,.07,0,.1,0,.19h0a.44.44,0,0,0,.06.24.5.5,0,0,1,0,.25l.06,0c.15,0,0,.26.1.39l0-.07c.08.07-.11.29-.1.38s0,0,0,0c0,.24.1,0,.17.15s-.13,0-.1.11.25.26.22.44c0-.05,0-.09.1,0s0,.36.12.42l0,0c0,.08.14.26.22.3-.2.15.29.5.09.57l.1.26h0a.37.37,0,0,0,.19.26s0,0,0,0a.58.58,0,0,0,.23.46l-.06.05c.06,0,0,.39.19.61a0,0,0,0,1,0,0c.17.25,0,.72.32.74l.12.16c-.06-.24.12,0,.12-.11,0,.08,0,.26,0,.15v0c-.15,0,0,.31,0,.33s.05.15.08.22l.07.26c.07.23.13.45.2.66l.73-.22-.1-.08.19-.06s.08.06,0,.09c.08,0,.17-.11.16-.13.23,0,0,.15,0,.13l.09,0h0c.05-.06,0-.11.18-.15s.06.05.09,0,0,0,0,0l.19-.06-.1-.05c.07-.07.18-.06.06-.12.18.1.73-.19.82-.17a.77.77,0,0,1,.36-.18s-.09-.09,0-.12c0,.2.25,0,.4.1-.12-.06.34-.15.16-.22.11,0,0,.06.12.08.23-.16.56-.14.86-.27,0,0-.07,0,0-.1l.2.06c.06,0,0-.16.15-.11,0,0-.06,0,0-.06.64-.09,1.19-.52,1.87-.5-.1,0-.05-.05,0-.07s0-.06,0-.09h.28c0-.1.27-.1.27-.19l-.08,0c.08-.14-.22-.17-.25-.31-.08.16-.38-.06-.52.17,0,0,0-.05,0-.08s-.08.11-.2.12h0a4.7,4.7,0,0,1-.82.19l0,.06h-.14c0,.12.22-.07.17.06-.14-.09-.53.19-.65.06-.12,0,.06.06-.06.1l0,0v.06a.13.13,0,0,1-.15-.05s.05,0,.07,0-.28.12-.32.11h.12a9.59,9.59,0,0,0-1,.41l0,0c-.22.13-.2,0-.45.14h0a.37.37,0,0,1-.18.11c0-.06-.14,0-.07-.1-.24.15-.11.09-.24.27l-.06,0a.26.26,0,0,1-.16.15c.09-.08-.11-.05,0-.15-.31,0-.36.25-.54.13-.08.18.26,0,.2.05s-.07.14-.15.16-.21-.13-.43-.06l0,0c-.09,0-.14.1-.26.08s-.13,0-.11.15l.19-.09a1.79,1.79,0,0,0-.15.14.2.2,0,0,1-.09.06.27.27,0,0,1-.12,0,.3.3,0,0,1,.07-.1c-.07,0-.07.05-.12,0a.14.14,0,0,1,0-.07l.06,0a.55.55,0,0,0,.21-.12c-.08,0-.21.16-.19,0a.11.11,0,0,1,0,.09h0s-.06,0-.11.08l0-.08s0,.06-.06.06a.54.54,0,0,0,.05-.11c0,.06-.06,0-.06,0s0-.05,0,0a.06.06,0,0,1,0,.06s-.06.1,0,.14h0c-.05,0,0-.11,0-.17s.07-.12,0-.15,0,.08,0,.07a.11.11,0,0,1,0-.05.33.33,0,0,0,0-.06c-.09-.21,0,.06-.13,0s-.07-.1-.12-.18l.06,0c0-.26-.16,0-.18-.26l.12.07-.06-.11h.08a.38.38,0,0,1-.12-.28c0,.05-.13,0-.17-.08s.08,0,0-.14c0,0,.12,0,.08.13s0,0,.08,0a.66.66,0,0,0-.08-.26s0,.05,0,.07l-.17-.2s0,0,.07,0-.06-.06-.09-.13.11,0,.17.06l-.13-.19s0-.13.05-.11c0-.13-.2-.26-.21-.43a.12.12,0,0,1,0-.05c0-.15,0-.31-.16-.46l.07-.13c-.07-.13-.08.17-.19,0s.06-.09.06-.16-.22-.17-.19-.35A1.12,1.12,0,0,1,635.36,427.81Zm-.62-1.69s.09.08.06.12S634.73,426.19,634.74,426.12Zm.36-1.61s-.06,0-.11,0A.13.13,0,0,1,635.1,424.51Zm6.53-.78Zm0,.16h0s0,0,0-.08S641.63,423.85,641.66,423.89Zm-4.21,7.64h0C637.48,431.49,637.46,431.51,637.45,431.53Z" transform="translate(-633.72 -421.87)"/><path class="cls-1" d="M634.83,424.7l0,0S634.8,424.69,634.83,424.7Z" transform="translate(-633.72 -421.87)"/><polygon class="cls-1" points="2.05 6.99 2.05 7 2.06 7 2.05 6.99"/><path class="cls-1" d="M640.15,422.91h-.08S640.1,422.92,640.15,422.91Z" transform="translate(-633.72 -421.87)"/><path class="cls-1" d="M642.05,424.66l0-.09a.19.19,0,0,1,0,.1S642,424.63,642.05,424.66Z" transform="translate(-633.72 -421.87)"/><path class="cls-1" d="M641.94,425.66l0,0,0,0C642,425.62,641.93,425.59,641.94,425.66Z" transform="translate(-633.72 -421.87)"/><path class="cls-1" d="M641.86,424.83c-.05,0,0,.08,0,.15h0C642,425,641.91,424.89,641.86,424.83Z" transform="translate(-633.72 -421.87)"/><path class="cls-1" d="M641.89,425a.14.14,0,0,1,0,.07S641.91,425,641.89,425Z" transform="translate(-633.72 -421.87)"/><path class="cls-1" d="M641.76,424.07s.08,0,.06,0S641.66,423.91,641.76,424.07Z" transform="translate(-633.72 -421.87)"/><polygon class="cls-1" points="7.98 3.08 8.04 3.03 7.97 3.01 7.98 3.08"/><path class="cls-1" d="M641.56,424.39l0,.12s0,0,0,0S641.58,424.38,641.56,424.39Z" transform="translate(-633.72 -421.87)"/><path class="cls-1" d="M641.61,424.53s0,.07,0,.08A.35.35,0,0,0,641.61,424.53Z" transform="translate(-633.72 -421.87)"/><polygon class="cls-1" points="7.91 2.93 7.91 2.9 7.89 2.82 7.91 2.93"/><path class="cls-1" d="M641.17,423.2l-.06-.11s0,0,0,.08S641.15,423.23,641.17,423.2Z" transform="translate(-633.72 -421.87)"/><path class="cls-1" d="M641.11,423.63s0,0,0-.07l-.09,0Z" transform="translate(-633.72 -421.87)"/><path class="cls-1" d="M641,423.29s-.13-.15-.07,0C640.92,423.29,641,423.41,641,423.29Z" transform="translate(-633.72 -421.87)"/><polygon class="cls-1" points="6.16 0.87 6.19 0.86 6.14 0.72 6.16 0.87"/><path class="cls-1" d="M638.4,423.62c.16,0,0-.09.15-.1s-.12,0-.09,0S638.33,423.54,638.4,423.62Z" transform="translate(-633.72 -421.87)"/><path class="cls-1" d="M638.46,423.48l0,0Z" transform="translate(-633.72 -421.87)"/><polygon class="cls-1" points="9.33 7.81 9.43 7.81 9.36 7.79 9.33 7.81"/><path class="cls-1" d="M643.19,429.52l0,.08,0-.09S643.21,429.54,643.19,429.52Z" transform="translate(-633.72 -421.87)"/><path class="cls-1" d="M634.83,425.81h0s0,0,0,.09Z" transform="translate(-633.72 -421.87)"/><polygon class="cls-1" points="1.47 5.2 1.46 5.17 1.4 5.24 1.47 5.2"/><path class="cls-1" d="M635.65,428.07a.75.75,0,0,1-.06-.13C635.63,428,635.55,428.12,635.65,428.07Z" transform="translate(-633.72 -421.87)"/><path class="cls-2" d="M640.13,427.26s0,.17.1.2a.35.35,0,0,0,.09.06s0,0,.07.05a.75.75,0,0,0,0-.17.17.17,0,0,0-.13-.08.15.15,0,0,1-.09-.09,1.77,1.77,0,0,0-.15-.41s0,0,0,0a.76.76,0,0,1,.07.19S640.12,427.21,640.13,427.26Z" transform="translate(-633.72 -421.87)"/><path class="cls-2" d="M640.34,427.71a.11.11,0,0,1,.07.06.82.82,0,0,0,0-.18.23.23,0,0,0-.13-.08l-.06-.05s0,.18.06.2Z" transform="translate(-633.72 -421.87)"/><path class="cls-2" d="M640.29,427.82l.07,0s0,0,.06,0a.41.41,0,0,0,0-.12.14.14,0,0,0-.1,0l0,0S640.24,427.8,640.29,427.82Z" transform="translate(-633.72 -421.87)"/><path class="cls-2" d="M640.06,426.82s0,.17.05.21a.63.63,0,0,0,.09.24l.09.05a.11.11,0,0,1,.07.06.82.82,0,0,0,0-.18c0-.06-.1-.07-.12-.08s-.05,0-.07-.11a1.8,1.8,0,0,0-.22-.56s0,0,0,0S640,426.78,640.06,426.82Z" transform="translate(-633.72 -421.87)"/><path class="cls-2" d="M640.07,426.69a1.61,1.61,0,0,0,.12.39l.07,0s.06,0,.07.06a.75.75,0,0,0,0-.17.26.26,0,0,0-.12-.09s0-.09-.07-.17a1.29,1.29,0,0,0-.27-.61s0,0,0,0a2,2,0,0,1,.17.31S640.06,426.65,640.07,426.69Z" transform="translate(-633.72 -421.87)"/><path class="cls-2" d="M640.5,427.42a.22.22,0,0,0-.1.11.68.68,0,0,0,0,.18.12.12,0,0,1,.05-.08l.08-.07a.59.59,0,0,0,0-.23,1.61,1.61,0,0,0,0-.22,1.64,1.64,0,0,1,0-.2c0-.06,0,0,0,0a2,2,0,0,0,0,.44C640.57,427.37,640.52,427.4,640.5,427.42Z" transform="translate(-633.72 -421.87)"/><path class="cls-2" d="M640.57,427.56s0,.05,0,.06a.15.15,0,0,0-.09.09.6.6,0,0,0,0,.18.07.07,0,0,1,.05-.06.45.45,0,0,0,.07-.07C640.59,427.71,640.58,427.53,640.57,427.56Z" transform="translate(-633.72 -421.87)"/><path class="cls-2" d="M640.48,427.21a.21.21,0,0,0-.1.12.68.68,0,0,0,0,.18.12.12,0,0,1,.05-.08l.08-.08s0-.2,0-.25a1.62,1.62,0,0,1,0-.21c0-.05,0-.3,0-.36s0,0,0,0a1.59,1.59,0,0,0,0,.6C640.51,427.17,640.5,427.2,640.48,427.21Z" transform="translate(-633.72 -421.87)"/><path class="cls-2" d="M640.45,427c0,.05-.07.08-.09.15a.76.76,0,0,0,0,.17s0,0,.06-.07a.1.1,0,0,0,.05-.08,1,1,0,0,0,0-.39s-.05-.27-.07-.39a1.23,1.23,0,0,1,0-.31c0-.06,0,0,0,0a3.3,3.3,0,0,0,.08.78A.43.43,0,0,1,640.45,427Z" transform="translate(-633.72 -421.87)"/><path class="cls-2" d="M640.36,426.81a.24.24,0,0,0-.05.16.85.85,0,0,0,0,.17.1.1,0,0,1,0-.09l0-.06a1.33,1.33,0,0,0,0-.4s0-.23,0-.25-.08-.47-.09-.52,0,0,0,0a3.83,3.83,0,0,0,.12.83C640.37,426.73,640.38,426.78,640.36,426.81Z" transform="translate(-633.72 -421.87)"/><path class="cls-2" d="M639.87,426s.06.12.07.13l.07.16s.06.18.06.19,0,.19.06.22a.58.58,0,0,0,0,.16l.09.06.05-.11a.47.47,0,0,0-.1-.09s-.06,0-.07-.07l0-.16a1.53,1.53,0,0,0-.08-.26l-.08-.16a1.46,1.46,0,0,0-.09-.15l-.07-.09s0,0,0,0A.91.91,0,0,1,639.87,426Z" transform="translate(-633.72 -421.87)"/><path class="cls-2" d="M640,425.75l.1.25s.08.27.09.28.06.24.06.27a.14.14,0,0,1,0,.09.37.37,0,0,0,0,.08.73.73,0,0,1,.13.1l0,0a.22.22,0,0,0,0-.11.28.28,0,0,0-.05-.08s0,0,0-.06-.1-.34-.11-.37-.08-.22-.1-.28-.13-.27-.13-.28,0,0,0,0S640,425.73,640,425.75Z" transform="translate(-633.72 -421.87)"/><path class="cls-2" d="M641.26,427a2.19,2.19,0,0,0,.11-.19.94.94,0,0,1,.11-.17s0,0,0,0a3.43,3.43,0,0,0-.24.37.13.13,0,0,1-.11.06.2.2,0,0,0-.14,0,.64.64,0,0,0-.07.16.12.12,0,0,1,.08,0,.19.19,0,0,0,.1,0S641.24,427,641.26,427Z" transform="translate(-633.72 -421.87)"/><path class="cls-2" d="M641.14,427.13a.11.11,0,0,1-.07,0s-.1,0-.14,0a.59.59,0,0,0-.08.17s0,0,.09,0l.1,0S641.17,427.11,641.14,427.13Z" transform="translate(-633.72 -421.87)"/><path class="cls-2" d="M641,427.34l0,0a.12.12,0,0,0-.11,0,.48.48,0,0,0-.05.11s0,0,.06,0H641C641,427.44,641.05,427.32,641,427.34Z" transform="translate(-633.72 -421.87)"/><path class="cls-2" d="M641.67,426.22a1.73,1.73,0,0,0-.34.49.16.16,0,0,1-.1.09.2.2,0,0,0-.14.05.64.64,0,0,0-.07.16.12.12,0,0,1,.08,0,.26.26,0,0,0,.11,0s.11-.17.13-.21l.11-.18a2.73,2.73,0,0,1,.21-.3S641.67,426.22,641.67,426.22Z" transform="translate(-633.72 -421.87)"/><path class="cls-2" d="M641.81,425.94a1.39,1.39,0,0,0-.4.53c0,.07-.08.15-.1.15a.19.19,0,0,0-.14.06.44.44,0,0,0-.08.15.19.19,0,0,1,.09,0l.08,0a2,2,0,0,0,.21-.35l.12-.2a1.64,1.64,0,0,1,.23-.26S641.81,425.94,641.81,425.94Z" transform="translate(-633.72 -421.87)"/><path class="cls-2" d="M640.83,427.22a.12.12,0,0,1,0,.09.63.63,0,0,0,.06-.17.18.18,0,0,0-.07-.13.15.15,0,0,1,0-.12,2.06,2.06,0,0,0,.08-.44s0,0,0,0,0,.18,0,.2,0,.17-.05.21a.44.44,0,0,0,0,.23A.2.2,0,0,0,640.83,427.22Z" transform="translate(-633.72 -421.87)"/><path class="cls-2" d="M640.77,427.4a.07.07,0,0,1,0,.07,1.08,1.08,0,0,0,0-.17.22.22,0,0,0-.07-.12.11.11,0,0,1,0-.06s-.07.14,0,.2A.28.28,0,0,0,640.77,427.4Z" transform="translate(-633.72 -421.87)"/><path class="cls-2" d="M640.85,427a.36.36,0,0,0,0,.09.12.12,0,0,1,0,.09A1.1,1.1,0,0,0,641,427a.2.2,0,0,0-.07-.13.17.17,0,0,1,0-.13,1.39,1.39,0,0,0,.11-.59s0,0,0,0,0,.31-.06.36-.05.16-.07.2S640.83,426.9,640.85,427Z" transform="translate(-633.72 -421.87)"/><path class="cls-2" d="M641,426.86a.14.14,0,0,1,0,.09.63.63,0,0,0,.06-.17c0-.06,0-.11-.05-.16s0-.07,0-.15a3.2,3.2,0,0,0,.29-.72s0-.06,0,0a2,2,0,0,1-.1.3c-.06.11-.15.31-.17.35a1,1,0,0,0-.12.37A.11.11,0,0,0,641,426.86Z" transform="translate(-633.72 -421.87)"/><path class="cls-2" d="M641.21,426.24a1.76,1.76,0,0,0-.17.37l0,.08a.1.1,0,0,1,0,.09l.09-.15a.28.28,0,0,0,0-.18s0-.06.06-.14a4.59,4.59,0,0,0,.36-.76s0-.06,0,0l-.23.47Z" transform="translate(-633.72 -421.87)"/><path class="cls-2" d="M642,425.69l-.09.07-.13.12a1.34,1.34,0,0,1-.11.14,2.1,2.1,0,0,0-.14.24s-.07.12-.09.14a.15.15,0,0,1-.08.05s-.11,0-.11.07,0,.11,0,.11a.45.45,0,0,0,.13,0,.6.6,0,0,0,.09-.15l.1-.19.11-.17.11-.15.1-.11.13-.13S642,425.68,642,425.69Z" transform="translate(-633.72 -421.87)"/><path class="cls-2" d="M641.33,426.23a.13.13,0,0,1-.06,0s0,0-.06.07a.23.23,0,0,0,0,.09.1.1,0,0,1,0,0s.08,0,.11,0a.25.25,0,0,0,0-.1.24.24,0,0,1,0-.09l.13-.25.15-.25.15-.22a1.06,1.06,0,0,0,.1-.12s0,0,0,0-.16.19-.2.24-.15.22-.16.25S641.33,426.21,641.33,426.23Z" transform="translate(-633.72 -421.87)"/><path class="cls-2" d="M639.22,427.34a.76.76,0,0,1,.13.16l.14.17s.11.15.16.16a.23.23,0,0,0,.11,0,.09.09,0,0,1,.08,0,.52.52,0,0,0-.09-.15.18.18,0,0,0-.14,0,.15.15,0,0,1-.12,0,2.68,2.68,0,0,0-.28-.34S639.18,427.3,639.22,427.34Z" transform="translate(-633.72 -421.87)"/><path class="cls-2" d="M639.74,428l.11,0s.06,0,.09,0a1,1,0,0,0-.09-.15.22.22,0,0,0-.15,0,.09.09,0,0,1-.07,0S639.71,428,639.74,428Z" transform="translate(-633.72 -421.87)"/><path class="cls-2" d="M639.85,428.15h.08a.08.08,0,0,1,.07,0,.37.37,0,0,0-.07-.1.11.11,0,0,0-.11,0l-.06,0S639.79,428.14,639.85,428.15Z" transform="translate(-633.72 -421.87)"/><path class="cls-2" d="M639.38,427.47s.11.18.16.19l.11,0a.09.09,0,0,1,.08,0,.52.52,0,0,0-.09-.15.18.18,0,0,0-.14,0s-.06,0-.11-.08A1.48,1.48,0,0,0,639,427s0,0,0,0a1.5,1.5,0,0,1,.24.27A.84.84,0,0,1,639.38,427.47Z" transform="translate(-633.72 -421.87)"/><path class="cls-2" d="M639.07,427a1,1,0,0,1,.15.19,2.51,2.51,0,0,0,.25.32h.08a.12.12,0,0,1,.09,0,1,1,0,0,0-.09-.14.21.21,0,0,0-.15,0s-.07-.06-.12-.14a1.19,1.19,0,0,0-.46-.47s-.05,0,0,0A1.35,1.35,0,0,1,639.07,427Z" transform="translate(-633.72 -421.87)"/><path class="cls-2" d="M639.9,427.69a.17.17,0,0,0,0,.14.62.62,0,0,0,.07.16.12.12,0,0,1,0-.09.51.51,0,0,0,0-.1.47.47,0,0,0,0-.23s-.06-.19-.07-.2a1.24,1.24,0,0,1-.06-.2c0-.06,0,0,0,0a2.1,2.1,0,0,0,.12.42A.17.17,0,0,1,639.9,427.69Z" transform="translate(-633.72 -421.87)"/><path class="cls-2" d="M640,428.07l.05-.08c0-.07-.05-.24-.05-.2s0,0,0,.06a.14.14,0,0,0,0,.13.76.76,0,0,0,0,.16A.1.1,0,0,1,640,428.07Z" transform="translate(-633.72 -421.87)"/><path class="cls-2" d="M639.8,427.52a.17.17,0,0,0,0,.14.76.76,0,0,0,.08.16.16.16,0,0,1,0-.09.23.23,0,0,0,0-.1c0-.05-.06-.2-.08-.24s-.07-.18-.08-.2a2.75,2.75,0,0,1-.1-.34c0-.06,0,0,0,0a1.38,1.38,0,0,0,.17.57C639.82,427.47,639.81,427.5,639.8,427.52Z" transform="translate(-633.72 -421.87)"/><path class="cls-2" d="M639.68,427.33a.35.35,0,0,0,0,.16.49.49,0,0,0,.07.16s0,0,0-.09a.25.25,0,0,0,0-.1.94.94,0,0,0-.16-.35l-.2-.33a1.77,1.77,0,0,1-.14-.29c0-.06,0,0,0,0a3.46,3.46,0,0,0,.37.69A.43.43,0,0,1,639.68,427.33Z" transform="translate(-633.72 -421.87)"/><path class="cls-2" d="M639.46,427a.57.57,0,0,1,.07.13.27.27,0,0,0,0,.18,1,1,0,0,0,.1.13.15.15,0,0,1,0-.09.22.22,0,0,0,0-.08,1.2,1.2,0,0,0-.21-.34l-.13-.21c-.06-.08-.27-.4-.29-.44s0,0,0,0A5.07,5.07,0,0,0,639.46,427Z" transform="translate(-633.72 -421.87)"/><path class="cls-2" d="M641.63,426.85a2.48,2.48,0,0,0-.21.16,3.6,3.6,0,0,0-.49.59,4.14,4.14,0,0,0-.26.52v-.07s.05-.18.07-.27a.4.4,0,0,1,.07-.16.18.18,0,0,1,.08-.06c.06,0,.13-.13.11-.12a.23.23,0,0,1-.1,0s-.07,0-.11,0l0,0s0-.06,0-.08a.2.2,0,0,0-.08-.11.14.14,0,0,1,0-.07s0,.1,0,.17a.21.21,0,0,1,0,.15,3,3,0,0,1-.1.44l-.08.41a1.78,1.78,0,0,0-.08.44v-.41a3.86,3.86,0,0,1,0-.46s0-.07.08-.14.05-.19,0-.16,0,.06,0,.07a.16.16,0,0,0-.1.09s0,0,0,.07v0a.17.17,0,0,0-.1-.07s-.07,0-.09-.05,0,.1.07.13a.59.59,0,0,1,.08.08.74.74,0,0,1,0,.17c0,.1,0,.28,0,.28l0,.45v.21l0,0-.13-.4s-.13-.33-.15-.43a.28.28,0,0,1,0-.16c0-.06,0-.2,0-.16a.22.22,0,0,1,0,.08.13.13,0,0,0-.07.11.31.31,0,0,0,0,.08l0,0a.18.18,0,0,0-.12,0,.15.15,0,0,1-.1,0s.06.09.12.1a.19.19,0,0,1,.09.05.43.43,0,0,1,.09.15l.09.27,0,.06a3.21,3.21,0,0,0-.32-.49,4.09,4.09,0,0,0-.55-.53,1.2,1.2,0,0,0-.23-.13.52.52,0,0,0-.23,0,2,2,0,0,1,.33.15l.26.21.26.29c.06.06.21.29.27.37a1.68,1.68,0,0,1,.21.37c0,.09.12.27.15.35v0l-.16-.25A1,1,0,0,0,640,429a1.22,1.22,0,0,0-.2-.07,1.1,1.1,0,0,1,.34.3c.08.13.21.3.29.41s0,0,0,.06a1.13,1.13,0,0,1,0,.28c0,.05,0,.12,0,.12s0,0,0,0,0-.07,0-.16a6.5,6.5,0,0,0,.13-.79,1.57,1.57,0,0,1,.24-.63,1.39,1.39,0,0,0-.22.24.74.74,0,0,0-.12.3,3.07,3.07,0,0,0,0,.31.56.56,0,0,1,0-.16,1,1,0,0,0,0-.2,3.29,3.29,0,0,0,.21-.42,1,1,0,0,1,.31-.34,1.19,1.19,0,0,0-.2.1.69.69,0,0,0-.15.16l-.13.26v0c0-.08.09-.27.11-.36a2.4,2.4,0,0,1,.17-.4c0-.08.18-.32.23-.39a2.13,2.13,0,0,1,.23-.32l.23-.23a1.34,1.34,0,0,1,.31-.19A.45.45,0,0,0,641.63,426.85Z" transform="translate(-633.72 -421.87)"/><path class="cls-2" d="M638.91,426.73l.13.13s.11.14.13.16l.12.18a.42.42,0,0,0,.11.13.37.37,0,0,0,.13,0,.66.66,0,0,1,0-.11s-.07-.05-.11-.05a.23.23,0,0,1-.09,0l-.1-.14a1.46,1.46,0,0,0-.16-.21l-.13-.13-.14-.11-.1-.06s0,0,0,0l.15.11A.45.45,0,0,1,638.91,426.73Z" transform="translate(-633.72 -421.87)"/><path class="cls-2" d="M638.69,426.22l.11.12.18.2.18.23.15.23a.24.24,0,0,1,0,.09s0,.09,0,.09.12,0,.12,0a.08.08,0,0,1,0,0,.31.31,0,0,0,0-.09l-.07-.05s0,0-.06,0l-.23-.31-.19-.23c0-.05-.21-.21-.22-.22Z" transform="translate(-633.72 -421.87)"/><path class="cls-1" d="M638.86,429.73l-.07,0a.22.22,0,0,1,0,.16.68.68,0,0,1-.13.18,1.54,1.54,0,0,1-.17.19l-.17.16-.12.09-.15.08h0a.58.58,0,0,1-.14,0l-.16,0a.12.12,0,0,1-.07,0h0l0-.06h0a.46.46,0,0,1,0-.19.86.86,0,0,1,.07-.21l.09-.22a2,2,0,0,0,.08-.22.85.85,0,0,0,0-.23h0s0,0,0,0l0,0a.12.12,0,0,0-.05-.05l-.06,0h-.09l0,.06,0-.06,0,0,0,.06,0-.06-.05.05h0l-.07.06,0,.06,0-.07h-.17l0,0a.47.47,0,0,1,0-.17,2.1,2.1,0,0,1,.06-.24c0-.09,0-.17,0-.24a.22.22,0,0,0,0-.14.15.15,0,0,0-.06-.09h0a.2.2,0,0,0-.2-.07l-.18.05-.17,0a.24.24,0,0,1-.17,0l0,.07,0-.05,0,0h0l-.05,0,0-.06v-.05h0a.15.15,0,0,1,.09-.1h0l.18,0h.43v-.08l-.06,0a.14.14,0,0,0,.09.08l0-.07,0,.07.08,0,.09.05a.21.21,0,0,1,.08.06l.12.18h0l0,.07a.24.24,0,0,1,0,.08h0a.81.81,0,0,1,0,.16l0,.19v.08h.14l.06,0,.06,0,.09.08,0,0,0,0a.47.47,0,0,1,0,.1v0a.86.86,0,0,1,0,.16,1.62,1.62,0,0,1,0,.19c0,.07,0,.14,0,.21l0,.13.13-.06a.69.69,0,0,0,.18-.12l.2-.17.19-.19a1.5,1.5,0,0,0,.14-.18l-.06,0v.05l0,0h0v0l0,0h0v0a.14.14,0,0,1,0,.07.36.36,0,0,1,0,.11s0,0,0,.07l0,0,.06,0-.07,0,.07,0,.06,0h0s0,0,0-.05a.43.43,0,0,1,0-.11l0-.09v0a.21.21,0,0,0,0-.06.08.08,0,0,0-.07,0h0l0,0a1.1,1.1,0,0,1-.12.16l-.19.18-.19.17a.79.79,0,0,1-.16.1l0,.07h.08a1.42,1.42,0,0,1,0-.2l0-.2a.66.66,0,0,0,0-.2s0,0,0-.06a.64.64,0,0,0-.08-.14h0a.5.5,0,0,0-.11-.1.21.21,0,0,0-.1-.06l-.08,0h-.08v.07h.07a.75.75,0,0,0,0-.2.67.67,0,0,0,0-.2h0a.29.29,0,0,0,0-.09,1,1,0,0,0,0-.1h0a1.86,1.86,0,0,0-.14-.2.53.53,0,0,0-.12-.1l-.1-.05-.09,0h0l0,0,0,0h0a.48.48,0,0,1-.17,0h-.24a.78.78,0,0,0-.22,0h0a.27.27,0,0,0-.17.19h0a.15.15,0,0,0,0,.13.24.24,0,0,0,.06.11l.06.07,0-.06,0,.06,0,0h0a.35.35,0,0,0,.26.05l.2-.05.16,0a.07.07,0,0,1,.07,0l0-.05,0,.05,0,0a.19.19,0,0,1,0,.08c0,.06,0,.14,0,.22a1.22,1.22,0,0,0-.06.26.44.44,0,0,0,0,.23.08.08,0,0,0,0,0h0a.2.2,0,0,0,.09.09l.1,0h.09v0h.09a.36.36,0,0,0,.09-.08h0l0,0h0l0,0h0v0h0v0h0v0h0v0h0a.63.63,0,0,1,0,.19,1.59,1.59,0,0,1-.07.2,2.14,2.14,0,0,0-.1.22,1.09,1.09,0,0,0-.07.24.5.5,0,0,0,0,.12.77.77,0,0,0,0,.15l.07,0-.07,0v0a.26.26,0,0,0,.07.11h0a.22.22,0,0,0,.17.06h.19l.16-.05h0l.18-.08.15-.12a1.2,1.2,0,0,1,.16-.16l.18-.19a1.43,1.43,0,0,0,.15-.22.39.39,0,0,0,0-.26h0Zm.37-1.16-.07,0,.15.37a.64.64,0,0,1,0,.07,1.43,1.43,0,0,1,.08.37h.05l0,0v0h.05l0,0,0,0,0,0,0,0,0,0,0,0v0h0v0h0l-.05,0-.06,0-.09-.05,0,.05.07,0-.09-.23a2.44,2.44,0,0,0-.1-.24l-.09-.25-.08-.21a1.47,1.47,0,0,0-.12-.25,1.59,1.59,0,0,1-.11-.16s0-.05,0-.05h0v0h0l0,0h0l0,0,0,0,0-.06,0,.06h0v0h0v0h0l0,0a.53.53,0,0,1,.12.1,1.34,1.34,0,0,1,.11.14.58.58,0,0,1,.07.11l.07,0-.07,0s0,0,0,.06a.35.35,0,0,0,.05.08.56.56,0,0,0,0,.08l0,.07h0l.07,0,.06,0a.18.18,0,0,0,0-.09.41.41,0,0,0,0-.09l-.05-.07v0h0a1.17,1.17,0,0,0-.08-.13,1.83,1.83,0,0,0-.13-.16.53.53,0,0,0-.14-.12l-.08,0h-.1l-.08.05,0,0a.13.13,0,0,0,0,.06v0a.31.31,0,0,0,0,.1l.11.15a.76.76,0,0,1,.1.22c0,.06,0,.14.08.22l.1.24.1.24.09.24h0l.11.08a.23.23,0,0,0,.18,0h0a.08.08,0,0,0,0-.05.07.07,0,0,0,0-.06h0a2.59,2.59,0,0,0-.09-.4l0-.07a3.52,3.52,0,0,0-.15-.37l-.06,0,.06,0Z" transform="translate(-633.72 -421.87)"/><path class="cls-1" d="M639.05,424.91l-.06,0a.24.24,0,0,1,0,.1.14.14,0,0,1,0,.06c0,.07,0,.13,0,.18h0a.4.4,0,0,1-.06.13,1,1,0,0,1-.19.26l0,.05,0-.05a.89.89,0,0,1-.24.14h0a.45.45,0,0,1-.28,0h-.07v0h0v0l0,0h0v0l0,0h0a2,2,0,0,1-.22-.21,2.32,2.32,0,0,1-.22-.3,1,1,0,0,1-.09-.21.17.17,0,0,1,0-.1.26.26,0,0,1,0-.23h0v0h0v0h0l0-.07,0,0,0,.07h0a.16.16,0,0,1,0,.06l.07,0-.07,0,.06.1a1.19,1.19,0,0,0,.1.18l.06,0-.06,0,.09.16a.44.44,0,0,0,.14.18l0,0h0l.09,0,.16-.09a2,2,0,0,0,.24-.19l.21-.18L639,425h0v0h0v-.07l-.06,0,.06,0v-.07h0l-.06,0-.08.06-.21.18-.23.19-.13.06,0,0v.07l.05-.06a.3.3,0,0,1-.11-.13l-.1-.18h0l-.09-.17-.06-.1h0l-.05-.07h0l0-.06v0h0a.19.19,0,0,0-.15,0l-.06.05.06,0-.06,0a.4.4,0,0,0-.06.34l0,.12a1,1,0,0,0,.11.23,1.55,1.55,0,0,0,.24.33,1.28,1.28,0,0,0,.24.23l0-.06,0,.06.05,0h.09l0-.07,0,.07a.55.55,0,0,0,.36,0h0a.82.82,0,0,0,.29-.17h0a1.11,1.11,0,0,0,.22-.29l.05-.12,0,0v-.05h0a1.28,1.28,0,0,0,0-.17.3.3,0,0,0,0-.1.83.83,0,0,0-.07-.13l0,0h0Zm.47-.84-.07,0,.08.17,0,.09a.57.57,0,0,1,0,.14.79.79,0,0,1,0,.2h0a.27.27,0,0,1,0,.1l.07,0-.06,0h0v0h0v0h0l0,.06,0,0,0,0h0l0,0-.06,0,.06,0h0v-.06c0-.05,0-.1,0-.15a1.1,1.1,0,0,0,0-.18h0l0-.08a.09.09,0,0,0,0-.07l0,0-.05,0h0l-.11.07-.13.12-.13.12-.09.09h-.16v0h0v0h0l-.07,0h.08a.22.22,0,0,1,.06-.13,1.07,1.07,0,0,1,.16-.14l.19-.14a1,1,0,0,0,.15-.14l-.06-.05.05.06v0h0v0h.15l.06,0-.07,0,.07,0,.06,0a.16.16,0,0,0-.08-.06.38.38,0,0,0-.1,0h-.13l0,0h0a.81.81,0,0,1-.13.11l-.18.14a1,1,0,0,0-.18.17.36.36,0,0,0-.11.21v0a.14.14,0,0,0,.1.06H639l0,0,0-.06,0,.06.11-.1.12-.12.12-.11.07,0h0l0-.07-.06,0s0,0,0,.05l0,.06h0c0,.06,0,.11,0,.16a.86.86,0,0,1,0,.15.11.11,0,0,1,0,.05.09.09,0,0,0,0,.05h0l.06.06h0l0,0h0l.11,0h0a.1.1,0,0,0,.07,0h0a.36.36,0,0,0,0-.18h0c0-.07,0-.15,0-.23s0-.1,0-.15l0-.09a.78.78,0,0,0-.08-.18h0Zm1.21,1.38h-.07v0h0l0,0-.09.06a.15.15,0,0,1-.11,0s-.07,0-.12-.12h0l0,0a.44.44,0,0,0,0-.1c0-.08,0-.18-.07-.28s-.05-.23-.08-.36-.07-.25-.11-.37a2.67,2.67,0,0,0-.14-.34.91.91,0,0,0-.18-.27l-.05.06.06,0,0,0h0l.05,0a2.28,2.28,0,0,1,.3.38,2.13,2.13,0,0,1,.23.42c0,.11.09.22.13.33a.56.56,0,0,1,0,.12,3.9,3.9,0,0,1,.12.46h.07l.07,0a4.05,4.05,0,0,0-.12-.47l0-.13c0-.11-.09-.23-.14-.34a2.11,2.11,0,0,0-.24-.44,2.08,2.08,0,0,0-.32-.4.17.17,0,0,0-.1-.07.13.13,0,0,0-.12,0h0a.29.29,0,0,0-.13.08l0,.06,0,0a.65.65,0,0,1,.15.22,2.52,2.52,0,0,1,.13.33,3.07,3.07,0,0,1,.11.36c0,.12.06.24.08.35s.05.2.07.28l0,.11s0,0,0,.07l.06,0-.06,0a.38.38,0,0,0,.2.18.34.34,0,0,0,.2,0,.38.38,0,0,0,.15-.09l0-.06a.14.14,0,0,0,0-.07h0Z" transform="translate(-633.72 -421.87)"/><path class="cls-1" d="M636.33,426.61l-.06,0s0,0,0,0,0,0,0,.05h0a.07.07,0,0,1,0,0l.06,0,0-.06s-.05,0-.08,0a.32.32,0,0,1-.09,0H636l0,.06,0-.06a2.08,2.08,0,0,1-.38-.3,2.88,2.88,0,0,1-.32-.39,1.86,1.86,0,0,1-.23-.41l0-.06a.8.8,0,0,1,0-.29h0a.13.13,0,0,1,.06-.12.18.18,0,0,1,.08-.05h0v-.07l-.07,0,.21.39c.07.13.14.26.21.37s.14.21.2.3a.54.54,0,0,0,.2.18l0-.07-.06,0a.26.26,0,0,0,.07.11l.1.08h0l.09.07.06.07.06,0-.06,0,.06,0,.06,0a.44.44,0,0,0-.09-.11l-.1-.08h0a.27.27,0,0,1-.08-.07l0,0v0l0,0a.3.3,0,0,1-.13-.13c-.06-.08-.13-.17-.2-.28s-.13-.24-.21-.37l-.2-.38,0,0h-.14l-.13.08a.3.3,0,0,0-.11.23h0a1.06,1.06,0,0,0,.06.34l0,.08a2,2,0,0,0,.24.43,2.64,2.64,0,0,0,.34.41,2.34,2.34,0,0,0,.4.32h0a.34.34,0,0,0,.2,0l.12,0,.1,0h0v0a.17.17,0,0,0,0-.14h0a.14.14,0,0,0,0-.07.11.11,0,0,0,0-.07h0Zm1.32.36,0,0a.23.23,0,0,1,.07.11h0a.1.1,0,0,1,0,0v0h0a.56.56,0,0,1-.19.09l-.33.11-.12,0-.26.1a1.33,1.33,0,0,0-.35.2h0s0,0-.06,0h-.07v0h0v0h0l0,0h0v0a.77.77,0,0,1,.09-.13l.12-.16a.87.87,0,0,0,.11-.18h0l0-.13a1.41,1.41,0,0,0,.06-.22,1.69,1.69,0,0,0,0-.24.88.88,0,0,0,0-.23l0-.06h-.06a1,1,0,0,1-.27-.05.6.6,0,0,1-.25-.16l0,.05h.07v0h-.08l.07,0,0-.06h0v0a.19.19,0,0,1,0-.12h0a.7.7,0,0,1,.14-.16,1.09,1.09,0,0,1,.17-.13l.1-.05h.11l0-.07a.25.25,0,0,0,0-.07v0l-.06-.14-.07-.14a.62.62,0,0,0-.08-.12l0,0h0l-.07,0h0V425h0a.15.15,0,0,1,0-.07l0-.09-.07,0,0,.07a.24.24,0,0,1,.14,0,.48.48,0,0,1,.16.13l0-.05-.06.05a1.42,1.42,0,0,1,.2.3,1.6,1.6,0,0,1,.1.23l0,.11a1.49,1.49,0,0,1,0,.36.82.82,0,0,1-.09.34l.07,0-.07,0a.38.38,0,0,0-.06.16l0,.2,0,.21a1.6,1.6,0,0,1-.05.21l-.06.17.16-.08.17-.08.14,0a2.15,2.15,0,0,1,.34-.05V427l0,0s0,0,.06,0h.07v0h0v0l0,0,0,0,0,0,0,0,0,0h0l0,0,.05-.05a.07.07,0,0,0-.07,0h-.06v0h0v0l0,.06,0,0,0,0,0,.06,0,0,0,0h0l-.36.06L637,427l-.2.08,0,.06.06,0a1.05,1.05,0,0,0,.06-.24l0-.22,0-.18a.33.33,0,0,1,.05-.12h0a1,1,0,0,0,.1-.41,1.37,1.37,0,0,0-.05-.4l0-.11a1.23,1.23,0,0,0-.12-.26,2,2,0,0,0-.2-.32h0a.46.46,0,0,0-.22-.17.31.31,0,0,0-.23,0h0l0,0,0,.09a.51.51,0,0,0,0,.13h0a.19.19,0,0,0,0,.07s0,0,0,0h0a.26.26,0,0,0,.13.1l0-.07-.06.05a.36.36,0,0,1,.07.1.83.83,0,0,1,.07.13,1.12,1.12,0,0,1,.05.13l0,0a.11.11,0,0,1,0,.05l.07,0v-.07l-.06,0a.34.34,0,0,0-.12.06l-.2.14a1.46,1.46,0,0,0-.16.19h0a.4.4,0,0,0-.07.2h.07l-.06,0,0,.06v.11a.84.84,0,0,0,.31.19,1,1,0,0,0,.33.06v-.07h-.08a.51.51,0,0,1,0,.18,1.55,1.55,0,0,1,0,.23,1.17,1.17,0,0,1-.05.2c0,.06,0,.1,0,.11h0a.6.6,0,0,1-.09.15l-.13.16a.89.89,0,0,0-.09.16.09.09,0,0,0,0,.07.11.11,0,0,0,0,.08v0l.07,0-.07,0a.25.25,0,0,0,0,.07.13.13,0,0,0,.09.05v-.07l0,.07h.15l0,0h0l.09-.07-.06-.05,0,.06a1.4,1.4,0,0,1,.32-.18l.24-.09.12,0,.34-.11a.89.89,0,0,0,.24-.13l0-.05,0,.05a.13.13,0,0,0,.06-.1.25.25,0,0,0,0-.12h0a.37.37,0,0,0-.13-.17l0,.06.05-.05Zm-.91-1.19v-.07h-.09l-.08,0h0l-.14.11-.11.11,0,0v0h0s0,0,0,.05v0h0l.09,0,.11,0,.11,0h.09l0,0a.29.29,0,0,0,.11-.2.52.52,0,0,0,0-.25v-.05h-.06v.07l-.06,0a.4.4,0,0,1,0,.19c0,.06,0,.09,0,.1l0,.06,0-.07h-.08l-.11,0-.1,0h0l0,.05.07,0-.06,0,.06,0s0,0,0,0l-.06,0,.06,0h0l0,0h0l0,0,0,0,.09-.09a.4.4,0,0,1,.12-.1h0l0,0h0v-.07l-.06,0Z" transform="translate(-633.72 -421.87)"/><path class="cls-2" d="M638.68,429.64a.31.31,0,0,1,0,.21.86.86,0,0,1-.13.2,1.7,1.7,0,0,1-.19.19l-.16.16-.13.11-.17.08-.18.05h-.17a.16.16,0,0,1-.12,0,.24.24,0,0,1-.06-.09.51.51,0,0,1,0-.13s0-.07,0-.1a.9.9,0,0,1,.08-.23l.09-.22a1.8,1.8,0,0,0,.08-.21.76.76,0,0,0,0-.21l0-.05a.07.07,0,0,0-.06,0h0l0,0,0,0-.09.07h-.13l-.08,0a.08.08,0,0,1,0,0,.33.33,0,0,1,0-.24,2.21,2.21,0,0,1,.05-.25c0-.08,0-.16.06-.23a.2.2,0,0,0,0-.17.16.16,0,0,0-.14,0,.64.64,0,0,0-.17,0l-.19,0a.3.3,0,0,1-.2,0l0,0-.06-.06a.22.22,0,0,1,0-.08.14.14,0,0,1,0-.09.28.28,0,0,1,.13-.15l.22,0H637l.06,0,.09,0,.09,0a.23.23,0,0,1,.1.07,1.3,1.3,0,0,1,.13.19.64.64,0,0,1,.06.18.91.91,0,0,1,0,.17l0,.2h.07l.07,0,.09.05.09.09a.35.35,0,0,1,.08.16,1.09,1.09,0,0,1,0,.18,1.29,1.29,0,0,1,0,.19c0,.07,0,.14,0,.21l.17-.11.2-.18.19-.18c.05-.07.1-.12.13-.17s0,0,.05,0l0,.1a.5.5,0,0,1,0,.12Zm.36-1.16a3.77,3.77,0,0,1,.15.38,1.65,1.65,0,0,1,.11.45s0,0,0,0h0s-.07,0-.12,0l-.1-.07-.09-.23c0-.08-.06-.16-.1-.25l-.09-.24c0-.08-.06-.15-.08-.22a1,1,0,0,0-.12-.23l-.11-.16a.14.14,0,0,1,0-.09s0-.05.07-.07a.11.11,0,0,1,.1,0l.14.11.12.15a.88.88,0,0,1,.07.13s0,0,0,.05l.05.07a.41.41,0,0,0,0,.09S639,428.46,639,428.48Z" transform="translate(-633.72 -421.87)"/><path class="cls-2" d="M638.87,424.82a.5.5,0,0,1,.08.2c0,.06,0,.12,0,.17a.5.5,0,0,1-.07.16,1,1,0,0,1-.2.28.76.76,0,0,1-.26.16.53.53,0,0,1-.33,0H638a1.15,1.15,0,0,1-.23-.22,1.66,1.66,0,0,1-.23-.31,1.17,1.17,0,0,1-.14-.33.36.36,0,0,1,.06-.29s.06,0,.12,0l0,.07a.09.09,0,0,1,0,.06l.06.1a1.19,1.19,0,0,0,.1.17l.09.17a.51.51,0,0,0,.12.16.6.6,0,0,0,.21-.09l.24-.19.21-.18A.59.59,0,0,1,638.87,424.82Zm.46-.84a.78.78,0,0,1,.08.18,1.55,1.55,0,0,1,.08.23c0,.08,0,.15,0,.21a.23.23,0,0,1,0,.15.06.06,0,0,1,0,0,.1.1,0,0,1-.07,0l0,0,0,0a.37.37,0,0,0,0-.08s0-.09,0-.15l0-.16a.33.33,0,0,0,0-.13.17.17,0,0,0-.11.06l-.12.11-.13.12-.1.1,0,0h-.16l0,0a.32.32,0,0,1,.09-.17.87.87,0,0,1,.17-.16l.18-.14a.44.44,0,0,0,.14-.13h.2Zm1.21,1.38s0,0,0,.07a.24.24,0,0,1-.12.07.2.2,0,0,1-.15,0,.38.38,0,0,1-.17-.15,1.66,1.66,0,0,1,0-.16c0-.07,0-.17-.06-.28s-.05-.22-.08-.35-.07-.25-.11-.37a2.52,2.52,0,0,0-.14-.33.91.91,0,0,0-.16-.24s0-.05.1-.06a.14.14,0,0,1,.15.05,3,3,0,0,1,.31.39,3.62,3.62,0,0,1,.24.43c.06.15.12.3.17.46A4,4,0,0,1,640.54,425.36Z" transform="translate(-633.72 -421.87)"/><path class="cls-2" d="M636.15,426.52a.36.36,0,0,1,0,.11.18.18,0,0,1,0,.1.7.7,0,0,1-.19.06.26.26,0,0,1-.16,0,2.15,2.15,0,0,1-.38-.31,3.14,3.14,0,0,1-.34-.4,2.91,2.91,0,0,1-.23-.42,1,1,0,0,1-.08-.39.23.23,0,0,1,.09-.18.28.28,0,0,1,.17-.07l.21.38a4.07,4.07,0,0,0,.21.37,2.6,2.6,0,0,0,.2.3.43.43,0,0,0,.16.15.21.21,0,0,0,.06.08.35.35,0,0,0,.09.07l.09.08Zm1.31.36a.27.27,0,0,1,.11.14.14.14,0,0,1,0,.15.51.51,0,0,1-.21.11l-.33.11-.37.13a2.17,2.17,0,0,0-.34.19l-.07.06a.18.18,0,0,1-.13,0,.05.05,0,0,1,0,0l0-.05a.1.1,0,0,1,0-.1.8.8,0,0,1,.09-.14l.12-.16a.75.75,0,0,0,.1-.17.36.36,0,0,0,0-.12l.06-.2a2,2,0,0,0,0-.24.66.66,0,0,0,0-.2,1.17,1.17,0,0,1-.3-.05.84.84,0,0,1-.28-.18v0l0-.06a.29.29,0,0,1,.06-.16,1.22,1.22,0,0,1,.33-.31.52.52,0,0,1,.16-.07.23.23,0,0,0,0-.09l-.06-.14a.83.83,0,0,0-.07-.13.63.63,0,0,0-.07-.12.2.2,0,0,1-.1-.07.12.12,0,0,1,0-.09.2.2,0,0,1,0-.1l0-.08a.24.24,0,0,1,.18,0,.43.43,0,0,1,.19.14c.07.09.13.2.2.31a1.78,1.78,0,0,1,.14.36,1.65,1.65,0,0,1,.05.38,1.07,1.07,0,0,1-.1.38.38.38,0,0,0-.05.14,1.08,1.08,0,0,0,0,.19l0,.21a.79.79,0,0,1-.06.22,1.61,1.61,0,0,1,.33-.12,1.48,1.48,0,0,1,.35-.05h.1Zm-.9-1.19a.43.43,0,0,0-.14,0l-.13.1-.09.1s0,.05,0,.06l.06,0,.11,0,.1,0h.07a.19.19,0,0,0,.08-.15A.53.53,0,0,0,636.56,425.69Z" transform="translate(-633.72 -421.87)"/></svg>